<?xml version="1.0" encoding="utf-8"?>
<!-- Generator: Adobe Illustrator 24.2.0, SVG Export Plug-In . SVG Version: 6.00 Build 0)  -->
<svg version="1.2" baseProfile="tiny" id="Layer_1" xmlns="http://www.w3.org/2000/svg" xmlns:xlink="http://www.w3.org/1999/xlink"
	 x="0px" y="0px" viewBox="0 0 624.72 457.44" overflow="visible" xml:space="preserve">
<g>
	<path fill="#FFFFFF" d="M513.88,457.44c-171.29,0-342.59,0-513.88,0C0,304.96,0,152.48,0,0c208.24,0,416.48,0,624.72,0
		c0,65.85,0,131.7,0,197.55c-2.73-1.12-5.63-1.07-8.49-1.06c-9.7,0.01-17.2,4.19-22.65,12.14c-2.51,3.66-4.15,7.72-5.33,11.98
		c-0.12,0.45-0.42,0.85-0.64,1.28c-0.14-0.04-0.27-0.08-0.41-0.12c0.38-8.01,0.75-16.03,1.13-24.12c-10.34,0-20.37,0-30.5,0
		c0,33.73,0,67.32,0,101.01c10.18,0,20.21,0,30.5,0c0-1.05,0-1.98,0-2.92c0-14.38-0.01-28.76,0-43.13c0-3.77,0.38-7.5,1.41-11.13
		c2.46-8.68,7.96-14.27,16.93-16.01c6.05-1.18,12.09-0.67,18.05,0.87c0,77.04,0,154.08,0,231.12c-33.27,0-66.53,0-99.8,0
		c0.52-0.16,1.02-0.38,1.55-0.48c3.21-0.65,6.47-1.09,9.62-1.96c8.27-2.29,15.46-6.37,20.97-13.15c8.79-10.83,10.64-31.87-7.2-42.75
		c-4.19-2.55-8.59-4.65-13.31-5.92c-6.4-1.72-12.87-3.14-19.29-4.77c-1.69-0.43-3.4-0.99-4.91-1.83c-4.74-2.63-5.67-8.33-2.13-12.46
		c1.44-1.68,3.28-2.77,5.37-3.47c3.35-1.13,6.75-1.15,10.17-0.42c6.84,1.47,11.46,6.19,12.74,13.01c0.07,0.38,0.22,0.75,0.38,1.3
		c9.09-0.21,18.15-0.42,27.29-0.63c0.14-3.16-0.43-5.89-1.23-8.56c-2.86-9.58-9.12-16.33-17.77-21.01
		c-7.99-4.32-16.64-5.98-25.64-6.02c-8.17-0.04-16.11,1.28-23.45,5.05c-13.1,6.72-19.97,17.24-19.33,32.24
		c0.45,10.46,5.27,18.21,14.4,23.3c4,2.23,8.28,3.8,12.71,4.88c5.59,1.35,11.23,2.48,16.8,3.91c2.53,0.65,5.09,1.52,7.34,2.8
		c4.48,2.55,4.94,8.37,1.01,11.72c-1.3,1.11-2.93,2.01-4.56,2.53c-5.18,1.65-10.43,1.56-15.53-0.35c-5.66-2.12-8.97-6.2-9.57-12.32
		c-0.03-0.3-0.13-0.59-0.26-1.12c-9.2,0.55-18.35,0.38-27.56,1c0,0.74-0.03,1.22,0,1.69c0.54,8.82,4.23,16.13,10.77,22
		c6.3,5.65,13.84,8.76,22.06,10.39C508.87,456.52,511.38,456.97,513.88,457.44z M191.61,112.08c-0.1,0.94-0.15,1.41-0.21,1.89
		c-1.59,12.22-7.76,21.3-18.78,26.91c-7.72,3.93-16.03,4.99-24.5,3.72c-14.65-2.18-24.93-10.38-30.54-23.97
		c-5.72-13.85-5.46-27.91,0.19-41.76c3.03-7.42,7.97-13.43,14.73-17.85c13.03-8.51,32.09-8.32,44.93,0.47
		c6.96,4.77,11.45,11.26,13.32,19.5c0.42,1.85,0.62,3.75,0.97,5.94c10.42-0.86,20.79-1.72,31.25-2.59c-0.1-4.23-0.57-8.1-1.54-11.89
		c-3.79-14.73-12.45-25.99-25.12-34.08c-17.37-11.08-36.43-14.4-56.55-10.56c-22.95,4.38-39.93,17.22-50.7,37.94
		c-7.7,14.81-9.8,30.66-7.04,47.04c3.86,22.97,15.92,40.47,36.26,51.97c12.42,7.02,25.92,9.71,40.15,8.97
		c12.43-0.64,24.13-3.81,34.8-10.27c15.16-9.17,25.22-22.11,28.65-39.76c0.57-2.96,1.04-5.96,0.67-9.25
		C212.26,113.67,202.02,112.88,191.61,112.08z M436.67,362.63c-0.19,0.05-0.38,0.11-0.57,0.16c-0.48-0.53-0.95-1.08-1.45-1.59
		c-4.77-4.83-10.4-8.15-17.01-9.81c-5.34-1.34-10.72-1.62-16.18-0.98c-17.95,2.08-30.95,11.23-38.17,27.75
		c-6.72,15.38-6.7,31.21-1.06,46.98c2.86,7.99,7.62,14.75,14.23,20.1c9.29,7.53,20.06,10.62,31.9,10.36
		c10.56-0.23,19.66-3.83,26.99-11.57c0.29-0.31,0.65-0.55,1.4-1.18c0,3.83,0,7.13,0,10.46c10.32,0,20.35,0,30.41,0
		c0-46.63,0-93.1,0-139.59c-10.2,0-20.24,0-30.49,0c0,8.28,0,16.42,0,24.55C436.67,346.39,436.67,354.51,436.67,362.63z
		 M33.14,252.67c1.23,0,2.1,0,2.97,0c7.51,0,15.03-0.01,22.54,0c4.57,0.01,9.1-0.44,13.56-1.44c22.17-4.96,35.99-22.05,37.32-41.45
		c1.3-19.01-6.09-33.76-22.43-43.73c-8.76-5.35-18.54-7.21-28.69-7.23c-18.54-0.04-37.09-0.01-55.63,0c-0.61,0-1.22,0.11-1.93,0.17
		c0,46.62,0,93.07,0,139.62c10.79,0,21.45,0,32.3,0C33.14,283.31,33.14,268.16,33.14,252.67z M364.81,288.39
		c0.85,0.75,1.32,1.12,1.73,1.54c2.79,2.79,5.89,5.14,9.43,6.92c7.37,3.7,15.19,4.72,23.31,3.88c17.75-1.83,30.74-10.66,38.33-26.81
		c6.32-13.46,6.86-27.6,3.39-41.91c-2.52-10.38-7.72-19.24-16.05-26.06c-9.11-7.46-19.71-10.58-31.38-10.45
		c-10.82,0.12-20.15,3.78-27.67,11.69c-0.22,0.23-0.59,0.34-1.17,0.66c0-3.59,0-6.84,0-10.21c-10.22,0-20.24,0-30.26,0
		c-0.1,0.34-0.22,0.57-0.23,0.79c-0.02,40.27-0.03,80.54-0.04,120.81c0,0.47,0.08,0.95,0.14,1.42c0.01,0.07,0.09,0.13,0.14,0.19
		c0.05,0.06,0.11,0.11,0.16,0.16c9.97,0,19.93,0,30.17,0C364.81,310.19,364.81,299.54,364.81,288.39z M248.89,197.83
		c-2.51-0.51-28.66-0.45-30.44,0.03c0,41.02,0,82.04,0,123.12c10.2,0,20.22,0,30.53,0c0-10.8,0-21.44,0-32.59
		c0.94,0.9,1.5,1.43,2.05,1.96c4.79,4.69,10.42,7.85,16.96,9.42c5.11,1.23,10.26,1.5,15.47,0.95c17.45-1.84,30.36-10.45,37.94-26.27
		c6.88-14.36,7.33-29.42,3.05-44.63c-2.5-8.89-7.13-16.55-14.07-22.71c-9.29-8.24-20.33-11.73-32.62-11.63
		c-10.91,0.09-20.31,3.75-27.87,11.77c-0.18,0.19-0.48,0.29-0.99,0.58C248.89,204.28,248.89,201.03,248.89,197.83z M232.25,30.35
		c-0.51,3.18-0.35,137.82,0.15,139.54c9.95,0,19.92,0,30.14,0c0-1.07,0-2.01,0-2.95c0-17.02-0.05-34.04,0.04-51.06
		c0.02-3.26,0.3-6.56,0.93-9.75c1.04-5.28,3.58-9.76,8.46-12.5c10.08-5.66,22.35-0.62,25.59,10.44c0.98,3.34,1.12,6.77,1.12,10.2
		c0.02,17.58,0.01,35.16,0.01,52.73c0,0.93,0,1.85,0,2.72c3.41,0.53,28.74,0.38,30.47-0.15c0.03-0.61,0.08-1.24,0.08-1.87
		c0-20.37,0-40.75,0.01-61.12c0-4.1-0.55-8.13-1.62-12.08c-5.41-20.03-22.21-29.7-41.54-27.22c-9.92,1.27-17.23,6.78-22.09,15.52
		c-0.36,0.64-0.74,1.27-1.12,1.9c-0.14-0.06-0.28-0.11-0.41-0.17c0-18.03,0-36.06,0-54.21C252.33,30.35,242.36,30.35,232.25,30.35z
		 M152.37,313.73c-31.33,0-62.53,0-93.75,0c0,46.61,0,93.06,0,139.61c10.75,0,21.34,0,32.21,0c0-18.48,0-36.81,0-55.42
		c3.44,0,6.62,0,9.8,0c3.2,0,6.4,0,9.59,0c3.12,0,6.24,0,9.35,0c3.2,0,6.4,0,9.59,0s6.4,0.01,9.59,0c3.16-0.01,6.33,0.05,9.43-0.04
		c0.45-3.8,0.3-22.93-0.21-24.87c-18.93,0-37.92,0-56.98,0c0-11.36,0-22.5,0-33.9c5.26,0,10.35,0,15.44,0c5.12,0,10.23,0,15.35,0
		s10.23,0.01,15.35,0c5.07-0.02,10.15,0.08,15.24-0.06C152.37,330.4,152.37,322.13,152.37,313.73z M302.62,411.33
		c1.2-8.28,1.05-16.15-0.85-23.92c-4.05-16.54-13.65-28.51-29.68-34.79c-9.67-3.79-19.75-4.48-29.95-2.61
		c-16.13,2.95-28.37,11.51-35.67,26.24c-7.73,15.61-8.27,31.9-2.17,48.13c5.74,15.27,16.88,25.14,32.52,29.75
		c11.33,3.34,22.74,3.14,34.04-0.19c7.8-2.3,14.7-6.22,20.31-12.2c5.41-5.77,8.67-12.55,9.61-20.71
		c-8.98-0.73-17.85-1.45-26.76-2.18c-1.77,5.92-5.35,9.9-10.69,12.28c-5.24,2.34-10.68,2.69-16.18,1.26
		c-9.17-2.39-16.35-12.19-15.41-21.05C255.27,411.33,278.82,411.33,302.62,411.33z M478.53,256.55c23.58,0,47.19,0,70.82,0
		c0.19-1.07,0.38-1.85,0.47-2.64c0.79-7.38,0.43-14.7-1.43-21.88c-4.15-16.03-13.57-27.65-29.09-33.91
		c-9.34-3.77-19.1-4.5-28.99-2.98c-16,2.46-28.35,10.55-36.2,24.78c-7.48,13.55-8.77,28.11-5.18,42.99
		c4.06,16.82,14.21,28.68,30.38,35.15c8.63,3.45,17.68,4.27,26.86,3.45c8.64-0.77,16.78-3.23,24.08-8.03
		c8.95-5.88,14.92-13.85,16.94-24.52c0.15-0.81,0.17-1.65,0.26-2.61c-9.11-0.74-17.91-1.45-26.64-2.16
		c-3.47,11.95-16.07,16.03-25.94,13.79C485.2,275.79,477.62,265.99,478.53,256.55z M209.87,256.64c0.14-0.73,0.24-1.11,0.29-1.49
		c1-7.44,0.73-14.84-1-22.14c-3.66-15.34-12.2-26.93-26.64-33.74c-9.99-4.7-20.57-5.8-31.39-4.15
		c-18.34,2.8-31.48,12.66-38.86,29.73c-5.04,11.65-5.84,23.87-3.23,36.19c3.63,17.17,13.4,29.62,29.72,36.57
		c9.18,3.91,18.85,4.81,28.7,3.83c8.38-0.84,16.26-3.32,23.37-7.96c7.03-4.59,12.31-10.63,15.29-18.54
		c1.01-2.68,1.79-5.42,1.88-8.58c-8.91-0.73-17.71-1.46-26.65-2.2c-1.59,5.7-5.06,9.67-10.27,12.11
		c-5.18,2.42-10.59,2.97-16.13,1.55c-9.49-2.42-16.6-11.81-15.95-21.2C162.53,256.64,186.1,256.64,209.87,256.64z M436.71,30.32
		c0,0.97,0,1.75,0,2.53c0,34.35-0.01,68.7,0.01,103.04c0,4.65,0.56,9.25,1.88,13.72c3.18,10.75,10.01,17.8,21.07,20.42
		c5.68,1.34,11.43,1.14,17.16,0.42c2.58-0.33,5.14-0.88,7.53-1.3c0-8.83,0-17.33,0-26.03c-1.27,0.22-2.19,0.44-3.13,0.53
		c-7.79,0.76-12.48-2.47-13.45-9.83c-0.3-2.29-0.43-4.61-0.43-6.92c-0.03-31.23-0.02-62.46-0.02-93.7c0-0.93,0-1.86,0-2.88
		C457.05,30.32,447.08,30.32,436.71,30.32z M429.6,145.77c-2.33,0-4.41,0.15-6.46-0.03c-6.66-0.59-11.8-4.95-13.18-11.1
		c-0.66-2.92-0.49-5.91,0.05-8.82c1.04-5.57,2.21-11.12,3.38-16.66c5.38-25.46,10.79-50.92,16.17-76.37
		c0.11-0.52,0.14-1.05,0.23-1.75c-9.73-1.93-19.33-3.83-29.04-5.75c-0.4,1.78-0.74,3.24-1.05,4.72
		c-5.86,27.56-11.7,55.13-17.57,82.69c-1.66,7.82-3.31,15.62-3.17,23.69c0.26,14.69,7.19,25.02,20.46,31.07
		c7.86,3.59,16.18,4.12,24.66,3.03c0.29-0.04,0.57-0.24,0.91-0.39c1.48-7.54,2.95-15.06,4.41-22.58
		C429.5,147.05,429.51,146.57,429.6,145.77z M358.55,426.74c-2.3,0.17-4.22,0.49-6.11,0.42c-5.61-0.19-9.14-3.13-10.23-8.63
		c-0.45-2.25-0.6-4.6-0.6-6.9c-0.04-26.76-0.03-53.53-0.03-80.29c0-0.94,0-1.87,0-2.95c-10.32,0-20.35,0-30.55,0
		c-0.04,0.89-0.11,1.67-0.11,2.45c-0.01,29.4,0,58.8-0.01,88.2c0,4.25,0.43,8.46,1.49,12.58c2.88,11.17,9.46,18.87,20.95,21.72
		c8.51,2.11,16.95,1.05,25.61-0.89C358.83,443.84,358.69,435.33,358.55,426.74z M517.19,172.91c7.58-33.92,15.07-67.46,22.6-101.17
		c-10.01-1.94-19.73-3.96-29.66-5.75c-7.49,33.85-14.92,67.39-22.39,101.12C497.67,169.06,507.28,170.96,517.19,172.91z
		 M148.97,450.45c9.95,1.96,19.61,3.86,29.45,5.79c7.57-33.85,15.06-67.38,22.6-101.14c-9.96-1.95-19.71-3.85-29.66-5.79
		C163.88,383.15,156.45,416.68,148.97,450.45z M339.63,69.01c-0.49,2.37-0.43,98.94,0.05,100.85c10.01,0,20.04,0,30.12,0
		c0-33.68,0-67.19,0-100.85C359.65,69.01,349.63,69.01,339.63,69.01z M354.48,20.02c-10.49,0.03-18.55,8.21-18.53,18.79
		c0.02,10.52,8.21,18.6,18.78,18.53c10.63-0.07,18.59-8.12,18.47-18.78C373.07,27,363.94,19.67,354.48,20.02z M521.48,20.02
		c-10.49,0.03-18.56,8.19-18.55,18.77c0.01,10.52,8.18,18.61,18.76,18.55c10.63-0.06,18.61-8.1,18.5-18.76
		C540.06,27.01,530.92,19.68,521.48,20.02z"/>
	<path d="M513.88,457.44c-2.5-0.47-5.01-0.92-7.51-1.42c-8.21-1.63-15.75-4.74-22.06-10.39c-6.54-5.87-10.23-13.17-10.77-22
		c-0.03-0.47,0-0.94,0-1.69c9.21-0.62,18.36-0.44,27.56-1c0.13,0.53,0.23,0.82,0.26,1.12c0.6,6.12,3.9,10.19,9.57,12.32
		c5.1,1.91,10.35,2,15.53,0.35c1.63-0.52,3.26-1.42,4.56-2.53c3.93-3.35,3.47-9.18-1.01-11.72c-2.25-1.28-4.82-2.15-7.34-2.8
		c-5.57-1.43-11.21-2.56-16.8-3.91c-4.44-1.07-8.71-2.64-12.71-4.88c-9.12-5.09-13.95-12.84-14.4-23.3
		c-0.65-15,6.23-25.52,19.33-32.24c7.33-3.76,15.28-5.08,23.45-5.05c8.99,0.04,17.65,1.71,25.64,6.02
		c8.65,4.68,14.91,11.43,17.77,21.01c0.8,2.68,1.36,5.41,1.23,8.56c-9.14,0.21-18.2,0.42-27.29,0.63c-0.16-0.55-0.31-0.92-0.38-1.3
		c-1.28-6.82-5.89-11.53-12.74-13.01c-3.43-0.74-6.82-0.71-10.17,0.42c-2.09,0.7-3.93,1.79-5.37,3.47
		c-3.54,4.13-2.61,9.84,2.13,12.46c1.51,0.84,3.22,1.4,4.91,1.83c6.42,1.64,12.9,3.05,19.29,4.77c4.72,1.27,9.13,3.36,13.31,5.92
		c17.83,10.88,15.99,31.92,7.2,42.75c-5.5,6.78-12.69,10.86-20.97,13.15c-3.15,0.87-6.41,1.3-9.62,1.96
		c-0.53,0.11-1.03,0.32-1.55,0.48C521.24,457.44,517.56,457.44,513.88,457.44z"/>
	<path d="M624.72,226.32c-5.96-1.54-11.99-2.05-18.05-0.87c-8.97,1.75-14.47,7.33-16.93,16.01c-1.03,3.63-1.4,7.37-1.41,11.13
		c-0.01,14.38,0,28.76,0,43.13c0,0.94,0,1.87,0,2.92c-10.29,0-20.32,0-30.5,0c0-33.7,0-67.28,0-101.01c10.13,0,20.15,0,30.5,0
		c-0.38,8.09-0.76,16.11-1.13,24.12c0.14,0.04,0.27,0.08,0.41,0.12c0.22-0.42,0.51-0.83,0.64-1.28c1.18-4.26,2.82-8.32,5.33-11.98
		c5.45-7.94,12.95-12.12,22.65-12.14c2.87,0,5.76-0.06,8.49,1.06C624.72,207.14,624.72,216.73,624.72,226.32z"/>
	<path d="M191.61,112.08c10.42,0.8,20.66,1.59,30.95,2.38c0.37,3.29-0.1,6.28-0.67,9.25c-3.42,17.65-13.49,30.59-28.65,39.76
		c-10.67,6.46-22.37,9.62-34.8,10.27c-14.23,0.74-27.73-1.95-40.15-8.97c-20.34-11.5-32.4-29-36.26-51.97
		c-2.75-16.37-0.66-32.22,7.04-47.04c10.77-20.72,27.75-33.56,50.7-37.94c20.11-3.84,39.18-0.52,56.55,10.56
		c12.67,8.09,21.34,19.34,25.12,34.08c0.98,3.8,1.44,7.66,1.54,11.89c-10.46,0.87-20.84,1.73-31.25,2.59
		c-0.35-2.2-0.55-4.09-0.97-5.94c-1.87-8.24-6.36-14.74-13.32-19.5c-12.84-8.79-31.9-8.99-44.93-0.47
		c-6.76,4.42-11.7,10.42-14.73,17.85c-5.66,13.86-5.91,27.92-0.19,41.76c5.61,13.59,15.88,21.79,30.54,23.97
		c8.48,1.26,16.78,0.21,24.5-3.72c11.01-5.61,17.19-14.69,18.78-26.91C191.46,113.49,191.5,113.02,191.61,112.08z"/>
	<path d="M436.67,362.63c0-8.12,0-16.23,0-24.35c0-8.13,0-16.27,0-24.55c10.26,0,20.29,0,30.49,0c0,46.49,0,92.95,0,139.59
		c-10.06,0-20.1,0-30.41,0c0-3.33,0-6.63,0-10.46c-0.75,0.63-1.11,0.88-1.4,1.18c-7.34,7.73-16.43,11.34-26.99,11.57
		c-11.84,0.25-22.61-2.84-31.9-10.36c-6.61-5.36-11.37-12.12-14.23-20.1c-5.64-15.77-5.66-31.59,1.06-46.98
		c7.22-16.52,20.22-25.66,38.17-27.75c5.46-0.63,10.84-0.35,16.18,0.98c6.61,1.65,12.25,4.97,17.01,9.81
		c0.5,0.51,0.97,1.06,1.45,1.59C436.29,362.73,436.48,362.68,436.67,362.63z M438.26,403.07c-0.06-1.36-0.06-2.72-0.2-4.07
		c-0.73-6.79-3.08-12.85-8.1-17.69c-9.99-9.64-29.95-8.71-37.57,7.45c-3.56,7.54-3.86,15.42-1.81,23.4
		c2.39,9.29,9.59,17.34,21.26,18.15c9.59,0.67,17.19-2.92,22.29-11.19C437.13,414.22,438.25,408.78,438.26,403.07z"/>
	<path d="M33.14,252.67c0,15.49,0,30.64,0,45.94c-10.85,0-21.51,0-32.3,0c0-46.54,0-93,0-139.62c0.71-0.07,1.32-0.17,1.93-0.17
		c18.54-0.01,37.09-0.04,55.63,0c10.15,0.02,19.93,1.88,28.69,7.23c16.34,9.97,23.73,24.72,22.43,43.73
		c-1.33,19.4-15.14,36.49-37.32,41.45c-4.46,1-8.99,1.44-13.56,1.44c-7.51-0.01-15.03,0-22.54,0
		C35.24,252.67,34.37,252.67,33.14,252.67z M33.29,226.98c0.99,0,1.85,0,2.7,0c6.39,0,12.78,0.01,19.17-0.01
		c1.12,0,2.24-0.05,3.35-0.14c8.67-0.72,15.63-6.59,17.82-15.02c0.92-3.53,1.09-7.1,0.37-10.67c-1.52-7.57-5.83-12.88-13.21-15.34
		c-2.45-0.82-5.15-1.14-7.75-1.2c-6.78-0.16-13.57-0.06-20.36-0.05c-0.69,0-1.37,0.11-2.09,0.16
		C33.29,198.83,33.29,212.76,33.29,226.98z"/>
	<path d="M364.81,288.39c0,11.15,0,21.81,0,32.6c-10.24,0-20.21,0-30.17,0c-0.05-0.05-0.11-0.1-0.16-0.16
		c-0.05-0.06-0.13-0.12-0.14-0.19c-0.06-0.47-0.14-0.95-0.14-1.42c0.01-40.27,0.02-80.54,0.04-120.81c0-0.23,0.12-0.45,0.23-0.79
		c10.02,0,20.05,0,30.26,0c0,3.38,0,6.62,0,10.21c0.59-0.32,0.95-0.42,1.17-0.66c7.53-7.92,16.85-11.57,27.67-11.69
		c11.67-0.13,22.27,2.99,31.38,10.45c8.33,6.83,13.53,15.68,16.05,26.06c3.47,14.31,2.93,28.45-3.39,41.91
		c-7.59,16.16-20.57,24.98-38.33,26.81c-8.12,0.84-15.94-0.18-23.31-3.88c-3.54-1.77-6.64-4.13-9.43-6.92
		C366.13,289.51,365.66,289.14,364.81,288.39z M363.1,248.28c-0.06,3.53,0.45,7.16,1.59,10.68c3.13,9.59,10.91,15.94,20.45,16.7
		c10.46,0.84,19.36-3.86,23.62-12.98c4.59-9.83,4.59-19.88-0.38-29.57c-4.31-8.4-11.51-12.66-21.01-12.58
		c-9.47,0.07-16.49,4.41-20.93,12.78C364,237.93,363.07,242.92,363.1,248.28z"/>
	<path d="M248.89,197.83c0,3.2,0,6.46,0,10.01c0.52-0.3,0.81-0.39,0.99-0.58c7.56-8.01,16.96-11.68,27.87-11.77
		c12.29-0.1,23.32,3.39,32.62,11.63c6.94,6.15,11.57,13.82,14.07,22.71c4.28,15.22,3.83,30.27-3.05,44.63
		c-7.58,15.82-20.49,24.43-37.94,26.27c-5.22,0.55-10.36,0.28-15.47-0.95c-6.53-1.57-12.16-4.74-16.96-9.42
		c-0.55-0.54-1.11-1.06-2.05-1.96c0,11.14,0,21.79,0,32.59c-10.3,0-20.33,0-30.53,0c0-41.09,0-82.1,0-123.12
		C220.23,197.38,246.38,197.32,248.89,197.83z M247.1,248.06c-0.05,3.63,0.47,7.17,1.55,10.62c3.16,10.07,11.53,16.61,21.45,17.05
		c11.85,0.52,20.28-5.96,23.77-15.4c3.21-8.68,3.15-17.46-0.76-25.89c-4.21-9.09-11.49-13.96-21.64-13.9
		c-10.11,0.06-17.29,4.92-21.58,14.02C247.88,238.83,247.13,243.38,247.1,248.06z"/>
	<path d="M232.25,30.35c10.11,0,20.07,0,30.21,0c0,18.15,0,36.18,0,54.21c0.14,0.06,0.28,0.11,0.41,0.17
		c0.37-0.63,0.76-1.26,1.12-1.9c4.86-8.74,12.17-14.25,22.09-15.52c19.33-2.48,36.13,7.19,41.54,27.22
		c1.07,3.95,1.62,7.98,1.62,12.08c-0.01,20.37,0,40.75-0.01,61.12c0,0.63-0.05,1.27-0.08,1.87c-1.73,0.52-27.06,0.67-30.47,0.15
		c0-0.87,0-1.8,0-2.72c0-17.58,0.01-35.16-0.01-52.73c0-3.44-0.14-6.86-1.12-10.2c-3.23-11.06-15.5-16.1-25.59-10.44
		c-4.88,2.74-7.41,7.22-8.46,12.5c-0.63,3.19-0.92,6.49-0.93,9.75c-0.09,17.02-0.04,34.04-0.04,51.06c0,0.94,0,1.88,0,2.95
		c-10.22,0-20.18,0-30.14,0C231.9,168.17,231.75,33.53,232.25,30.35z"/>
	<path d="M152.37,313.73c0,8.4,0,16.67,0,25.31c-5.09,0.14-10.16,0.05-15.24,0.06c-5.12,0.02-10.23,0-15.35,0s-10.23,0-15.35,0
		c-5.09,0-10.19,0-15.44,0c0,11.4,0,22.54,0,33.9c19.07,0,38.06,0,56.98,0c0.51,1.94,0.66,21.07,0.21,24.87
		c-3.1,0.08-6.27,0.03-9.43,0.04c-3.2,0.01-6.4,0-9.59,0s-6.4,0-9.59,0c-3.12,0-6.24,0-9.35,0c-3.2,0-6.4,0-9.59,0
		c-3.18,0-6.35,0-9.8,0c0,18.61,0,36.94,0,55.42c-10.87,0-21.46,0-32.21,0c0-46.54,0-93,0-139.61
		C89.85,313.73,121.05,313.73,152.37,313.73z"/>
	<path d="M302.62,411.33c-23.79,0-47.35,0-70.87,0c-0.94,8.87,6.24,18.67,15.41,21.05c5.5,1.43,10.94,1.08,16.18-1.26
		c5.33-2.38,8.92-6.35,10.69-12.28c8.91,0.73,17.78,1.45,26.76,2.18c-0.94,8.16-4.19,14.94-9.61,20.71
		c-5.61,5.98-12.51,9.9-20.31,12.2c-11.31,3.33-22.71,3.53-34.04,0.19c-15.65-4.61-26.78-14.48-32.52-29.75
		c-6.11-16.23-5.57-32.52,2.17-48.13c7.3-14.73,19.54-23.29,35.67-26.24c10.2-1.87,20.28-1.18,29.95,2.61
		c16.04,6.29,25.63,18.25,29.68,34.79C303.67,395.18,303.82,403.05,302.62,411.33z M273.11,392.3c-0.25-7.55-3.15-13.46-9.55-17.1
		c-7.68-4.37-15.64-4.4-23.17,0.44c-5.9,3.8-8.46,9.62-8.93,16.66C245.42,392.3,259.07,392.3,273.11,392.3z"/>
	<path d="M478.53,256.55c-0.91,9.44,6.67,19.24,16.35,21.43c9.87,2.24,22.48-1.84,25.94-13.79c8.73,0.71,17.53,1.42,26.64,2.16
		c-0.09,0.95-0.11,1.79-0.26,2.61c-2.02,10.67-7.99,18.65-16.94,24.52c-7.3,4.8-15.44,7.26-24.08,8.03
		c-9.18,0.82-18.23,0-26.86-3.45c-16.17-6.46-26.33-18.33-30.38-35.15c-3.59-14.88-2.29-29.44,5.18-42.99
		c7.85-14.23,20.19-22.32,36.2-24.78c9.89-1.52,19.65-0.79,28.99,2.98c15.52,6.26,24.94,17.88,29.09,33.91
		c1.86,7.18,2.22,14.51,1.43,21.88c-0.08,0.79-0.27,1.57-0.47,2.64C525.72,256.55,502.11,256.55,478.53,256.55z M519.8,237.68
		c0.15-11.88-9.34-20.66-21.56-20.17c-11.42,0.45-20.7,9.89-19.72,20.17C492.22,237.68,505.92,237.68,519.8,237.68z"/>
	<path d="M209.87,256.64c-23.78,0-47.34,0-70.89,0c-0.65,9.38,6.46,18.78,15.95,21.2c5.55,1.41,10.95,0.87,16.13-1.55
		c5.21-2.43,8.68-6.41,10.27-12.11c8.94,0.74,17.74,1.46,26.65,2.2c-0.09,3.15-0.87,5.9-1.88,8.58
		c-2.98,7.91-8.26,13.95-15.29,18.54c-7.11,4.64-14.99,7.12-23.37,7.96c-9.84,0.98-19.51,0.08-28.7-3.83
		c-16.31-6.95-26.08-19.4-29.72-36.57c-2.6-12.32-1.81-24.54,3.23-36.19c7.39-17.07,20.52-26.93,38.86-29.73
		c10.82-1.65,21.4-0.55,31.39,4.15c14.45,6.81,22.99,18.4,26.64,33.74c1.74,7.3,2.01,14.7,1,22.14
		C210.11,255.53,210.02,255.91,209.87,256.64z M180.32,237.69c0.44-11.56-9.25-20.57-21.38-20.18c-11.48,0.36-21.01,9.98-19.9,20.18
		C152.75,237.69,166.46,237.69,180.32,237.69z"/>
	<path d="M436.71,30.32c10.37,0,20.34,0,30.63,0c0,1.02,0,1.95,0,2.88c0,31.23-0.01,62.46,0.02,93.7c0,2.31,0.13,4.63,0.43,6.92
		c0.98,7.36,5.67,10.59,13.45,9.83c0.94-0.09,1.86-0.31,3.13-0.53c0,8.7,0,17.2,0,26.03c-2.39,0.42-4.95,0.98-7.53,1.3
		c-5.73,0.73-11.49,0.93-17.16-0.42c-11.06-2.62-17.89-9.67-21.07-20.42c-1.32-4.47-1.88-9.07-1.88-13.72
		c-0.02-34.35-0.01-68.7-0.01-103.04C436.71,32.07,436.71,31.29,436.71,30.32z"/>
	<path d="M429.6,145.77c-0.09,0.8-0.1,1.28-0.19,1.74c-1.46,7.52-2.94,15.03-4.41,22.58c-0.35,0.15-0.62,0.35-0.91,0.39
		c-8.48,1.09-16.8,0.56-24.66-3.03c-13.27-6.06-20.2-16.38-20.46-31.07c-0.14-8.07,1.5-15.87,3.17-23.69
		c5.87-27.56,11.71-55.12,17.57-82.69c0.31-1.47,0.65-2.94,1.05-4.72c9.72,1.93,19.31,3.83,29.04,5.75
		c-0.09,0.7-0.12,1.23-0.23,1.75c-5.39,25.46-10.79,50.91-16.17,76.37c-1.17,5.54-2.35,11.09-3.38,16.66
		c-0.54,2.91-0.71,5.89-0.05,8.82c1.38,6.15,6.53,10.5,13.18,11.1C425.19,145.93,427.27,145.77,429.6,145.77z"/>
	<path d="M358.55,426.74c0.14,8.59,0.28,17.1,0.42,25.72c-8.66,1.95-17.1,3.01-25.61,0.89c-11.49-2.85-18.07-10.55-20.95-21.72
		c-1.06-4.11-1.49-8.32-1.49-12.58c0-29.4,0-58.8,0.01-88.2c0-0.78,0.07-1.56,0.11-2.45c10.21,0,20.24,0,30.55,0
		c0,1.08,0,2.01,0,2.95c0,26.76-0.01,53.53,0.03,80.29c0,2.3,0.15,4.65,0.6,6.9c1.09,5.5,4.61,8.44,10.23,8.63
		C354.33,427.23,356.25,426.91,358.55,426.74z"/>
	<path d="M517.19,172.91c-9.91-1.95-19.52-3.84-29.45-5.8c7.47-33.73,14.89-67.27,22.39-101.12c9.93,1.79,19.65,3.81,29.66,5.75
		C532.26,105.45,524.77,138.98,517.19,172.91z"/>
	<path d="M148.97,450.45c7.48-33.77,14.91-67.3,22.4-101.14c9.95,1.94,19.69,3.85,29.66,5.79c-7.55,33.77-15.04,67.29-22.6,101.14
		C168.58,454.31,158.92,452.41,148.97,450.45z"/>
	<path d="M339.63,69.01c10,0,20.02,0,30.17,0c0,33.66,0,67.17,0,100.85c-10.08,0-20.1,0-30.12,0
		C339.2,167.95,339.14,71.38,339.63,69.01z"/>
	<path d="M354.48,20.02c9.46-0.35,18.59,6.99,18.72,18.54c0.12,10.66-7.84,18.71-18.47,18.78c-10.57,0.07-18.76-8.01-18.78-18.53
		C335.93,28.23,343.99,20.05,354.48,20.02z"/>
	<path d="M521.48,20.02c9.44-0.34,18.58,6.99,18.7,18.57c0.11,10.65-7.87,18.7-18.5,18.76c-10.57,0.06-18.74-8.03-18.76-18.55
		C502.92,28.21,510.99,20.05,521.48,20.02z"/>
	<path fill="#FFFFFF" d="M438.26,403.07c0,5.71-1.13,11.15-4.14,16.04c-5.1,8.28-12.7,11.86-22.29,11.19
		c-11.67-0.81-18.86-8.86-21.26-18.15c-2.06-7.98-1.75-15.85,1.81-23.4c7.63-16.16,27.59-17.09,37.57-7.45
		c5.02,4.84,7.37,10.9,8.1,17.69C438.2,400.35,438.2,401.72,438.26,403.07z"/>
	<path fill="#FFFFFF" d="M33.29,226.98c0-14.22,0-28.15,0-42.26c0.72-0.06,1.41-0.16,2.09-0.16c6.79-0.01,13.58-0.11,20.36,0.05
		c2.6,0.06,5.3,0.39,7.75,1.2c7.37,2.46,11.69,7.77,13.21,15.34c0.72,3.57,0.55,7.14-0.37,10.67c-2.2,8.43-9.15,14.3-17.82,15.02
		c-1.11,0.09-2.23,0.14-3.35,0.14c-6.39,0.01-12.78,0.01-19.17,0.01C35.13,226.98,34.28,226.98,33.29,226.98z"/>
	<path fill="#FFFFFF" d="M363.1,248.28c-0.03-5.36,0.9-10.36,3.35-14.97c4.44-8.37,11.46-12.7,20.93-12.78
		c9.5-0.07,16.7,4.18,21.01,12.58c4.97,9.69,4.97,19.73,0.38,29.57c-4.26,9.12-13.16,13.82-23.62,12.98
		c-9.54-0.76-17.32-7.11-20.45-16.7C363.54,255.44,363.04,251.82,363.1,248.28z"/>
	<path fill="#FFFFFF" d="M247.1,248.06c0.04-4.68,0.78-9.24,2.79-13.5c4.29-9.1,11.48-13.96,21.58-14.02
		c10.15-0.06,17.43,4.81,21.64,13.9c3.91,8.43,3.97,17.21,0.76,25.89c-3.49,9.44-11.92,15.93-23.77,15.4
		c-9.92-0.44-18.28-6.98-21.45-17.05C247.56,255.24,247.04,251.69,247.1,248.06z"/>
	<path fill="#FFFFFF" d="M273.11,392.3c-14.04,0-27.69,0-41.65,0c0.47-7.04,3.02-12.86,8.93-16.66c7.53-4.84,15.49-4.81,23.17-0.44
		C269.96,378.83,272.86,384.75,273.11,392.3z"/>
	<path fill="#FFFFFF" d="M519.8,237.68c-13.88,0-27.59,0-41.28,0c-0.98-10.28,8.3-19.72,19.72-20.17
		C510.46,217.03,519.95,225.8,519.8,237.68z"/>
	<path fill="#FFFFFF" d="M180.32,237.69c-13.85,0-27.57,0-41.27,0c-1.11-10.2,8.41-19.82,19.9-20.18
		C171.07,217.12,180.76,226.13,180.32,237.69z"/>
</g>
</svg>
