<svg xmlns="http://www.w3.org/2000/svg" viewBox="0 0 952.29 677.54"><defs><style>.cls-1{fill:#d01417;}.cls-2{fill:#4fae32;}.cls-3{fill:#ffe900;}.cls-4{fill:#fffded;}.cls-5{fill:#eb5e93;}.cls-6{fill:#4aa9df;}.cls-7{fill:#a64895;}.cls-8{fill:#eb7606;}</style></defs><g id="VECTOR_COLORS" data-name="VECTOR COLORS"><path class="cls-1" d="M387.47,231.22l-31.4-6.9-6.89-1.53-24.52,5.36-14.55,4.6-26,3.83-32.94,19.15-18.38,26.81-8.43,17.61,6.9,36,4.59,23.75,11.49,25.28L255,404.32l12.26,16.09,6.89,15.32,19.15,3.06,14.55,13,3.83,8.43,4.6,5.36,9.19,26,8.43,36.77,15.32,15.32,8.42,5.36,11.49,14.55,9.19,6.13s13.79,27.57,31.41,34.47L425,607.3l26,18.39,20.68,9.95,19.91,10.73,23,10.72,13.79,6.13s18.38,3.83,26,9.19l34.47,6.13s5.36,0,26.81,5.36l14.55,2.3A28.82,28.82,0,0,0,654,693.09l32.93-13s9.19,7.66,43.66-15.32l40.6-18.38s31.4-29.11,39.83-34.47l-3.83-3.07-40.6,3.83s8.43-18.38,30.64-14.55c0,0,11.49-26,39.06-16.08l10.73-19.15,10.72-26.81s6.89-9.19,5.36-20.68l2.3-29.87,3.06-30.64-4.59-24.51-23,6.89-18.38,3.83h-26s-.76,16.08-1.53,14.55-8.42,11.49-10,17.62c0,0-42.12,23.74-49.78,37.53,0,0-7.26,10.06-13.2,11.56a4.73,4.73,0,0,1-2.89-.07c-6.13-2.3-30.64,9.19-116.42-32.17l-42.13-21.45-37.53-29.87-15.32-15.32L490.88,402s-6.13-13.79-13.79-17.62c0,0,5.36-7.66-5.36-10.72l-6.13,3.83s-37.53-30.64-31.4-61.28l11.49,1.53a27.15,27.15,0,0,0-10-13s-6.9-42.13-11.49-47.49C424.24,257.26,405.86,230.45,387.47,231.22Z" transform="translate(-120.31 -72.41)"/><path class="cls-2" d="M294.79,233.52l15.32-.77s22.21-9.19,39.07-10L363,224.32l24.51,6.9s6.9,1.53,6.9-4.6l-10.73-5.36s-13-6.89-18.38-6.13c0,0-6.13-13-15.32-4.59l-6.89-45.19a71.92,71.92,0,0,0-10.73-25.28s-6.12-24.51-13.78-34.47l-7.66-6.13L299.39,88.75,270.28,74.2s-15.32-6.13-19.91,13c0,0-4.6,10-10,19.91,0,0-7.66,11.49,16.08,5.36l4.6-1.53s13,1.53,19.15,13c0,0,6.89,2.3,9.19,7.66,0,0,9.19,12.26,16.85,34.47,0,0-4.59,20.68,2.3,32.17,0,0-6.89,17.62-4.6,28.34C304,226.62,292.49,225.09,294.79,233.52Z" transform="translate(-120.31 -72.41)"/><path class="cls-2" d="M502.37,480.92s-39.07-25.28-55.92,29.87c0,0-6.89,47.49,71.24,43.66l72.76-12.25L571.3,494.71s-16.85-46-26-51.32c0,0-28.34-17.62-44.43,18.38C500.83,461.77,497,467.9,502.37,480.92Z" transform="translate(-120.31 -72.41)"/><path class="cls-3" d="M328.49,356.07s-21.44,40.59,29.11,79.66c0,0,1.53-3.83,20.68-10C378.28,425.77,366.79,352.24,328.49,356.07Z" transform="translate(-120.31 -72.41)"/><path class="cls-3" d="M445.69,317.77l-11.49-1.53s-11.49,24.51,31.4,61.28l6.13-3.83S469.43,340,445.69,317.77Z" transform="translate(-120.31 -72.41)"/><path class="cls-3" d="M220.49,441.86s6.13,15.31,21.45,32.17l14.55,29.1s47.49-18.38,54.39-45.19c0,0-12.26-26.81-47.49-20.68l-25.28,5.36Z" transform="translate(-120.31 -72.41)"/><path class="cls-3" d="M529.18,254.2s-10,10.72-36,13c0,0-49,19.15-30.64,39.83,0,0,26,17.61,79.66-6.13l3.06-.77S538.37,300.15,529.18,254.2Z" transform="translate(-120.31 -72.41)"/><path class="cls-3" d="M837.86,246.54s-.77,5.36-42.9,19.15c0,0-72.76,16.85-77.36,57.44,0,0-11.49,30.64,46.72,41.36l6.9.77s0-10.72,34.47-20.68c0,0,29.1-13.79,34.46-22.21a114.75,114.75,0,0,0-3.83-19.15A133.54,133.54,0,0,1,837.86,246.54Z" transform="translate(-120.31 -72.41)"/><path class="cls-4" d="M371.39,248.83s-25.28,46,30.64,88.09C402,336.92,417.35,291.73,371.39,248.83Z" transform="translate(-120.31 -72.41)"/><path class="cls-4" d="M311.64,460.24s1.54,19.91-82.72,56.68c0,0-79.66,32.17-101.87,114.89l-4.6,20.68L147,631.81s20.68-19.15,32.94-19.15c0,0-25.28,27.58-27.58,47.49l-4.59,36s-1.53,27.58-20.68,51.32c0,0,28.34-7.66,44.42-52.08,0,0,22.22-61.28,57.45-84.26,0,0,49-29.87,83.49-42.13,0,0,17.62-13,23-19.14C335.39,549.86,328.49,487.05,311.64,460.24Z" transform="translate(-120.31 -72.41)"/><path class="cls-4" d="M424.24,259.56s7.66,16.08,9.19,29.1c0,0,0,16.09,10,24.52l7.66,9.95,12.25,33.7,11.49,18.39s12.26-23,21.45-23l27.57,37.53s11.49,26.81,35.24,23l90.38-46s48.26-23.74,68.17-24.51c0,0-12.26-48.25,49.79-66.64a172.78,172.78,0,0,1,39.06-13.78s53.62-13.79,22.21-36c0,0-59.74-41.37-181.53,31.4L545.26,300.15s-69.7,29.11-85.79,1.54c0,0-9.19-23,50.56-37.54,0,0,39.06-13,15.32-34.46C525.35,229.69,467.9,205.94,424.24,259.56Z" transform="translate(-120.31 -72.41)"/><path class="cls-4" d="M253.43,401.26s-45.19,21.45-32.94,40.6c0,0,12.26,2.29,23.75-1.54,0,0,28.34-4.59,29.87-4.59s-6.89-15.32-6.89-15.32Z" transform="translate(-120.31 -72.41)"/><path class="cls-4" d="M720.66,346.11l14.56,32.94s.76,23.74,0,30.64c0,0-1.53,29.1,61.27,31.4,0,0,37.54,4.6,78.13-18.38l68.94-44.43s47.49-36.76,94.21-26l30.64,4.59s-62-47.48-136.34-41.36c0,0-30.64-4.59-106.47,29.88,0,0-42.13,26-76.6,17.61Z" transform="translate(-120.31 -72.41)"/><path class="cls-2" d="M366.79,278.71s7.66-16.85,23-8.43c0,0,14.55,13.79,13.79,39.07,0,0-6.9,13.78-24.51,6.89C379.05,316.24,366,292.49,366.79,278.71Z" transform="translate(-120.31 -72.41)"/><polygon class="cls-5" points="272.52 259.15 283.25 253.02 281.72 264.51 272.52 259.15"/><path class="cls-5" d="M367.56,258.79s6.89-6.89,14.55-3.06l-10.72-6.9Z" transform="translate(-120.31 -72.41)"/><path class="cls-1" d="M893.77,261.86s-10,25.27-33.7,35.23c0,0,37.53,0,66.64-18.38,0,0,11.49,21.44,34.46,6.12,0,0,18.39,3.83,23.75,0,0,0-13.79-7.65-18.38-19.91,0,0-.77-12.26-8.43-13,0,0,15.32-19.15,6.13-32.17,0,0-17.62-23-44.43-2.3,0,0,0-4.6-35.23-5.36,0,0-16.09-4.6-20.68-15.32,0,0-7.66,14.55,15.32,27.57C879.22,224.32,863.9,242.71,893.77,261.86Z" transform="translate(-120.31 -72.41)"/><path class="cls-3" d="M951.22,209.77l8.42-19.15,2.3,19.92L975,209l-10.72,10.72S955.81,219.73,951.22,209.77Z" transform="translate(-120.31 -72.41)"/><path class="cls-3" d="M937.43,215.13s-13.79,3.07-1.53,7.66C935.9,222.79,942.79,220.49,937.43,215.13Z" transform="translate(-120.31 -72.41)"/><path class="cls-6" d="M310.88,684.66l251.23-9.95-21.45-8.43S497,654,480.15,639.47L438,618,425,607.3l-15.32-3.06s-26.81,11.49-30.64,39.06C379.05,643.3,325.43,634.88,310.88,684.66Z" transform="translate(-120.31 -72.41)"/><path class="cls-6" d="M595.81,459.47l79.66-2.3,59.75-.76,1.53-3.83-9.19-10.72S715.3,425,692.32,433.43c0,0-3.83-19.91-24.51-19.91,0,0-17.61-1.54-28.34,22.21,0,0-26-6.13-29.87,14.55C609.6,450.28,599.64,447.22,595.81,459.47Z" transform="translate(-120.31 -72.41)"/><path class="cls-7" d="M766.62,612.66l104.17-8.42s-8.42-13.79-23.74-11.49c0,0-21.45-33.7-49.79,5.36C797.26,598.11,776.58,590.45,766.62,612.66Z" transform="translate(-120.31 -72.41)"/><path class="cls-7" d="M160,369.09l41.37-2.3,37.53.77L232,349.94l-.76-13.79s-19.15-9.95-36,18.39C195.22,354.54,173.77,345.35,160,369.09Z" transform="translate(-120.31 -72.41)"/><path class="cls-8" d="M364.49,188.32l87.32-3.06s-7.66-7.66-14.55-3.06c0,0-3.83-18.39-22.21-5.37,0,0-15.32-22.21-31.41,1.54C383.64,178.37,361.43,178.37,364.49,188.32Z" transform="translate(-120.31 -72.41)"/><path class="cls-8" d="M666.28,715.3l126.38-6.13S776.58,687,751.3,691.56c0,0-22.21-30.64-52.08,10.72C699.22,702.28,683.13,689.26,666.28,715.3Z" transform="translate(-120.31 -72.41)"/><path class="cls-4" d="M245,381.35s-5.37,17.61,6.12,15.31Z" transform="translate(-120.31 -72.41)"/><path class="cls-4" d="M361.43,567.47s0,9.19-3.83,24.51c0,0-1.53,13,11.49,10.73,0,0,1.53-15.32-1.53-21.45C367.56,581.26,366.79,557.52,361.43,567.47Z" transform="translate(-120.31 -72.41)"/><path class="cls-4" d="M592.75,692.32s-4.6,18.39,1.53,19.15C594.28,711.47,598.11,701.51,592.75,692.32Z" transform="translate(-120.31 -72.41)"/></g><g id="VECTOR_OUTLINE" data-name="VECTOR OUTLINE"><path d="M443.1,316.83c.81-2.32-.65-3.9-1.87-5.5a12.64,12.64,0,0,0-1.88-1.59,16.26,16.26,0,0,1-5.63-9.34,77.36,77.36,0,0,1-1.19-7.72,58.66,58.66,0,0,0-3.6-16.42c-1-2.41-1.65-4.94-2.43-7.43a45.4,45.4,0,0,0-8.35-15.47c-2.79-3.38-5.5-6.83-8.29-10.22a15.38,15.38,0,0,0-2.37-2.26c-4.69-3.69-9.8-6.5-15.8-7.52-1.13-.19-2.5-.17-3.31-1.46.33-1.5,1.92-.58,2.9-1.67l1.13-2.59c-.3-.39-.49-.91-.79-1a25.22,25.22,0,0,1-7.7-3.69c-3-1.88-6.3-3.35-9.46-5a11.08,11.08,0,0,0-5.52-1.4,6.32,6.32,0,0,1-1.23-.11c-3-.46-5.52-1.66-6.69-4.72-.63-1.63-1.55-2.83-3.49-3-2.3-.23-4.4-.1-6,1.86-.25.31-.41.71-.66,1-1.82,2.35-2.21,2.48-6.3,1.91,1.1-.29,1.89-.46,2.64-.72,2.26-.77,3.39-2.41,3-4.69-.9-4.84-1.05-9.81-2.91-14.49-.64-1.61-.55-3.5-.87-5.26-1.34-7.28-2.68-14.56-4.07-21.83-.52-2.69-1-5.4-1.79-8-1.88-6.35-4.49-12.37-9-17.41a5.17,5.17,0,0,1-1.27-3.81,20.57,20.57,0,0,0-2.53-10.24c-3.34-6.75-6.46-13.61-9.75-20.61l-2.9,1a5.35,5.35,0,0,1-1.29-.81c-2.74-3.08-5.56-6.09-8.09-9.33a35.25,35.25,0,0,0-6.33-6.41A61.5,61.5,0,0,0,282,80.94c-4.67-1.6-9.23-3.49-13.87-5.18a11.46,11.46,0,0,0-4-.88c-5.62.1-8.75,1.32-11.28,7.67a52.31,52.31,0,0,0-2.46,8.26,22.23,22.23,0,0,1-4,8.43c-1.92,2.67-3.6,5.5-5.37,8.28a5.61,5.61,0,0,0-.47,1.13c-.79,2.3,0,3.7,2.45,4.17a13.45,13.45,0,0,0,6.12.07c3-.81,6.22-1.1,8.94-2.9a4.17,4.17,0,0,1,4.69-.22,28.7,28.7,0,0,0,7.2,2.91,17.12,17.12,0,0,1,8.64,6,31.12,31.12,0,0,0,7.45,7c4.07,2.8,6.66,6.89,9.09,11a68.16,68.16,0,0,1,5.84,12.69,64,64,0,0,0,3.61,8.74c2.14,4.19,2.58,8.65,2.55,13.19,0,4.8-.39,9.59-.4,14.39a26.11,26.11,0,0,0,.86,5.65,27.77,27.77,0,0,0,1.22,3.49,11.91,11.91,0,0,1-.09,8.46c-.73,1.92-1.39,3.87-2.14,5.79A28.47,28.47,0,0,0,305,223.28a14.1,14.1,0,0,0,.53,1.85,15.37,15.37,0,0,0,2.7-.47c3.75-1.31,7.46-2.73,11.21-4a10.63,10.63,0,0,1,2.31-.17c-1.27,1.87-2.88,2.33-4.35,2.95-2.78,1.17-5.55,2.38-8.41,3.32-2.46.81-5.05,1.25-7.57,1.88-1.46.37-2.93.73-4.34,1.24a1.56,1.56,0,0,0-.83,1.21c0,.37.65.74,1.06,1a1.36,1.36,0,0,0,.81.07c5.3-.63,10.68-.55,15.87-2.06,4.32-1.26,8.66-2.5,13-3.69,1.45-.4,2.94-.65,4.41-1,4.7-1,9.41-1.9,14.09-2.93a19.76,19.76,0,0,1,7.35-.18,57.85,57.85,0,0,0,6.53.78,25.58,25.58,0,0,1,8,1.58,124.19,124.19,0,0,0,15,4.24,23,23,0,0,1,3.81,1.41c.23.1.39.75.29,1.06a1.1,1.1,0,0,1-.88.57,10.6,10.6,0,0,1-2-.36,164,164,0,0,1-17.84-4.91,21.67,21.67,0,0,0-6.83-1.31,37.12,37.12,0,0,1-6.12-.69c-3.75-.71-7.37,0-11,.72s-7.22,1.66-10.87,2.21a86.92,86.92,0,0,0-19.82,5.13,12.71,12.71,0,0,1-3.18.75c-3.13.36-6.33.35-9.39,1-4,.87-8,1.67-12.05,2.23-2.08.28-4,1.76-6,2.56a70.38,70.38,0,0,0-16.61,8.92c-1.21.9-2.38,1.85-3.56,2.78a54.82,54.82,0,0,1-5.5,4.31c-4.38,2.64-7.44,6.44-10,10.68-2.23,3.62-4.4,7.27-6.6,10.91-2.85,4.68-5.72,9.35-8.53,14.05-4.08,6.82-4.76,14.21-3.44,21.86.73,4.18,1.72,8.31,2.62,12.46a40,40,0,0,0,1.47,6c1.68,4.24,2.17,8.71,3,13.13a31.14,31.14,0,0,0,.58,3.23c2.38,8.17,4.73,16.35,8.43,24,2.13,4.44,4.55,8.75,6.8,13.14a16.26,16.26,0,0,1,1.39,3.42c2,8,6.13,15,10.32,21.87a33.74,33.74,0,0,0,6.28,8.11,12.48,12.48,0,0,1,3.41,6,44.42,44.42,0,0,0,5.23,10.7c.87.12,1.68.28,2.49.34,1.09.08,2.19.09,3.29.12a32.1,32.1,0,0,1,20.61,8.12c2.19,1.88,4.41,3.73,6.44,5.77a16.05,16.05,0,0,1,3.42,4.56c2.77,6.26,5.94,12.35,7.84,19,1.13,3.95,2.63,7.8,4.15,11.62,2.26,5.64,3.34,11.59,4.69,17.46,1.73,7.49,3.49,15,5.22,22.45a9.71,9.71,0,0,0,3.06,5.24c2.48,2.17,5,4.25,7.44,6.49,1.7,1.57,3.27,3.29,4.82,5a8.73,8.73,0,0,0,3.57,2.63,21.36,21.36,0,0,1,10.92,8.95c1.54,2.44,3.09,4.86,4.72,7.24a20.32,20.32,0,0,0,6.44,6.12c.95,0,.62-.78.85-1.18.52-.89,1.46-1.09,1.93-.3,1.77,3.05,4.08,5.77,5,9.35a30.36,30.36,0,0,0,5.06,10.74,22.77,22.77,0,0,1,2.19,3.47,15.94,15.94,0,0,0,5,5.88c1.33,1,2.63,2,3.92,3a33.6,33.6,0,0,0,15.23,6.8c3.1.56,6.25.83,9.39,1.16,2.11.22,4.13.45,4.83,3,.12.44.73.78,1.14,1.12,9.51,7.74,20.1,13.83,30.57,20.1a26.67,26.67,0,0,0,4.85,2.24,90.36,90.36,0,0,1,19.69,10.2c10.26,6.82,21.35,11.78,32.84,16,4.76,1.75,9.55,3.42,14.34,5.09a18.6,18.6,0,0,0,3.57.94,43.35,43.35,0,0,1,10.27,2.9c2.3.91,4.61,1.78,6.86,2.8a59.07,59.07,0,0,0,19.06,4.84c1.77.16,3.53.49,5.29.7,3.27.39,6.54.75,9.8,1.11a24.51,24.51,0,0,1,2.87.23c5.2,1.17,10.43,2.25,15.57,3.66,6.91,1.9,13.79,3.42,21,3.33s14.25.31,21.38.58c2,.07,4.06.41,6,.63.12,1-.45,1.17-1,1.16-2.74-.05-5.48-.21-8.22-.25-3.83-.05-7.67,0-11.51,0-.34,0-.67.31-1.31.62a17.89,17.89,0,0,0,5.17,3.48c3.88,1.78,7.91,3.07,12.31,2.67a54.53,54.53,0,0,0,22.57-7c4.13-2.38,8.74-3.94,13.23-5.61,1.46-.54,3.24-.23,5,.16l-1.89.79c-5.59,2.26-11.25,4.32-16.46,7.45a43.53,43.53,0,0,1-25.19,6.22c-6.2-.34-11.86-2.28-15.78-7.55a3.32,3.32,0,0,0-2.81-1.4c-1.64,0-3.29,0-4.94,0-6,.21-11.71-1.28-17.35-3a45.51,45.51,0,0,0-9.63-2,7.15,7.15,0,0,1-2.41-.44c-2.7-1.26-5.57-1.29-8.45-1.46-2.46-.13-4.92-.49-7.36-.82-4.89-.66-9.78-1.38-14.67-2a2.75,2.75,0,0,0-1.59.17c-2,1.1-4.23,1-6.42,1.1-13.3.76-26.61.32-39.92.43-8.52.08-17,.24-25.38,1.91a11.27,11.27,0,0,1-1.64.18c-8.63.36-17.26.69-25.88,1.07q-7,.31-14,.76c-7.94.5-15.88,1.09-23.82,1.57-4.24.26-8.5.41-12.75.55q-14.81.46-29.61.85c-3.43.09-6.86-.08-10.29,0-9.32.3-18.64.68-28,.34a18.44,18.44,0,0,1-2.47-.07c-5.49-1-10.91-.14-16.37.43-4.08.43-8.22.24-12.33.31a5.58,5.58,0,0,1-1.22-.15,1.15,1.15,0,0,1-.66-1.9,2.69,2.69,0,0,0,1.15-2.4,4.5,4.5,0,0,1,.53-1.95,78.53,78.53,0,0,1,11-18.74,34.52,34.52,0,0,1,11.09-9.06,113.81,113.81,0,0,1,24.07-9.48,51.5,51.5,0,0,1,13-1.66h5.93a31.7,31.7,0,0,0,1.39-3.57,48.07,48.07,0,0,1,8.17-16.47,43.07,43.07,0,0,1,12.35-11.9,36.9,36.9,0,0,1,4.07-1.92c.73-.32,1.5-.56,2.65-1a13.67,13.67,0,0,0-1.95-1.27,27.25,27.25,0,0,1-7.89-5.14c-1.1-1-2.34-1.89-3.52-2.84a16.52,16.52,0,0,1-4.65-5.68,21.23,21.23,0,0,0-1.79-3.24,32.44,32.44,0,0,1-5.14-10.24,15.39,15.39,0,0,0-.69-1.63c-4.66-1.82-8.17-5.38-11.85-8.61-3.32-2.91-5.6-6.75-7.77-10.58a19.09,19.09,0,0,0-6.64-7.15,9.86,9.86,0,0,0-2.57-1.25,8.22,8.22,0,0,1-5-3.44c-2.51-3.73-6.41-6-9.53-9-.14-.14-.5-.06-1.06-.11a9.83,9.83,0,0,0-.12,4.32c.37,2.86.72,5.72,1.21,8.56a5,5,0,0,1-2.06,5.32c-4.11,3.19-7.9,6.81-12,10a81.43,81.43,0,0,1-18.85,11.59c-3.78,1.61-7.37,3.65-11.09,5.4-6.21,2.91-12.39,5.87-18.69,8.56A213.13,213.13,0,0,0,255,597.37c-8.88,4.91-17.53,10.22-26.13,15.61a78.92,78.92,0,0,0-20.57,18.76,59.92,59.92,0,0,0-8.3,13.19,26.55,26.55,0,0,1-3.08,5.34c-4.25,5.76-7.62,12.05-11,18.31-1.51,2.76-2.66,5.72-3.92,8.6-2.49,5.65-4.49,11.57-7.53,16.9-3.68,6.44-6.75,13.17-10.23,19.7A111.65,111.65,0,0,1,157.4,725c-2.18,3.14-4.87,5.93-7.31,8.89-4,4.87-9.39,7.94-14.68,11.1-2.81,1.68-5.46,3.72-8.76,4.44-.4.09-.78.29-1.17.38-.86.19-1.78.17-2.1-.74a2.27,2.27,0,0,1,.3-1.86,84.18,84.18,0,0,1,6.84-8.2c4.86-4.75,7.71-10.6,10-16.8A92.18,92.18,0,0,0,147,690.56c.06-5.9.44-11.79.67-17.69a14,14,0,0,1,.12-2c1.18-6.47,2-13,4.07-19.3a63.53,63.53,0,0,1,6-13.07,135.71,135.71,0,0,1,9.47-14c1.7-2.12,3.16-4.44,5.15-7.29-1.19.28-1.67.36-2.12.51a6.39,6.39,0,0,0-1.1.57c-9.76,5.85-19.6,11.59-28.44,18.85a12.45,12.45,0,0,0-1.83,1.64,65.09,65.09,0,0,1-8.63,8.22,23.83,23.83,0,0,0-5.54,6.58,4.82,4.82,0,0,1-1.21,1.62,2.48,2.48,0,0,1-1.84.53,2.17,2.17,0,0,1-1.27-1.39,7.19,7.19,0,0,1,0-2.85,110.76,110.76,0,0,1,2.11-10.89c2.51-9,5-18,8.48-26.65,2.2-5.47,4.4-11,7.08-16.21a81.18,81.18,0,0,1,7.15-11c5.13-7,10.11-14,15.88-20.49,7.13-8,14.1-16.12,22.35-23,2.11-1.76,4.2-3.55,6.45-5.12,9-6.25,17.88-12.77,27.62-17.87,6.8-3.57,13.83-6.7,20.77-10,4.71-2.22,9.47-4.36,14.2-6.55a6.09,6.09,0,0,0,1.07-.91c-2.79-4.13-4.27-8.84-6.33-13.28-3.7-8-7.84-15.67-13.71-22.36-5-5.7-8.5-12.43-11.73-19.26-1.06-2.23-1.79-4.65-3-6.75-2.72-4.55-1.88-9,.17-13.35a31.59,31.59,0,0,1,3.59-5.49c3.1-4.06,7-7.37,10.83-10.66a65.43,65.43,0,0,1,12.69-8.34c1.7-.87,3.32-1.89,5.19-3-.36-1-.7-2-1.09-3.11-1.43-.2-2.78-.32-4.1-.58a2.65,2.65,0,0,1-2.43-2.84c-.08-2.06,0-4.12,0-6.17a21.61,21.61,0,0,0-2.37-10.72c-1.53-2.89-2.85-5.91-4.33-9-.85-.08-1.64-.22-2.44-.23-7.54-.06-15.09-.22-22.64-.1-4.23.07-8.48.48-12.7,1a189.07,189.07,0,0,1-22.56,1.36c-2.6,0-5.21.11-7.81.1a40.36,40.36,0,0,1-9.76-.78c-.22-3.7,1.49-6.34,4.08-8.53a36.79,36.79,0,0,1,9-5.71,44.23,44.23,0,0,0,5.22-2.43c3.78-2.29,7.76-2.38,11.92-1.47,1.74.38,3.49.7,5.25,1a6.57,6.57,0,0,0,1.47-.11,20.78,20.78,0,0,1,1.15-2.46,39.73,39.73,0,0,1,3.6-5.47c2.24-2.59,4.74-5,7.18-7.37a12.14,12.14,0,0,1,7.4-3.27c3.12-.36,6.27-.52,9.41-.76.8-.07,1.61-.09,2.72-.15-.09-1-.11-1.75-.25-2.49-1-5.53-2.13-11-3.11-16.58-1.66-9.39-.46-18.24,4.81-26.43,3.48-5.41,6.58-11.06,10-16.51,2.56-4.05,5.35-8,8.1-11.89a11.28,11.28,0,0,1,2.29-2.34c4.54-3.54,9.12-7,13.69-10.53a65.57,65.57,0,0,1,16.23-8.79c1.4-.55,2.76-1.24,4.19-1.68,1.82-.56,3.7-.94,5.55-1.39,1.3-.32,2.77,0,3.86-.86.13-.19.27-.31.27-.42-.05-4.22,0-4.37,3.79-5.51,1.82-.55,3.68-.94,5.61-1.43a18,18,0,0,0,0-2.56A30.47,30.47,0,0,1,304.48,207c.4-1,.59-2.13,1.08-3.1a11.56,11.56,0,0,0,.1-10.33c-1.42-3.25-1.43-6.62-1.34-10.09.14-5.06.05-10.14-.13-15.21A22.53,22.53,0,0,0,302,159.5c-1.79-3.85-3.23-7.86-4.92-11.76a79.62,79.62,0,0,0-9.8-17.09,25.63,25.63,0,0,0-4.51-4.18,19.26,19.26,0,0,1-4.86-5c-2.72-4.51-7.09-6.81-11.82-8.4-1.46-.49-3.12-.49-4.65-1.11a2.9,2.9,0,0,0-2.31.36c-3,2-6.38,2.45-9.71,3.21a15.62,15.62,0,0,1-7.35-.18c-3.32-.82-4.73-3.07-4.11-6.43a6.39,6.39,0,0,1,.55-2c1.84-3.2,3.41-6.57,5.9-9.37a19.63,19.63,0,0,0,4.47-8.22c.65-2.52,1.48-5,2.13-7.52a12.88,12.88,0,0,1,2.5-4.67,11.35,11.35,0,0,1,11.57-4.59A60.49,60.49,0,0,1,275,75.23c5.55,2,11,4.22,16.49,6.36,6.14,4.1,12.77,7.53,17.33,13.68a41.58,41.58,0,0,0,6.11,6.67c3.74,3.23,6.13,7.34,8.37,11.58,2.49,4.73,4.82,9.55,7.37,14.25a16,16,0,0,1,2.06,7.86,7.75,7.75,0,0,0,1.85,5.25,45.45,45.45,0,0,1,9.27,21.24c1,5.67,2.27,11.29,3.29,17,.63,3.51,1,7.06,1.51,10.59a14.26,14.26,0,0,0,.55,3.23,57.17,57.17,0,0,1,3.1,12.35,9.34,9.34,0,0,0,.54,1.56c1.49.7,3,.27,4.48.25,2.3,0,4.14.79,5.08,2.83,1.42,3.07,3.88,4,7,4.11a12.9,12.9,0,0,1,4.41.86c4.93,2,9.94,3.94,14.34,7.1a12.36,12.36,0,0,0,3.39,1.37c3.79,1.24,4.58,2.81,3.39,6.83a4.75,4.75,0,0,0,0,1l2.54.91a43,43,0,0,1,10,4.78,28.17,28.17,0,0,1,6.55,6.16c3.4,4.48,7,8.78,10.57,13.14.15.18.47.23.82.4a3.68,3.68,0,0,0,.8-.73,41.06,41.06,0,0,1,11.57-12.13A103.17,103.17,0,0,1,471,227.86a113.53,113.53,0,0,1,28-4.39,63,63,0,0,1,21.13,2.7,30.44,30.44,0,0,1,8.51,4.06,12.19,12.19,0,0,1,4.49,6.19,19.85,19.85,0,0,1,.55,12.51,26.17,26.17,0,0,0-.51,9,94.55,94.55,0,0,0,7.44,32.32,38.28,38.28,0,0,0,4.17,7.73,59.92,59.92,0,0,0,8.57-2.66c5.33-2.17,10.57-4.63,16-6.54,6.75-2.38,13-5.8,19.57-8.6,10.45-4.48,20.92-8.94,31.3-13.59,6.51-2.92,12.87-6.16,19.28-9.28,3.09-1.5,6.15-3,9.21-4.57s6.32-3.3,9.53-4.84c3.59-1.72,7.25-3.26,10.85-5,4-1.87,7.9-3.81,11.84-5.73.86-.42,1.69-.91,2.57-1.3a153.27,153.27,0,0,1,20.37-7.69c4.6-1.33,9-3.29,13.53-4.87,3.1-1.09,6.21-2.2,9.4-3,7.32-1.82,14.63-3.73,22-5.06,5.39-1,10.62-2.71,16.14-3.07a87.54,87.54,0,0,1,13.16.26c7.79.65,15.56,1.52,23.34,2.28a63.61,63.61,0,0,1,20.08,5.76,46.61,46.61,0,0,1,15.54,11.29,5.82,5.82,0,0,1,1.57,2.82,25.16,25.16,0,0,0,.92,3.15,12.92,12.92,0,0,1,.17,7.27c-.87,3.72-1.22,7.57-1.86,11.35a72.67,72.67,0,0,0-1.13,15.16,12.74,12.74,0,0,1-.09,2.47c-1.15,8.14-.21,16.16,1.6,24.09,1.23,5.35,2.68,10.64,4.08,15.95a13.69,13.69,0,0,1-4,13.81,68.22,68.22,0,0,1-15.58,10.64,170.87,170.87,0,0,1-22,9.13,122.85,122.85,0,0,0-19.85,9c-2.23,1.25-4.62,2.44-5.59,5.07.49,1,1.23.59,1.82.45q8.4-2,16.78-4.11a10.47,10.47,0,0,0,2.33-.78,100.58,100.58,0,0,1,12.16-5,48.12,48.12,0,0,0,5.89-2.92c4.14-2.16,8.25-4.36,12.39-6.52a32.39,32.39,0,0,1,3-1.36c8.28-3.28,16.49-6.75,24.93-9.65,6.48-2.23,12.8-4.92,19.26-7.23,9.29-3.33,18.54-6.84,28.26-8.78a78.9,78.9,0,0,1,10.6-1.31c7.26-.44,14.52-.61,21.77-1.34a113.18,113.18,0,0,1,25.88.64c10.61,1.38,21.24,2.77,31.59,5.61,5.29,1.45,10.56,3,15.75,4.74,7.14,2.43,14.27,4.91,21.25,7.76,8.9,3.62,17.28,8.36,25.73,12.9,5.72,3.07,10.65,7.25,15.68,11.28a8.8,8.8,0,0,1,1.87,2.16,1.94,1.94,0,0,1-.16,2.31,1.91,1.91,0,0,1-2.2.71,14.67,14.67,0,0,1-3-1.31,20.56,20.56,0,0,0-8.49-2.88c-2.71-.31-5.36-1.17-8.07-1.59a57.84,57.84,0,0,0-9-.94,54.45,54.45,0,0,1-9.8-1,68.84,68.84,0,0,0-24.54-.43c-4.85.87-9.76,1.49-14.62,2.35a24.78,24.78,0,0,0-4.68,1.51c-3.44,1.37-6.87,2.77-10.25,4.26-5.65,2.5-11.32,4.94-16.85,7.68a53.51,53.51,0,0,0-7.92,5.12,66.08,66.08,0,0,1-8.43,5.86c-.85.45-1.59,1.08-2.4,1.6-2.42,1.54-4.79,3.19-7.3,4.58a87.26,87.26,0,0,0-8,5.06c-3.58,2.52-7.41,4.69-11.06,7.13-4.67,3.13-9.19,6.48-13.9,9.55-8.85,5.75-17.77,11.39-26.7,17-1.73,1.1-3.58,2-5.41,2.95a13.66,13.66,0,0,0-4.25,2.67,9.54,9.54,0,0,0,.44,1.95c2,4.49,2.41,9.26,2.74,14.06.18,2.46.51,4.91.57,7.38a113.2,113.2,0,0,1-1.89,20.86c-.36,2.16-.47,4.36-.79,6.52-1,6.52-.87,13.11-1.25,19.66-.27,4.65-1,9.27-1.41,13.91a26.49,26.49,0,0,0,.07,3.67c.07,1.51.24,3,.28,4.51a18.23,18.23,0,0,1-3,10c-3,5-5.88,10.19-7.69,15.87-1.28,4-2.89,8-4.48,11.92a78.06,78.06,0,0,1-7.23,13.37c-1.2,1.84-2.33,3.72-3.49,5.57.21.46.27,1,.55,1.16a23.6,23.6,0,0,1,9.22,10.46l4.52.08c7.85.18,14.23,3.55,19.64,9a6.05,6.05,0,0,1,.75,1c.66,1.06,1.29,2.15.72,3.46s-1.92,1.29-3.16,1.35c-10.83.52-21.6,1.74-32.36,3.05-3.26.4-6.55.62-9.84.77-4.52.21-9,.32-13.57.37a5.14,5.14,0,0,0-4,1.69c-3,3.23-6.1,6.32-9,9.64a82,82,0,0,1-11,10.46c-5.45,4.37-10.84,8.86-16.84,12.51-1.17.71-2.25,1.58-3.46,2.21-8,4.18-15.9,8.64-24.44,11.79-5.91,2.19-11.67,4.82-17.36,7.55-2.94,1.42-5.56,3.49-8.35,5.24-1.27.79-2.58,1.52-3.88,2.26-.06,0-.22-.09-.49-.21.12-.31.15-.75.38-.93,1.83-1.45,3.7-2.84,5.55-4.27a43.29,43.29,0,0,1,9.2-5.4c7.68-3.32,15.41-6.54,23-10.1,10.31-4.86,20.34-10.19,29.15-17.6,4.3-3.61,8.78-7,12.72-11.06s7.53-8,11.27-12a3.67,3.67,0,0,0,.47-1c-.58-1-1.47-.81-2.24-.78-3.83.18-7.67.37-11.5.63q-8.84.63-17.64,1.36c-2.32.19-4.63.53-7,.78-1.22.13-2.44.22-3.5.31a1.82,1.82,0,0,1-.84-2.6,19.78,19.78,0,0,1,2.47-3.73c4.38-5.11,10-8.44,16-11.34,2.85-1.39,5.86-1.31,8.87-1,1.75.19,3.47.67,5.47,1.08,2.09-2.41,4.33-4.8,6.34-7.38,4-5.16,9.54-8.22,15.26-10.87,3.58-1.66,7.55-1,11.34-.32a43.3,43.3,0,0,1,4.65,1.26c.36-.18.69-.24.82-.43a102,102,0,0,0,11.55-20.35c1.53-3.82,2.76-7.75,4.19-11.61q.91-2.49,2.06-4.91c.87-1.86,1.85-3.67,2.79-5.5a22.22,22.22,0,0,1,2.12-4,13.53,13.53,0,0,0,2.72-10.88c-.7-4.72.16-9.29.57-13.91.45-5.05,1.23-10.09.68-15.18a7.61,7.61,0,0,1-.05-1.65c.72-5.84,1.47-11.68,2.18-17.53.58-4.76,1.14-9.53,1.63-14.3a21.71,21.71,0,0,0,0-4.11q-.64-7.58-1.42-15.15a15.45,15.45,0,0,0-.73-3.2c-.46-1.41-1.06-2.78-1.65-4.3a10.62,10.62,0,0,0-1.77.28c-3.89,1.32-7.79,2.63-11.66,4.05a110,110,0,0,1-16.64,4.53,19.6,19.6,0,0,0-2.41.56c-4.75,1.63-9.68,1.83-14.63,1.87s-9.61,0-14.41,0c-1.08,0-2.17.09-3.27.14a7,7,0,0,0-1.23,4.75,16.91,16.91,0,0,1-4,12.21,23.7,23.7,0,0,0-4.2,7.5,20.92,20.92,0,0,1-4.66,7.21,10,10,0,0,1-3.25,2.45,76.91,76.91,0,0,0-14.08,8.44c-4.56,3.29-9.32,6.3-13.86,9.6A100.11,100.11,0,0,0,737.88,509a11.42,11.42,0,0,0-1.57,2.4,34.52,34.52,0,0,1-12.46,13.37,39.13,39.13,0,0,1-11.92,5.39c-3.6.87-7.12,2.16-10.76,2.7a45.66,45.66,0,0,1-23.87-2.37c-1.91-.75-3.89-1.32-5.83-2a7.58,7.58,0,0,1-3.76-2.07,6.27,6.27,0,0,1,1.4,0c3,.92,6,1.84,9,2.81a45.68,45.68,0,0,0,25.17,1.09c4.25-1,8.4-2.51,12.58-3.86a13,13,0,0,0,2.34-1.26c0-1.09-.68-1-1.13-1-3-.32-6-.8-9,.17a4.23,4.23,0,0,1-2.43.17c-3.61-1.09-7.33-.68-11-1a63.73,63.73,0,0,1-9.34-1.37q-13-3.12-25.7-7.31c-10-3.3-19.83-7.25-29.68-11.05q-10.95-4.23-21.44-9.44c-7.24-3.6-14.42-7.34-21.93-10.4a140.2,140.2,0,0,1-19.36-10c-.77-.46-1.61-.81-3-1.49.35,1.2.48,1.83.72,2.41,2.34,5.56,4.63,11.15,7,16.67,4,9.17,7.92,18.39,11.05,27.9a76.62,76.62,0,0,0,5.32,12.48c1.5,2.78,2.91,5.59,4.32,8.42,1,2,.14,3.59-2,3.87-1,.13-1.92.06-2.88.15-3.68.35-7.36.75-11.05,1.11-11.91,1.18-23.43,4.46-35.18,6.5a199.11,199.11,0,0,1-22.42,3c-3.7.21-7.37.75-11.06,1-3.42.27-6.85.42-10.27.58a57.37,57.37,0,0,1-17.47-2.29c-4-1-8-1.95-11.67-3.92-5.68-3.07-11.33-6.21-15.48-11.36-6.11-7.61-9-16.25-8-26a42.28,42.28,0,0,1,5.15-15.91,61.91,61.91,0,0,1,9.25-12.52,42.33,42.33,0,0,1,10.94-7.93c5.9-3.24,12.34-3.51,18.82-2.13,2.67.57,5.25,1.59,7.87,2.39.47.15,1,.23,1.84.42-.16-1-.22-1.61-.36-2.24a30.82,30.82,0,0,1-.37-10.62,23,23,0,0,1,2.76-7.71c.63-1.21,1.48-2.31,2.16-3.5,3.71-6.5,9.53-10.46,16.13-13.5.86-.4,1.74-.75,2.83-1.22a48.18,48.18,0,0,0-6.66-7.42,107.94,107.94,0,0,1-16.42-17.82c-.48-.67-1-1.33-1.51-1.95-4.89-5.6-8.79-11.92-13-18a25.78,25.78,0,0,0-5.1-5.87,6,6,0,0,1-2.69-4.85c0-.94-.52-1.88-.53-2.81,0-2.71-1.58-4.22-3.64-5.45-3.83,1.28-5.87,4.23-7.77,7.25a20.35,20.35,0,0,0-2.87,9.35,15.56,15.56,0,0,1-.47,2.81,1.15,1.15,0,0,1-2,.1,5.22,5.22,0,0,1-.55-1.93,21.47,21.47,0,0,1,2.35-10.73c.53-1.1,1.13-2.16,1.78-3.39-.88-.82-1.63-1.58-2.44-2.28A94.51,94.51,0,0,1,438.13,347a67.2,67.2,0,0,1-5.14-13,36.79,36.79,0,0,1-1.19-14.27c.08-.66.08-1.34.12-2.16-1.34-.76-2.64-1.48-3.92-2.24a12.35,12.35,0,0,1-4.57-4c-.43-.71-.86-1.46-.11-2.37.31.08.83,0,1,.28a13.11,13.11,0,0,0,6.47,4.22c3.24,1.07,6.59,1.84,9.89,2.73.8.21,1.6.36,2.41.52,1.22,0,2.43,0,3.22,0,1.52,1.56,2.78,2.76,3.95,4.05a69,69,0,0,1,4.54,5.3,95.47,95.47,0,0,1,10.85,20.27,128,128,0,0,1,6.88,22,18.61,18.61,0,0,0,.77,2.77,1.34,1.34,0,0,0,2.35.23c.7-1,1.28-2.11,2-3.14,3.6-5.55,7.54-10.79,13.09-14.6,1.11-.76,2.13-1.65,3.44-2.67a50,50,0,0,0-4.79-5.86c-2.07-2.18-4.1-4.41-6.11-6.65-1.1-1.23-2.17-2.48-3.19-3.77q-5.73-7.27-11.42-14.57c-4.51-5.77-7.53-12.41-10.8-18.89a8,8,0,0,1-.67-6.38,25.19,25.19,0,0,1,1.95-4.49,35.32,35.32,0,0,1,7.34-8.28,69.51,69.51,0,0,1,12.85-9.56A75.44,75.44,0,0,1,503.67,264a73.25,73.25,0,0,0,11.51-3.09,30.28,30.28,0,0,0,11.53-7,15.51,15.51,0,0,0,3.34-17.45,8.72,8.72,0,0,0-3-3.8,31.15,31.15,0,0,0-10.43-4.72,68.93,68.93,0,0,0-19.2-1.79,110.59,110.59,0,0,0-29.52,5.1,102.93,102.93,0,0,0-24,10.62,53.75,53.75,0,0,0-15.5,14c-.79,1.1-1.75,2.13-1.77,3,2.2,6.71,4.28,12.81,6.15,19a53.53,53.53,0,0,1,1.63,8c.61,4.21,1,8.44,1.52,12.66a14.43,14.43,0,0,0,5.65,10.14,7.88,7.88,0,0,1,2.69,4C444.79,314.37,443.43,315.43,443.1,316.83Zm13.78,16.84,0,2.79a10.64,10.64,0,0,1,1.31,2c2.5,6.34,4.93,12.7,7.4,19,.54,1.37.76,2.92,2.32,4.16a16.25,16.25,0,0,0-.24-2.14,107,107,0,0,0-8.23-20.86,6.22,6.22,0,0,0-1.1-1.7c-.33-.31-1-.31-1.46-.45l0-2.81-.32.08.22-.42A1,1,0,0,1,456.88,333.67Zm338.27,109c-3.65-.28-6.76-.75-9.92-.67a40.48,40.48,0,0,1-11.46-1c-4.24-1.11-8.43-2.41-12.64-3.63a56.07,56.07,0,0,0-6.72-1.89c-7.62-1.19-12.74-5.82-16-12.3s-5.09-13.55-4-21.09a54.81,54.81,0,0,0-4.7-30.5c-3.72-8.25-7.42-16.51-10.35-25.09a6.27,6.27,0,0,0-2-3.35c-1.54.5-2.93,1-4.34,1.4-7,2-14.15,3.35-21,5.89-4.37,1.62-8.75,3.26-13.23,4.52-6.91,1.94-13.3,5.15-19.8,8a189.71,189.71,0,0,0-24,12.67c-1.51.94-3.06,1.83-4.65,2.64-3,1.56-6.19,2.92-9.19,4.57-5.4,3-10.71,6.13-16.34,8.68a33.23,33.23,0,0,0-3.66,1.88,205.65,205.65,0,0,1-20.56,11.24c-1.75.8-3.51,1.57-5.22,2.44a82.27,82.27,0,0,1-16.85,6.51c-3,.78-6.14,1.53-9.33.64a33.42,33.42,0,0,1-12.73-6.4c-6.53-5.46-11.3-12.34-15.77-19.4a405,405,0,0,0-23.57-33.7,9.33,9.33,0,0,0-1.08-1c-6.12,1.74-15.58,12.71-18.74,20.39a10.32,10.32,0,0,1,1.43,7.28,3,3,0,0,0,1,2.6,13.8,13.8,0,0,0,2.15,1.89,20.06,20.06,0,0,1,7.27,9.74,14.38,14.38,0,0,0,2.11,3.94c3.17,4,6.59,7.76,9.47,11.92,6.88,9.92,16.29,17.37,24.61,25.88a2.61,2.61,0,0,0,.59.27c.47,0,1.14,0,1.82-.11,5.84-.55,11.18.62,15.76,4.49.53.44,1.13.79,1.69,1.19A36,36,0,0,1,558,459c.83,2,1.83,4,2.65,6a7,7,0,0,0,2.81,3.41A214.23,214.23,0,0,0,591,483.17c6.76,3,13.4,6.3,20.1,9.44,4,1.86,7.92,3.76,11.95,5.48,3.15,1.35,6.42,2.43,9.61,3.68,8.54,3.36,17,7,25.71,9.89s17.81,5.54,26.85,7.85A49.83,49.83,0,0,0,697,521.17a29.19,29.19,0,0,1,6.93.72,9.51,9.51,0,0,0,4.83-.06,10,10,0,0,1,4.87-.18,16,16,0,0,0,2.87.21c5.87.31,10.82-1.39,14.29-6.43a28.62,28.62,0,0,0,2.62-3.67c1.75-3.7,4.6-6.45,7.47-9.2.79-.76,1.61-1.49,2.39-2.27a83.74,83.74,0,0,1,15.1-12c3.26-2,6.43-4.2,9.71-6.2a85.16,85.16,0,0,1,9.64-5.47,15.69,15.69,0,0,0,8.43-8.59,44.72,44.72,0,0,1,6-10.26,9.82,9.82,0,0,0,2.23-5.23C794.64,449.42,794.86,446.31,795.15,442.65ZM466.25,311a16.41,16.41,0,0,0,3,5.18c3.92,5.12,7.85,10.24,11.9,15.25,2.85,3.51,5.88,6.87,8.87,10.28,2.16,2.47,4.53,4.79,6.55,7.37q10.64,13.64,20.3,28c4.46,6.58,8.33,13.55,13.22,19.85,4.09,5.26,8.58,9.89,14.88,12.6,5.76,2.49,11.56,2.12,17.31.63a50.46,50.46,0,0,0,10.26-4.21c7.42-3.84,15-7.38,22.14-11.76,7-4.29,14.43-7.87,21.7-11.72,3.63-1.91,7.38-3.61,11-5.59,8.41-4.62,16.59-9.66,25.35-13.64,6.24-2.83,12.45-5.7,18.68-8.55a11.42,11.42,0,0,1,1.15-.45c5.43-1.92,10.84-3.89,16.3-5.71s11.07-4.07,16.93-5c1.74-.29,3.41-1,5.13-1.49s3.37-.8,4.82-1.14c-.33-4.79-.64-9.24-1-14a18.48,18.48,0,0,0-2,.76c-1.08.59-2.09,1.32-3.18,1.89a2.49,2.49,0,0,1-3.6-.8,20,20,0,0,1-1.65-2.84c-4.63-9-9.75-17.8-13.91-27.07-1.46-3.25-3.16-6.39-4.58-9.66-2-4.52-3.81-9.11-5.65-13.69-1-2.39-2-4.77-2-7.63a10.24,10.24,0,0,1,2.41-.39,14.18,14.18,0,0,0,7.15-1.61c5-2.34,9.81-4.87,14.69-7.31.09-.85.09-1.54.23-2.19.3-1.35,1.68-1.91,2.39-.91a67.49,67.49,0,0,1,3.6,5.94A1.28,1.28,0,0,1,708,263a2.62,2.62,0,0,1-1.88-.16,11.7,11.7,0,0,1-2-1.6L696.68,265c-2.32,1.16-4.59,2.46-7,3.43s-5.15,1.66-7.65,2.45a7.58,7.58,0,0,0,1.17,4.5,84.72,84.72,0,0,1,3.93,8.15c2,5.13,4.6,10,7.09,14.84a14.5,14.5,0,0,0,1.41,1.92l7.83-4.85c0-.51.08-.91.09-1.31a8.26,8.26,0,0,1,0-1.22c.16-.88,1.22-1.48,1.86-1a9.71,9.71,0,0,1,3.83,5.16c.27,1-.83,2.11-1.71,1.63-1.51-.83-2.57-.27-3.78.47-1.52.93-3.14,1.71-4.65,2.64a19.27,19.27,0,0,0-2.17,1.78,68.39,68.39,0,0,0,5.64,11.18c2.08,3.48,3.45,7.37,5.9,10.77l7.51-4.16a43.31,43.31,0,0,1,.55-4.47c.28-1.31.49-2.94,1.36-3.73a7.46,7.46,0,0,0,2-3.47c1.77-5.21,5-9.41,8.85-13.21.77-.75,1.52-1.53,2.23-2.24a11.68,11.68,0,0,0-.42-1.37,263.33,263.33,0,0,1-12.84-31.16c-.72-2.17-1.19-4.5-2.65-6.36-.5-.05-.9-.11-1.31-.13-.85,0-1.7-.17-2-1.13s.38-1.51,1.13-1.94c4.16-2.39,8.28-4.86,12.5-7.13a16.34,16.34,0,0,1,12-1.62,8.55,8.55,0,0,1,6.74,6.44c2.34,8.43-.37,18.38-9.18,22.9a16.2,16.2,0,0,0-1.85,1.4c3.4,1.36,6.63,1.33,9.53,2.43,3.06,1.15,6,2.52,8.9,3.73,4.28-2.08,8.36-4,12.39-6a137.37,137.37,0,0,1,24.94-9.47c7.79-2.21,15.64-4.19,23.42-6.39a83.65,83.65,0,0,0,18.22-7.5,14.72,14.72,0,0,0,5.68-5.22,9.82,9.82,0,0,0-.69-10.46,42.28,42.28,0,0,0-13.71-11,65.56,65.56,0,0,0-24.42-6.81c-5.6-.45-11.2-1-16.8-1.49-5.33-.42-10.68-1.08-16-.24-5,.79-10,1.69-14.93,2.79-7.37,1.63-14.7,3.4-22,5.26A86.9,86.9,0,0,0,719,226.6c-4.76,1.75-9.4,3.87-14.24,5.33a167.2,167.2,0,0,0-18.47,6.91c-2.51,1.09-4.82,2.61-7.29,3.8-4.44,2.15-8.87,4.35-13.43,6.24-3.68,1.53-7.13,3.51-10.71,5.23-9.15,4.39-18.31,8.75-27.54,13-9.73,4.43-19.55,8.66-29.34,13-.5.22-1,.4-1.54.58a113.67,113.67,0,0,0-15.5,6.61,42.16,42.16,0,0,1-4.52,1.95c-5.75,2.22-11.72,3.9-17.05,7.13a11,11,0,0,1-1.89.81c-10.06,3.64-20.1,7.32-30.19,10.87a69.47,69.47,0,0,1-10.27,2.93c-7.82,1.45-15.67,2.76-23.55,3.83-7.69,1-15.34.66-22.7-2.16C469.54,312.12,468.26,311.68,466.25,311ZM724.42,350.8c-.23,1.84.62,3.13,1.21,4.45q3.51,7.89,7.11,15.74a59.76,59.76,0,0,1,5.41,30.84c-.25,2.84-.9,5.72,0,8.59s1.68,6.07,2.65,9.07a11.51,11.51,0,0,0,1.75,3.23c3.66,4.87,8.78,7.91,14.24,10.09,4.68,1.86,9.74,2.78,14.63,4.13a48,48,0,0,0,13.45,1.55c1.78,0,3.56.09,5.33.23a170.51,170.51,0,0,0,19.3.85c4.66-.16,9.33-.25,14-.67,2.57-.24,5.06-1.19,7.62-1.67a94.18,94.18,0,0,0,15.48-4.11c2.69-1,5.47-1.8,8.19-2.72a95.11,95.11,0,0,0,18.59-8.7c9-5.47,17.58-11.67,26.74-16.94,3.79-2.19,7.25-4.94,10.92-7.34,5.5-3.6,11.35-6.68,16.4-11a7.44,7.44,0,0,1,1.36-.93,98.31,98.31,0,0,0,13.92-8.71c2.39-1.83,5-3.41,7.34-5.26A48.11,48.11,0,0,1,960,365.2c6.64-2.95,13.09-6.33,20-8.71,1.94-.67,3.78-1.63,5.72-2.31a40.87,40.87,0,0,1,6.67-2c6.49-1.06,13-2.05,19.54-2.79s13.14-.11,19.67.87a53.67,53.67,0,0,0,8.17.86,49.49,49.49,0,0,1,11.82,1.27c2.5.6,5,1,8.38,1.69a15.53,15.53,0,0,0-1.83-2c-3-1.93-6-3.92-9.07-5.65-4.19-2.34-8.49-4.48-12.78-6.65a133.87,133.87,0,0,0-22.35-9.37c-3-.89-6-1.95-9-3a168.36,168.36,0,0,0-24.65-6.47c-5.8-1.08-11.65-1.82-17.48-2.72a116.49,116.49,0,0,0-27.91-1c-6.56.57-13.12,1.05-19.7,1.24a74.25,74.25,0,0,0-21.4,3.8c-8.2,2.71-16.38,5.46-24.41,8.7-11.31,4.57-23.11,7.86-34.24,12.92-.5.23-1,.35-1.54.57-2.26,1-4.55,1.93-6.75,3-7.83,3.94-15.31,8.53-23.67,11.45-4.25,1.49-8.31,3.51-12.77,4.46-5.49,1.18-10.94,2.54-16.4,3.85a19.25,19.25,0,0,1-5.71.5c-4-.26-7.94-.4-11.9-.73a26.1,26.1,0,0,1-4.4-1c-1.2-.31-2.35-.79-3.54-1.09a39.71,39.71,0,0,1-15.13-7.17C730.48,355.47,727.55,353.22,724.42,350.8Zm-591.33,392a10.83,10.83,0,0,0,2-.71c1.25-.84,2.41-1.82,3.69-2.61,6.58-4.05,11.33-10,15.67-16.1a103.67,103.67,0,0,0,10.3-18.7c1.24-2.88,3-5.56,4.45-8.34,1.08-2,2.24-4.08,3.17-6.21,2.5-5.79,4.76-11.68,7.37-17.42A141.48,141.48,0,0,1,193,649.48a39.54,39.54,0,0,0,3.6-6,76.34,76.34,0,0,1,8.14-13.29,84.2,84.2,0,0,1,23.49-21.57q12.08-7.46,24.44-14.42c6.59-3.71,13.55-6.59,20.46-9.61,5.53-2.4,11.18-4.61,16.45-7.5a139,139,0,0,1,15.29-7.06,27.34,27.34,0,0,0,3.71-1.75c8.56-5,16.17-11.28,23.59-17.81a4,4,0,0,0,1.5-4,75,75,0,0,1-.89-7.75,70.67,70.67,0,0,0-2-13.8c-1.89-8-3.67-16-5.51-24.05-.83-3.61-1.45-7.28-2.57-10.8-2.42-7.57-5.08-15.06-7.69-22.57-.48-1.38-.76-2.93-2.19-4.05-.46.74-.87,1.44-1.32,2.1-1.22,1.82-2.37,3.69-3.7,5.43-4.42,5.84-10,10.51-15.46,15.32a25.77,25.77,0,0,1-3.74,2.52c-3.4,2.06-6.8,4.12-10.26,6.09-2.25,1.29-4.59,2.44-6.91,3.61s-4.42,2.17-6.63,3.26-4.13,2.17-6.24,3.15c-11.19,5.2-22.42,10.32-33.58,15.56a139.55,139.55,0,0,0-19.53,11.39c-2.72,1.86-5.39,3.78-8.15,5.58a117.86,117.86,0,0,0-12.76,9.71c-7.27,6.32-13.58,13.56-20.05,20.65s-12.08,15.27-17.95,23a56.18,56.18,0,0,0-6.42,10.52,193,193,0,0,0-10.83,28.41c-1.44,5.15-2.92,10.29-4.32,15.45a13.8,13.8,0,0,0-.17,2.74c.54-.24.85-.28,1-.46,3.52-3.65,7-7.34,10.52-11a39.88,39.88,0,0,1,3.07-2.73c7.88-6.69,16.76-11.91,25.52-17.28a85.6,85.6,0,0,1,16.94-8.38,13.28,13.28,0,0,1,3.16-.72,1.57,1.57,0,0,1,1.13,2.46,14.33,14.33,0,0,1-2.14,1.89c-4.55,3.57-8.83,7.4-11.81,12.47-.55.94-1.31,1.76-1.93,2.66-2.79,4.07-5.63,8.11-8.33,12.24-7,10.66-9.38,22.7-10.29,35.13-.38,5.33-.49,10.69-.57,16a99.25,99.25,0,0,1-6.71,33.73c-2.32,6.18-5,12.19-9.93,16.87A16,16,0,0,0,133.09,742.76ZM589.23,540.3a56.92,56.92,0,0,0-3.27-7.57,69.23,69.23,0,0,1-4.1-9.41c-3.45-11-8.22-21.5-12.62-32.13-1.31-3.17-2.93-6.21-4.31-9.35-3-6.89-6.07-13.8-9-20.74a34.16,34.16,0,0,0-9.62-13.17c-3.26-2.73-6.61-5.34-10.91-6.37-5.47-1.32-10.67-.18-15.58,2.05-5.16,2.35-9.74,5.62-12.91,10.52-.52.81-1.1,1.58-1.67,2.35-3.62,4.91-4.6,10.46-4,16.39.47,4.27,1.93,8,5.84,10.34a6.33,6.33,0,0,1,1.81,1.65,1.68,1.68,0,0,1,.14,1.49,1.45,1.45,0,0,1-1.35.46,21.42,21.42,0,0,1-4-2.08,43.44,43.44,0,0,0-13.46-6.92c-6.44-1.79-12.82-1.94-18.78,1.38-4.54,2.53-8.86,5.45-12.24,9.58-5.76,7.05-9.8,14.8-10.65,24.05-.81,8.83,1.92,16.48,7.34,23.31,3.86,4.88,9.22,7.7,14.58,10.49,4.92,2.57,10.39,3.45,15.68,4.87a39.38,39.38,0,0,0,9.37,1.12c8.4.19,16.71-.88,25.05-1.51,3.28-.25,6.6-.35,9.83-.91,8.38-1.46,16.75-3,25.06-4.76a229.54,229.54,0,0,1,31.71-4.75C587.76,540.64,588.27,540.49,589.23,540.3ZM551.94,672.68c-.09-.36-.09-.54-.16-.58a53.56,53.56,0,0,0-15.32-5.7,56.35,56.35,0,0,1-8.33-2.18c-3.86-1.4-7.75-2.74-11.6-4.19-11.56-4.37-22.82-9.31-33.18-16.23a91.29,91.29,0,0,0-19.62-10.3,35,35,0,0,1-5.86-3c-3.41-2-6.69-4.31-10.13-6.3-6.18-3.59-12.2-7.36-17.5-12.22a15.34,15.34,0,0,0-9.29-4c-2.17-.19-4.33-.65-6.49-1s-4.29-.81-6.24.83a5.6,5.6,0,0,1-2.32.78,18.25,18.25,0,0,0-6.25,3,33.87,33.87,0,0,0-8.47,8.29c-3,4.12-6,8.21-7.58,13.12-.59,1.82-1.08,3.68-1.72,5.49-1.84,5.24-2.42,4.38-6.14,4.38-4.52,0-9-.2-13.53.72a92.89,92.89,0,0,0-27.63,10.3,35.62,35.62,0,0,0-11.08,10.25c-3.65,5-6.38,10.56-9.36,16a11,11,0,0,0-.58,2.11,136.48,136.48,0,0,0,15.5-.82,50,50,0,0,1,5.73-.39c2.19,0,4.37.45,6.55.45,6.31,0,12.64.17,18.92-.29,5.21-.39,10.41-.42,15.61-.55,2.74-.06,5.49-.1,8.23-.2q13.56-.46,27.13-1c4.11-.15,8.25-.09,12.33-.52,9.83-1,19.69-1.44,29.55-1.93,5.34-.26,10.68-.43,16-.66,6.16-.27,12.28-1.33,18.47-1.14a19.23,19.23,0,0,0,3.26-.4,114.44,114.44,0,0,1,16.77-1.45c12.48.15,25,0,37.45,0A26.42,26.42,0,0,0,551.94,672.68Zm283.37-421c-1,.47-1.78.77-2.49,1.11-3.57,1.74-7.06,3.68-10.72,5.2a162.78,162.78,0,0,1-19.56,6.33c-10.19,2.77-20.43,5.42-30.14,9.67-5,2.2-9.92,4.66-14.87,7-1.53.72-2.44,2.22-3.75,3.1s-3.08.91-4.62,1.42a8.4,8.4,0,0,0-1.78,1A130.29,130.29,0,0,0,731.89,298c-6.79,5.91-9.86,13.67-12,22a4.27,4.27,0,0,0-.17,1.62,5.08,5.08,0,0,1-.65,3.54,5,5,0,0,0-.61,2.35,65.23,65.23,0,0,0,.1,7.4,12.26,12.26,0,0,0,3.42,7.75,106.53,106.53,0,0,0,16.79,13.84,15.1,15.1,0,0,0,1.79,1,60.23,60.23,0,0,0,26.65,5.94,15.14,15.14,0,0,0,2.46-.43c.44-.74.89-1.42,1.28-2.14a17.43,17.43,0,0,1,7.44-7.45c3-1.57,6.06-3.25,9.22-4.55,6.09-2.5,12.26-4.79,18.42-7.11,8.74-3.3,17.38-6.81,25-12.27a63.52,63.52,0,0,0,6-5,5.85,5.85,0,0,0,1.75-5.59,114.92,114.92,0,0,0-2.55-11.64c-1.93-7.58-3.65-15.22-3.6-23.1,0-4,.34-7.94.44-11.91a93.37,93.37,0,0,1,2-17.56A23.64,23.64,0,0,0,835.31,251.64ZM258.49,501.07l4.71-2.45a40.15,40.15,0,0,1,4.77-2.4,57.08,57.08,0,0,0,11.24-5.9c2.32-1.46,4.77-2.7,7.11-4.12a31.8,31.8,0,0,0,4.38-3c2.69-2.33,5.33-4.73,7.86-7.24A52.19,52.19,0,0,0,308,464.07c2.43-4.43,1.6-8.86-2.13-12.28a79,79,0,0,0-6.18-5.41,46.34,46.34,0,0,0-7.95-5,26.77,26.77,0,0,0-12.87-2.11,69.18,69.18,0,0,1-8.16-.27,62.37,62.37,0,0,0-7-.07,66.79,66.79,0,0,0-7.31,1,91.86,91.86,0,0,0-10.85,2.21,35.15,35.15,0,0,1-10.49,1.65c-2.88,0-5.75-.1-8.63-.11-1.05,0-2.11.09-3.53.15a25.45,25.45,0,0,0,1.26,3.23c3.85,6.81,7.88,13.48,13.1,19.36A48.15,48.15,0,0,1,245,477c2.76,5.65,5.43,11.36,8.15,17,.59,1.24,1.13,2.5,1.82,3.68A6.69,6.69,0,0,0,258.49,501.07ZM529.9,255.52a13.83,13.83,0,0,0-1.64,1.07,37.3,37.3,0,0,1-11.56,7,86.2,86.2,0,0,1-17.47,4.55,59.75,59.75,0,0,0-7.58,1.83c-10.86,3.49-19.6,10.25-27.45,18.26a25.3,25.3,0,0,0-3.68,5.41,6.18,6.18,0,0,0,.21,6.29,19.27,19.27,0,0,0,9.53,8.74,44.23,44.23,0,0,0,23.82,2.68c3.66-.57,7.29-1.41,11-1.73,12.18-1.08,23.51-5.13,34.75-9.58a16.4,16.4,0,0,0,1.65-.9c-1.54-3.42-3.2-6.71-4.5-10.13A104.12,104.12,0,0,1,533.44,278c-.93-3.57-1.62-7.22-2.19-10.87S530.36,259.63,529.9,255.52ZM769.14,610.1c6.89-.46,12.91-.75,18.9-1.27,9.57-.84,19.13-1.36,28.73-1.32,5.07,0,10.15-.16,15.2-.55,6.69-.51,13.36-1.31,20-2q7.35-.75,14.71-1.54c.6-.07,1.43.1,1.56-1.18-4.71-4.24-10-7.22-16.78-7.08-1.23,0-2.46,0-3.7,0a3.37,3.37,0,0,1-3.56-2.23c-1.82-5-5.62-8-10.15-10.25-6.14-3-12.22-3.51-18.33.51-4,2.66-7.94,5.35-10.77,9.36-.87,1.23-2,2.27-2.83,3.53-2,3.21-4.43,4.19-8.33,2.84A13,13,0,0,0,782,600.2c-1.47,1-3.15,1.66-4.71,2.52C774.26,604.39,771.88,606.76,769.14,610.1ZM161.85,367.83c2.72,0,5.17.09,7.61,0,6.43-.27,12.86-.53,19.27-1,5.86-.42,11.7-1.1,17.55-1.67,2.31-.22,4.62-.59,6.93-.63,6.58-.09,13.15,0,19.72-.07.92,0,2,.23,2.57-1.19-1.34-4.1-3-8.32-4.08-12.68s-1.71-9.11-2.52-13.66a10.59,10.59,0,0,0-2.1-.79,33,33,0,0,0-13.4,1.05,7.11,7.11,0,0,0-2.86,1.55c-2.82,2.79-5.62,5.61-8.22,8.61a23.67,23.67,0,0,0-2.59,4.63c-.38.73-.6,1.54-1,2.24a2.23,2.23,0,0,1-2.75,1.24c-2.81-.58-5.6-1.24-8.42-1.78a12.25,12.25,0,0,0-8.37,1.11c-1.93,1-4,1.86-6,2.71a32.17,32.17,0,0,0-9,5.67C163,364.23,161.79,365.38,161.85,367.83Zm90.92,35.43c-2.14.16-3.34,1.9-5,2.75-6.78,3.4-12.7,8.05-18.33,13.07a35,35,0,0,0-8,9.77,13.2,13.2,0,0,0-1.43,6.75c.11,2.89,1.54,5,4.76,5,1.37,0,2.74.19,4.1.18,5.61,0,11.25.18,16.54-2.21a6.32,6.32,0,0,1,1.57-.48c7.94-1.2,15.74-3.53,23.89-3.2.1,0,.2-.15.46-.36a5.11,5.11,0,0,0-.41-1.41,35.63,35.63,0,0,1-3.66-8.68,10.88,10.88,0,0,0-3-4.81,22.06,22.06,0,0,1-3-3.33c-2-2.95-3.8-6-5.7-9C254.61,406,254.08,404.35,252.77,403.26ZM724.55,272.11a5.09,5.09,0,0,0,4.25-.45c2.6-1.5,5.19-3,7.64-4.75a10.44,10.44,0,0,0,2.64-3.07,16.41,16.41,0,0,0,1.8-13,5.16,5.16,0,0,0-4.09-4.09,13.07,13.07,0,0,0-9.18,1c-2.58,1.26-5.07,2.69-7.55,4.14a16.51,16.51,0,0,0-2.23,1.87C720,260.08,722.15,266.23,724.55,272.11ZM434.64,318.83a10.88,10.88,0,0,0-.76,6.4,52.5,52.5,0,0,0,1.73,9.26c4.48,14.38,12.94,26.15,24.18,36a6.38,6.38,0,0,0,1.3.69c.45-1.26-.39-1.73-.88-2.27a80.8,80.8,0,0,1-10.66-15.06A60.23,60.23,0,0,1,443,336.24a21.56,21.56,0,0,1-.13-8.58c.56-2.74,2-3.55,4.77-3.12.66.1,1.4,1,2.15-.14a14.33,14.33,0,0,0-3.87-3.62,3.69,3.69,0,0,0-1.48-.64C441.23,319.68,438,319.27,434.64,318.83Zm312.14-36.2c-5.95-3.33-12-3.63-17.9-4.81-.43-.09-.93.19-1.85.4,2.43,4.65,3.84,9.35,6.5,13.81C737.7,288.59,742.36,286.29,746.78,282.63ZM249.05,394.75c-.85-2.73-1.58-5.16-2.38-7.57-.15-.47-.39-1.07-1.35-.72a30,30,0,0,0-.13,5.86C245.25,394.85,245.47,395,249.05,394.75Z" transform="translate(-120.31 -72.41)"/><path d="M379.84,423.76c1.55.16,2.91.24,4.25.46a5.2,5.2,0,0,1,2.28.81,2.33,2.33,0,0,1,.65,1.77c0,.38-.64.87-1.09,1.06a3,3,0,0,1-1.61.14c-7.42-1.13-14.1,1.18-20.53,4.48a40.14,40.14,0,0,0-13.66,11,3.65,3.65,0,0,1-.79.94,4.26,4.26,0,0,1-1.73.77c-.56.06-.69-1.06-.22-2.1.33-.74.72-1.45,1.07-2.16a7.05,7.05,0,0,0-.79-1.08c-7.34-6.37-12.86-14.2-18-22.3a77,77,0,0,1-7.7-14.51c-.5-1.35-1.4-2.68-.82-4.66a7.11,7.11,0,0,1,1.11,1.36c4.6,11.79,11.79,21.94,20,31.42a50.11,50.11,0,0,0,6.27,5.91c1.91,1.57,2.3,1.36,4.26-1-.28-1.48-1.66-2.08-2.63-3a87,87,0,0,1-17.27-21.32c-5.6-9.92-9.29-20.45-10-31.9-.15-2.45,0-4.93,0-7.39v-2.78c-1-.14-1.18.6-1.53,1.15-2.34,3.71-4.66,7.44-7,11.12a7.1,7.1,0,0,1-1.91,2.09,2.06,2.06,0,0,1-1.87-.11,1.94,1.94,0,0,1-.62-1.74,13.36,13.36,0,0,1,1.82-3.17A139.74,139.74,0,0,0,325.81,355a93.43,93.43,0,0,0,6.55-18.15,17.45,17.45,0,0,0,.43-7.33,3.92,3.92,0,0,1,0-1.6,1.3,1.3,0,0,1,.72-.88,2.13,2.13,0,0,1,1.52.13,3.19,3.19,0,0,1,1.4,2.84,36.55,36.55,0,0,1-.54,7.34c-.89,3.72-2.25,7.32-3.47,11-.51,1.54-1.16,3-1.87,4.89a14.67,14.67,0,0,0,2.12.13,24.18,24.18,0,0,1,15.59,4.17,45.41,45.41,0,0,1,12.68,12.75c5.64,8.22,9.42,17.31,12.42,26.76a194.38,194.38,0,0,1,5.72,23.56C379.26,421.63,379.57,422.66,379.84,423.76Zm-22,7.8c-.8-1-1.69-2.22-2.66-3.34a153.08,153.08,0,0,1-11.82-15.79,130.52,130.52,0,0,1-14.4-29,26.12,26.12,0,0,1-1.33-9.3A9.83,9.83,0,0,1,329,369a6.39,6.39,0,0,1,9.23-2.26,14.8,14.8,0,0,1,3.36,3,27.39,27.39,0,0,1,4.8,8.11c2,5.27,3.9,10.54,5.67,15.88,3.45,10.41,6.77,20.86,10.16,31.29a9.16,9.16,0,0,0,.57,1.54c.36.68.81,1.31,1.19,1.91l11.86-4.2c-.12-1.31-.15-2.4-.33-3.46A168.6,168.6,0,0,0,370.73,400a107.09,107.09,0,0,0-10.14-23.78,54.83,54.83,0,0,0-9-11.71c-4.37-4.2-9.43-7.06-15.55-7.72-2.32-.25-4.63-.42-6.78.69-.27.62-.51,1.11-.7,1.61a48.4,48.4,0,0,0-1.63,29.52c4.3,17.54,14,31.67,27.58,43.36a5.43,5.43,0,0,0,1.36.92C356.81,433.23,357.43,432.85,357.82,431.56Z" transform="translate(-120.31 -72.41)"/><path d="M865.06,194.69c.57,1,1.12,1.89,1.65,2.82,2.13,3.71,4.42,7.29,8.25,9.51a44.92,44.92,0,0,0,4.71,2.47c1.25.54,2.64.72,3.93,1.19,5,1.81,10.21,1.59,15.41,1.49,4-.07,8,0,11.92.23a14.09,14.09,0,0,1,4.33,1.1c1.63.66,3.15,1.6,4.88,2.5.85-.67,1.75-1.27,2.53-2a25,25,0,0,1,9.9-5.68c.78-.24,1.57-.49,2.33-.8a18.52,18.52,0,0,1,10.52-.78c1.33.25,2.65.53,4.23.84a40.13,40.13,0,0,0,3.13-8.47,41,41,0,0,1,3.69-8.67,7.41,7.41,0,0,1,.94-1.35c1.23-1.46,2.82-1.29,3.6.36a4.83,4.83,0,0,1,.4,1.16c.74,4.16,2,8.25,1.46,12.57-.25,1.88-.6,3.8.46,5.85,1-.14,2.09-.3,3.14-.42,2.59-.29,5.17-.57,7.76-.84a3.25,3.25,0,0,1,.82.07c.83.14,1.72.37,1.84,1.33a2.56,2.56,0,0,1-.44,1.87,27.13,27.13,0,0,1-3.65,3.29c-2,1.47-4,2.79-6.25,4.28a5.72,5.72,0,0,0,.23,1.49c3,6.79,1.72,13.44-.68,20-1,2.83-2.36,5.55-3.54,8.32-.31.74-.59,1.49-.91,2.33,4.34,3.72,6.17,8.75,7.87,13.82A35.8,35.8,0,0,0,978,278.52a37,37,0,0,0,3.76,3.18,7.09,7.09,0,0,0,4.1,1.72,5,5,0,0,1,1.93.62,1.55,1.55,0,0,1,.17,2.46,2.31,2.31,0,0,1-.69.44c-3.42.94-6.85,1.9-10.29,2.78a6,6,0,0,1-2.44.21c-4-.69-8.25-.46-12-2.65a3.62,3.62,0,0,0-1.13-.24c-11.42,9.78-25.13,9.15-34.32-6.15-.79.3-1.66.59-2.49.95l-11.68,5.08c-.88.39-1.8.68-2.64,1.14-7.29,4-15.35,5.85-23.25,8.07a67.36,67.36,0,0,1-10.55,1.64c-5.3.6-10.62,1-15.94,1.54a8.46,8.46,0,0,1-1.23.07,1.8,1.8,0,0,1-1.8-1.39,2,2,0,0,1,.94-2.48,8.12,8.12,0,0,1,2.74-.64,11.36,11.36,0,0,0,5-1.63c6-3.23,10.87-7.85,15.63-12.6a25.29,25.29,0,0,0,5.23-7.83,50.66,50.66,0,0,1,5-9,10.31,10.31,0,0,0,.74-1.61c-1.34-.66-2.57-1.21-3.75-1.83-8.2-4.35-13.63-10.87-15.7-20a16.32,16.32,0,0,1,1.56-10.78c.51-1.11,1.15-2.15,1.86-3.45-1-.66-1.82-1.31-2.73-1.81a22.88,22.88,0,0,1-7-6.2A28.78,28.78,0,0,1,860.81,204a29.41,29.41,0,0,1-.11-5.31C860.82,196.38,862,194.91,865.06,194.69Zm105.18,16.64c-2.88.46-4.87.84-6.89,1.08-2.48.3-3.45-.31-3.66-2.67a45.47,45.47,0,0,1,0-7.38,25.43,25.43,0,0,0-1-8.79,12.13,12.13,0,0,0-2.31,4.34c-1.14,3.09-2.18,6.21-3.25,9.32-1.5,4.38-1.74,4.61-6.17,3.26-7.12-2.17-13.55-.24-19.74,3.06a14.84,14.84,0,0,0-5.14,4.18c.71.92,1.39,1.77,2,2.65a15.92,15.92,0,0,1,2.84,7.19,3.33,3.33,0,0,1,0,1.22.86.86,0,0,1-.48.59c-.36.07-1,.11-1.11-.08a16.38,16.38,0,0,1-1.74-3.21c-1.22-3.54-3.7-6.07-6.55-8.26a10.69,10.69,0,0,0-6.44-2.42c-3.56,0-7.12,0-10.68,0-2.74,0-5.48.21-8.23.21a17.94,17.94,0,0,1-3.64-.45c-1.88-.39-3.73-.89-5.59-1.37A30.41,30.41,0,0,1,873,210a27.37,27.37,0,0,1-8.41-9.4c-.44-.77-.43-2-1.85-2.18a6.52,6.52,0,0,0,.07,3.91,33.31,33.31,0,0,0,7.24,14.11,16.92,16.92,0,0,0,10.5,5.9c1.76.24,3.55.25,5.31.49a13.48,13.48,0,0,1,3.52.89,2,2,0,0,1,.79,1.68,2.22,2.22,0,0,1-1.19,1.47,6,6,0,0,1-2.41.23c-2.31-.1-4.62-.27-7-.41a18.94,18.94,0,0,0-2.67,5.6,13,13,0,0,0,.22,9.63c3.07,7.71,8.39,13.18,16.29,15.72,4,1.28,8.1,2.6,12.49,1.81a5.26,5.26,0,0,1,2.71.61,1.59,1.59,0,0,1,.79,1.3,2.23,2.23,0,0,1-1,1.59c-2.58.94-5.23,1.63-8,.91-1.58-.4-3.17-.73-4.95-1.13a10.54,10.54,0,0,0-.76,1.1c-1.51,2.91-3.17,5.77-4.46,8.78a32.68,32.68,0,0,1-7.92,11.88c-3,2.76-6.17,5.43-9.26,8.15-.36.32-1,.53-.44,1.47,1.63-.15,3.39-.28,5.14-.49,1.36-.16,2.71-.54,4.07-.59a39.67,39.67,0,0,0,9.65-2c2.49-.74,5-1.55,7.47-2.28a41.22,41.22,0,0,0,9.56-3.72,33.24,33.24,0,0,1,4.56-1.86c1.78-.7,3.6-1.33,5.34-2.12a132.72,132.72,0,0,0,21.35-12.28,60.05,60.05,0,0,0,14.9-14,58.45,58.45,0,0,0,10.42-23,16.5,16.5,0,0,0-1.29-10c-.27-.63-.68-1.19-1-1.81a2.6,2.6,0,0,1,.84-3.62c.75-.58,1.64-1,2.44-1.52A12.58,12.58,0,0,0,970.24,211.33Zm-38.85,67.12c1.65,4.27,4.81,7,8.47,9.23a10.19,10.19,0,0,0,5,1.49c5.17,0,10.06-1,13.23-5.82,1.14-1.75,2.36-2.09,4.22-1,3.53,2.1,7.46,2.54,11.35,3.22a6,6,0,0,0,4.84-.87,9.22,9.22,0,0,0-1-1.34c-6-5-9.63-11.45-11.87-18.8a47.52,47.52,0,0,0-2-5.8c-.81-1.83-1.48-3.84-3.57-5.09-.69.87-1.38,1.68-2,2.53A58.93,58.93,0,0,1,942.2,271C938.52,273.34,935,275.94,931.39,278.45Z" transform="translate(-120.31 -72.41)"/><path d="M408.32,438.21a23,23,0,0,0,19.13-1c4.54-2.56,9-5.17,12.84-8.8a26.85,26.85,0,0,0,8.28-16.14c.27-1.88.43-3.78.66-5.82a32.59,32.59,0,0,1-3.42-1.52,1.83,1.83,0,0,1-.53-1.38c0-.28.5-.73.82-.78a17.14,17.14,0,0,1,2.86-.22,34.8,34.8,0,0,0,9-.88,4.43,4.43,0,0,1,.81-.14c1.2-.12,2.11.41,2.22,1.3a2,2,0,0,1-1.51,2.17c-1.42.46-2.89.76-4.58,1.19a14.2,14.2,0,0,0,.76,1.83c4.91,8,6.45,16.71,5.51,26-.74,7.35-4.44,12.83-10,17.28a22.64,22.64,0,0,1-12.42,4.89,42.44,42.44,0,0,1-15.46-1.3,23.92,23.92,0,0,1-8.42-4.14c-2.25-1.76-4.55-3.46-7-5.29-1.07,1.07-1.09,2.37-1.63,3.39a5.49,5.49,0,0,1-1.42,1.94,2.43,2.43,0,0,1-1.88.18c-.73-.22-.85-1-.78-1.72a2.38,2.38,0,0,1,.22-.79,25.43,25.43,0,0,0,2.71-13.52.67.67,0,0,1,.05-.4c.21-.32.4-.8.69-.87a1.12,1.12,0,0,1,1,.46,27.89,27.89,0,0,1,1,2.69C408,437.3,408.17,437.8,408.32,438.21Z" transform="translate(-120.31 -72.41)"/><path d="M406.78,319.93c-.41,3.95-.73,7.9-1.26,11.83a20.69,20.69,0,0,1-1.36,4.72,2.16,2.16,0,0,1-3,1.26,31,31,0,0,1-4.06-2,54,54,0,0,1-16.5-15.24,82.71,82.71,0,0,1-14.81-36.19,71.87,71.87,0,0,1,.21-24.13,41.53,41.53,0,0,1,3.44-10.95c1.19-2.46,3.54-3.14,5.77-1.59a33.78,33.78,0,0,1,4.38,3.72,71.26,71.26,0,0,1,11.92,15.67,115.17,115.17,0,0,1,14.62,44.63c.31,2.72.31,5.47.45,8.21Zm-7.26-21.66a111.41,111.41,0,0,0-10.11-26.58,5.27,5.27,0,0,0-5.28-3.17c-5.76.33-10.6,2.6-14,7.41a7.59,7.59,0,0,0-1.54,6.2q1.61,7,3.36,14a4.26,4.26,0,0,0,1.94,3,5.06,5.06,0,0,0,.62,3.55c1.83,3.52,3.71,7,5.51,10.55a5.08,5.08,0,0,0,5.3,3c1.77-.13,3.56-.05,5.31-.33a15.65,15.65,0,0,0,8.89-4.77,5.34,5.34,0,0,0,1.61-5.58c-.34-1.18-.56-2.38-.77-3.29-.83-1.28-2.79-.49-2.95-2.4ZM385,264.74a42.54,42.54,0,0,0-5-6.86,3.5,3.5,0,0,0-2.9-1.29,36.73,36.73,0,0,0-5.22.78,4.28,4.28,0,0,0-3.44,4.09q-.4,4.49-.69,9c0,.42.32.86.63,1.62A23.28,23.28,0,0,1,385,264.74ZM401.92,314a20.43,20.43,0,0,1-15.11,6.22c-.28,0-.57.41-.93.69a36.15,36.15,0,0,0,7.25,7.31,2.67,2.67,0,0,0,1.88.54,12.18,12.18,0,0,0,6.51-3.21,2.65,2.65,0,0,0,.72-1.42A30.86,30.86,0,0,0,401.92,314ZM375.51,253.9a7.83,7.83,0,0,0-3.42-3.28c-1.65,2.12-1.63,2.13-1.33,4.37Zm26.13,75c-1.72.77-2.7,1.18-3.64,1.66-.15.07-.13.46-.23.91,1,.5,1.74,1.6,3.4,1.12C401.28,331.65,401.41,330.64,401.64,328.9Z" transform="translate(-120.31 -72.41)"/><path d="M753.38,689.73c2.4,0,4.73.06,7,0,6.45-.19,12.46,1.67,18.37,4,1.91.74,3.76,1.64,5.6,2.56,4.56,2.27,7.85,5.89,10.6,10.07a4.88,4.88,0,0,1,.6,1.52,2.28,2.28,0,0,1-1.79,2.77,9.91,9.91,0,0,1-1.22.15c-6,.48-12,1.15-18.05,1.38-6.85.26-13.71.2-20.56.13a84.42,84.42,0,0,0-10.66.47c-6.12.7-12.29,1-18.44,1.37-9.32.51-18.65.33-28,.17a51.76,51.76,0,0,0-8.6.68,129,129,0,0,1-17.22,1.19c-1.62,0-3.24,0-5,0a6.36,6.36,0,0,1-.1-1.73,5,5,0,0,1,.84-1.86c2.6-3.34,4.77-7,8.05-9.83a21.65,21.65,0,0,1,14.27-5.51,25.48,25.48,0,0,1,8.15.82,19.56,19.56,0,0,0,2.55.46c.79-1.17,1.64-2.24,2.29-3.42,4-7.28,10.6-11.25,17.94-14.35,6.44-2.71,13-2.9,19.77-1.47a18.68,18.68,0,0,1,11.94,8.1C752.31,688.14,752.84,688.93,753.38,689.73Zm-83.63,24c.67.34.91.57,1.12.55,4-.36,7.93-.57,11.84-1.17a143.56,143.56,0,0,1,22.5-1.72c9.71.06,19.46.37,29.12-1.16.94-.14,1.92,0,2.87-.12,2.32-.2,4.64-.48,7-.64a66.8,66.8,0,0,1,8.58-.42,184.42,184.42,0,0,0,22.18,0c4.78-.28,9.55-.73,14.33-1.14.34,0,.65-.35,1.17-.65a17.83,17.83,0,0,0-1.46-2,30.88,30.88,0,0,0-9.63-6.8c-7.5-3.52-15.24-5.41-23.48-4.54-3.42.37-5.56-.2-7.21-3.61-1.91-4-5.4-6.28-9.87-7.32a29.1,29.1,0,0,0-18.52,1.31c-6.41,2.74-12.14,6.34-15.61,12.72-.59,1.08-1.21,2.15-1.88,3.18-1.4,2.17-2.25,2.49-4.83,1.84-1.06-.27-2.09-.67-3.16-.88-7.82-1.5-14.74.08-20.18,6.2C672.88,709.17,671.47,711.37,669.75,713.69Z" transform="translate(-120.31 -72.41)"/><path d="M415.34,174.36c2.63-1,4.75-2,7-2.57a19.84,19.84,0,0,1,5.28-.56,8,8,0,0,1,6.19,2.77c1.77,2.07,3.51,4.17,5.24,6.25,1.64,0,3.27.11,4.88,0,4-.33,6.75,1.89,9.46,4.24.88.76.78,1.9.43,3.26-2.87-1.35-5.72-1-8.53-1-2.61,0-5.21.09-7.82,0-6.59-.24-13.13.68-19.69,1-3.28.16-6.57.08-9.86.15-1.91,0-3.82.19-5.74.26-2.19.08-4.38.16-6.57.19-9.87.12-19.74.22-29.6.35-1.06,0-2.12.13-3.2.19.18-3.54,2.92-6.84,7.32-9.24,3.65-2,7.68-1.68,11.74-2,.41-.74.84-1.42,1.18-2.15,3.29-7,9.22-9.77,16.54-10.31.95-.07,1.91,0,2.87,0a10.31,10.31,0,0,1,7.1,2.81c1.28,1.22,2.47,2.55,3.67,3.86C413.93,172.64,414.6,173.49,415.34,174.36Zm-49.6,12.14a10.68,10.68,0,0,0,1.84.41c6.57-.09,13.15-.14,19.72-.35,9.45-.29,18.86-1.39,28.32-1.24.55,0,1.09-.06,1.64-.1,7.23-.62,14.45-1.35,21.72-1.11,2.19.07,4.39,0,6.58,0,.61,0,1.23-.17,2.61-.37-1.05-.64-1.45-1.1-1.85-1.11a36.25,36.25,0,0,0-5.32.2,4.63,4.63,0,0,1-4.91-2.16c-1-1.47-2.17-2.81-3.24-4.23-2-2.61-4.64-3.19-7.69-2.75a21.12,21.12,0,0,0-6.89,2.53c-2.72,1.47-4.06,1.06-6-1.28-1.5-1.77-3-3.53-4.68-5.15a7.62,7.62,0,0,0-5.22-2.13c-7.19-.2-14.67,2.54-17.22,10.52-.08.26-.17.52-.26.78a2,2,0,0,1-2.2,1.46c-1.91-.07-3.84-.31-5.74-.19C372.44,180.52,368.88,182.52,365.74,186.5Z" transform="translate(-120.31 -72.41)"/><path d="M290.5,100.23a8.74,8.74,0,0,1,2.71.46,22.85,22.85,0,0,1,5.2,3.24c4.19,3.94,8.32,8,11.35,12.94,1.29,2.09,2.38,4.31,3.51,6.49s2.07,4.48,3.31,6.61a98.28,98.28,0,0,1,11.17,31.18,35.39,35.39,0,0,1,.51,13.07,17.78,17.78,0,0,0,.95,8.91,30.65,30.65,0,0,0,1.46,3.84c1.88,3.74,1.8,7.67,1.28,11.65,0,.2-.28.36-.42.53-1.12-.5-.75-1.45-.68-2.14a19.83,19.83,0,0,0-2-10.37,27.09,27.09,0,0,1-2.19-14,42,42,0,0,0-1.52-13.43c-2.46-10.14-5.7-20-11.06-29.08a27.86,27.86,0,0,1-2.15-4.43,39.43,39.43,0,0,0-6.36-11q-3.85-4.81-8.05-9.33A28.55,28.55,0,0,0,290.5,100.23Z" transform="translate(-120.31 -72.41)"/><path d="M388.57,254.24a6.3,6.3,0,0,1,2.23.39,25.37,25.37,0,0,1,6.82,6.45,57.07,57.07,0,0,1,7.84,13.9,103.86,103.86,0,0,1,7.38,43.78,7.86,7.86,0,0,1-.52,2.34,1.17,1.17,0,0,1-1,.5,1.19,1.19,0,0,1-.86-.68,9.87,9.87,0,0,1-.12-2.43,94.25,94.25,0,0,0-7.61-43.26,85.4,85.4,0,0,0-5.08-9.83,30.92,30.92,0,0,0-7.75-9,8.58,8.58,0,0,1-1.31-1.49C388.54,254.87,388.59,254.69,388.57,254.24Z" transform="translate(-120.31 -72.41)"/><path d="M358.25,266.36c.64,1.39.26,2.73.13,4a80.15,80.15,0,0,0,.15,16A66.12,66.12,0,0,0,367.32,314a45.13,45.13,0,0,0,14,14.83,13.1,13.1,0,0,1,2.2,1.8,1.17,1.17,0,0,1,0,1.1,1.21,1.21,0,0,1-1,.53,8.74,8.74,0,0,1-2.24-.92,40.75,40.75,0,0,1-11.4-10.57,62.81,62.81,0,0,1-10.56-22.57,71,71,0,0,1-1.41-29.37C357,267.91,357,267.91,358.25,266.36Z" transform="translate(-120.31 -72.41)"/><path d="M299.86,312.89c2.22,3,2.17,5.39,1.19,7.68-.86,2-2.12,4-4.63,4.18-3.12.23-6-.46-8.12-3.05a6.71,6.71,0,0,1-1.67-4.93,45.85,45.85,0,0,1,.85-6.08c.81-3.46,1.77-6.89,2.78-10.3a28,28,0,0,0,1.16-8.09,8.8,8.8,0,0,1,.85-4.66c.52.53,1.08.83,1.13,1.2a25.87,25.87,0,0,1-.31,10.18c-1.09,4.09-2.19,8.19-3.18,12.31a18.61,18.61,0,0,0-.51,4.46,5.58,5.58,0,0,0,5.13,5.88,2.84,2.84,0,0,0,3.41-1.63,17.15,17.15,0,0,0,.92-3.11C299.13,315.91,299.37,314.88,299.86,312.89Z" transform="translate(-120.31 -72.41)"/><path d="M669.23,671.46c-.46.45-.85,1.08-1.4,1.31a85,85,0,0,0-9.21,4.48,29.89,29.89,0,0,1-6.9,2.6,54.41,54.41,0,0,1-15.84,1.83c-9.51-.34-13.89-7.9-13.94-14.26,0-4.09.4-7.88,3-11.14.82.06,1.07.5,1,1.1-.14,1-.31,1.89-.54,2.82a29.65,29.65,0,0,0-.38,10.2,9.38,9.38,0,0,0,8.47,8.68,45.91,45.91,0,0,0,13.09.13,32.83,32.83,0,0,0,11.24-3.73,30.67,30.67,0,0,1,11.5-4Z" transform="translate(-120.31 -72.41)"/><path d="M361.18,567.18c1.05.37.94,1.15,1,1.78a34.69,34.69,0,0,1-1.11,13.82c-.49,1.72-1,3.42-1.44,5.15a23.58,23.58,0,0,0-.67,8.15c.31,3.1,4,6.27,7.16,6.26a2.1,2.1,0,0,0,1.95-1.27,9.73,9.73,0,0,0,1.2-5.55c-.33-2.56-.87-5.1-1.35-7.65-.37-2-.83-4-1.14-6-.1-.61-.1-1.39.72-1.7.23.12.6.19.64.34,1.07,4.24,2.16,8.47,3.13,12.73A13.28,13.28,0,0,1,370,602a3.87,3.87,0,0,1-3.93,2.38,9.45,9.45,0,0,1-9.29-9,27.7,27.7,0,0,1,1.51-10.1,45.35,45.35,0,0,0,2.55-15.31A22.26,22.26,0,0,1,361.18,567.18Z" transform="translate(-120.31 -72.41)"/><path d="M640.17,645.68a17,17,0,0,1-7.31.83,32.46,32.46,0,0,0-10.22.47,23.43,23.43,0,0,1-11.38-.08c-5.47-1.36-11.09-1.62-16.57-2.81a52.62,52.62,0,0,1-5.17-1.25c-4.17-1.33-8.32-2.71-12.44-4.19a48.89,48.89,0,0,1-5.2-2.41c-.41-.21-.69-.69-1.36-1.4a6.93,6.93,0,0,1,1.57.15c6.63,3,13.73,4.64,20.64,6.8a47.58,47.58,0,0,0,6.45,1.17c4.32.7,8.64,1.35,13,2.06a29.9,29.9,0,0,0,9.39.31,48.53,48.53,0,0,1,12.28-.11C635.58,645.4,637.35,645.48,640.17,645.68Z" transform="translate(-120.31 -72.41)"/><path d="M731.1,570.1a17.79,17.79,0,0,0-1.58,2.34,43.57,43.57,0,0,1-15.2,17.95,48.3,48.3,0,0,1-19.06,8.34c-4.71.86-9.4,1.86-14.12,2.69a13.24,13.24,0,0,1-5.19,0c1.1-1.18,2.24-1,3.21-1.05a77.92,77.92,0,0,0,17.31-3.4c10.42-3.3,19.39-8.82,26.46-17.27a41.57,41.57,0,0,0,5.78-8c.46-.91,1-2.07,2.47-1.57A.57.57,0,0,1,731.1,570.1Z" transform="translate(-120.31 -72.41)"/><path d="M577.74,599.16c2.67,1.39,5.28,2.89,8,4.15a39.33,39.33,0,0,0,14.57,4.08,32.92,32.92,0,0,0,10.93-1.61,76.52,76.52,0,0,1,19.5-2.72,12.72,12.72,0,0,1,4.91.89,14.71,14.71,0,0,1-2.46.73c-4,.46-7.92.75-11.86,1.29-3.25.45-6.48,1.09-9.69,1.78a50.23,50.23,0,0,1-10.15,1.4c-5,0-9.5-1.47-13.89-3.4a88.38,88.38,0,0,1-8.92-5.06c-.56-.33-1.15-.8-.85-1.63Z" transform="translate(-120.31 -72.41)"/><path d="M267.61,363a16,16,0,0,1-3.94-6.39,32.44,32.44,0,0,0-5.84-10.31c-3.38-4.1-5.24-8.89-6.54-14a44,44,0,0,1-1.39-14.66,19.78,19.78,0,0,1,.27-2c.05-.24.28-.43.44-.66.84.11.61.77.52,1.19a23.65,23.65,0,0,0,.5,11.4c1.12,4.23,2.07,8.55,4.53,12.28a74.76,74.76,0,0,0,4.81,6.64c3.69,4.47,5.3,9.84,6.83,15.26A4,4,0,0,1,267.61,363Z" transform="translate(-120.31 -72.41)"/><path d="M447.79,462.34a15.07,15.07,0,0,1,1.81-1.15c1.12-.5,2.28-.9,3.42-1.36a18,18,0,0,0,10.55-11.27c.49-1.41,1-2.81,1.62-4.17a1.18,1.18,0,0,1,1-.4,1.51,1.51,0,0,1,.84.76,2,2,0,0,1,.16,1.19c-1.12,5.79-3.35,10.95-8.44,14.4a17.1,17.1,0,0,1-9.2,3,4,4,0,0,1-1.17-.25C448.31,463.06,448.25,462.9,447.79,462.34Z" transform="translate(-120.31 -72.41)"/><path d="M379,482.39a5.2,5.2,0,0,1-3.76-3.2,17,17,0,0,0-5.63-6.38c-2-1.47-3.74-3.15-5.62-4.73-1.36-1.13-2.73-2.27-4.13-3.35a13.86,13.86,0,0,1-5.18-8c.85-.5,1.07.14,1.28.55a18.22,18.22,0,0,0,6.25,6.91,44.73,44.73,0,0,1,3.43,2.91,54.54,54.54,0,0,0,4.49,3.54,16.74,16.74,0,0,1,6.83,7.92A38.46,38.46,0,0,0,379,482.39Z" transform="translate(-120.31 -72.41)"/><path d="M754.94,598.25a6.38,6.38,0,0,1,.86,6.33,43.91,43.91,0,0,1-2.14,5.33,8,8,0,0,1-2.25,2.82c-3.17,2.36-6.29,4.81-10.21,5.95a28.47,28.47,0,0,0-4,2c-1.07.52-2.16,1-3.78,1.74.4-.87.46-1.3.68-1.43a55.49,55.49,0,0,1,7.22-3.82c3.56-1.35,6.31-3.79,9.22-6a3.69,3.69,0,0,0,1.2-1.62c1.09-3.2,3-6.19,2.52-9.81C754.18,599.39,754.53,599,754.94,598.25Z" transform="translate(-120.31 -72.41)"/><path d="M345.36,469.61c.75,0,1-.05,1,0a7.2,7.2,0,0,1,.28,7.7,3,3,0,0,1-3,1.7,14.41,14.41,0,0,1-3.18-.67,3.48,3.48,0,0,1-2.56-3.75,33,33,0,0,1,.59-5.27,32.84,32.84,0,0,0,1.29-7.23c0-.32.33-.64.6-1.13.37.36.79.57.85.86a14.22,14.22,0,0,1-.33,6.48,39.7,39.7,0,0,0-1.09,5.61c-.19,1.72.53,2.48,2.24,2.82a8.29,8.29,0,0,0,1.22.14,2,2,0,0,0,2.21-1.9,24.74,24.74,0,0,0-.09-2.85C345.34,471.34,345.36,470.54,345.36,469.61Z" transform="translate(-120.31 -72.41)"/><path d="M983.43,180.38a2,2,0,0,1-.26,2.38q-4.86,8.09-9.79,16.13a10,10,0,0,1-1.91,2.09,1.17,1.17,0,0,1-1.1-.06,1.26,1.26,0,0,1-.49-1,6.15,6.15,0,0,1,.83-1.83c1.88-3,3.71-6.06,5.71-9s4-5.52,6.05-8.25C982.66,180.57,983.11,180.52,983.43,180.38Z" transform="translate(-120.31 -72.41)"/><path d="M595.35,700.15c1,3.4,2.32,6.64,2,10.24-.18,2.07-1.3,2.86-3.35,2.41s-3.44-1.79-3.35-4a68.93,68.93,0,0,1,.89-7.3c.42-2.7,1-5.37,1.45-8a10.86,10.86,0,0,1,.7-1.59,15,15,0,0,1,0,6.44c-.41,2.28-.87,4.56-1.21,6.86a19.55,19.55,0,0,0-.18,3.67c.07,1.49.53,1.78,2.85,2.13a7,7,0,0,0,.09-4.76c-.36-1.46-.74-2.91-1-4.38a2,2,0,0,1,.25-1.15C594.57,700.5,594.9,700.42,595.35,700.15Z" transform="translate(-120.31 -72.41)"/><path d="M850.77,440.83c.66,2.79.17,5.32-.17,7.8a27.22,27.22,0,0,1-1.34,4.72,5,5,0,0,1-.93,1.81c-2.39,2.62-5,5-8.46,6.17-.11-.36-.31-.75-.24-.81a22.41,22.41,0,0,1,2.28-1.73c4.52-2.9,6.48-7.11,6.67-12.38a21.36,21.36,0,0,1,1.07-4.74C849.72,441.39,850.22,441.23,850.77,440.83Z" transform="translate(-120.31 -72.41)"/><path d="M363.27,243.8a6.12,6.12,0,0,1,2.67-5.19,8.1,8.1,0,0,1,10.16.79,3,3,0,0,1,.76,1.4,1.11,1.11,0,0,1-1.47,1.26,20.55,20.55,0,0,1-2-1.41c-2.8-1.93-6.69-.23-7.25,2.59-.08.41-.15.81-.24,1.21a1.34,1.34,0,0,1-1.38,1.23c-.76-.05-1.11-.68-1.21-1.41C363.3,244.13,363.29,244,363.27,243.8Z" transform="translate(-120.31 -72.41)"/><path d="M420.74,330.46c.81,2.32,1.4,4,2,5.63.79,2.33,1.47,4.71,2.38,7,.81,2,1.85,4,2.82,5.9s1.86,3.66,2.75,5.51a4,4,0,0,1,.09,1.25C425.69,351.31,420.45,338.42,420.74,330.46Z" transform="translate(-120.31 -72.41)"/><path d="M449,569.22a3.48,3.48,0,0,1,.69.43,100.36,100.36,0,0,0,17.57,14c1.53,1,3.15,1.92,4,3.72a70.85,70.85,0,0,1-13.83-9.08C454.21,575.64,451.11,572.86,449,569.22Z" transform="translate(-120.31 -72.41)"/><path d="M369.87,376.05c3,3.64,4.55,6.91,8,17.21a17.5,17.5,0,0,1,1.38,7.13c-1.84-1.5-1.71-3.41-2.35-4.92s-1.13-3.07-1.67-4.61-1.14-3.36-1.74-5-1.19-3.05-1.71-4.59S370.07,378.2,369.87,376.05Z" transform="translate(-120.31 -72.41)"/><path d="M398.52,342.59c1.76.55,2.64.9,3.56,1.11,2.92.68,5-.4,6.22-3.2.32-.74.43-1.57.77-2.3a1.09,1.09,0,0,1,1-.44,1.23,1.23,0,0,1,.78.79,7.05,7.05,0,0,1-7.86,7.69,12.6,12.6,0,0,1-3.66-1.64C399,344.43,399,343.75,398.52,342.59Z" transform="translate(-120.31 -72.41)"/><path d="M391.46,370.09c.34-.88.72-1.86,1.12-2.87.28.16.65.27.65.38a10.15,10.15,0,0,1-.16,2.41,2.44,2.44,0,0,1-.93,1.29c-1.43,1-2.89.47-4.29-.12a2.8,2.8,0,0,1-1.87-2.89c.25-3.79.55-7.58.89-12.07a7.68,7.68,0,0,1,.64,1.69c0,2.59,0,5.18,0,7.76a8.6,8.6,0,0,0-.1,1.22,6.11,6.11,0,0,0,.57,2.68C388.75,370.66,390.05,370.65,391.46,370.09Z" transform="translate(-120.31 -72.41)"/><path d="M444.07,487.64l-14.8-10.52a13.65,13.65,0,0,1,6,2.34A29.37,29.37,0,0,1,444.07,487.64Z" transform="translate(-120.31 -72.41)"/><path d="M626.94,570.64c-5.63-1.34-10.36-5.29-17.13-5.33C615.6,564.1,622.23,566.2,626.94,570.64Z" transform="translate(-120.31 -72.41)"/><path d="M822.64,519c-2.46,4.68-6,8.7-7.26,14a6.79,6.79,0,0,1,.69-5.39C817.73,524.34,819.17,520.9,822.64,519Z" transform="translate(-120.31 -72.41)"/><path d="M320,246.29l2.18,1.91c-.44,1.44-1.43,1.1-2.33.84a2.06,2.06,0,0,1-1.73-2,17.29,17.29,0,0,1,.74-4c.62-2,1.41-4,2.17-6.14.76-.13.67.68.64,1-.15,1.6-.36,3.21-.67,4.8C320.75,243.94,320.33,245.08,320,246.29Z" transform="translate(-120.31 -72.41)"/><path d="M974,202c0-.17-.08-.38,0-.43,2.24-1.88,5-2.61,7.72-3.43a1,1,0,0,1,.78.06,2.89,2.89,0,0,1,1,1.07,1.15,1.15,0,0,1-.45,1c-2.72,1.2-5.43,2.55-8.55,2.18C974.33,202.41,974.17,202.12,974,202Z" transform="translate(-120.31 -72.41)"/><path d="M313.61,188.35c3.52,1.56,4.18,4.85,4.65,8.17.33,2.43.1,2.79-1.88,4.66a42.32,42.32,0,0,0,0-4.38,21.05,21.05,0,0,0-.91-4.38A39,39,0,0,0,313.61,188.35Z" transform="translate(-120.31 -72.41)"/><path d="M733.12,566.26c2.11-3.47,3.8-7.19,6.43-10.35A37.16,37.16,0,0,0,742,551.7c.47-.75.8-1.8,2-1.65L744,550A30.63,30.63,0,0,1,738,560.15c-1,1.08-1.54,2.57-2.41,3.79-.66.94-1,2.29-2.6,2.23Z" transform="translate(-120.31 -72.41)"/><path d="M968.25,190.44a4.15,4.15,0,0,1,.34,1.28c-.21,2.45-.45,4.9-.75,7.34-.12,1-.3,1.06-1.9,1.59-.56-2.78,0-7.7,1.24-9.86C967.31,190.56,967.85,190.56,968.25,190.44Z" transform="translate(-120.31 -72.41)"/><path d="M471.78,413.58c.49.08,1.13,0,1.46.27a24.48,24.48,0,0,1,2.88,2.88c2.13,2.56,4.05,5.28,6.47,8.61a7.86,7.86,0,0,1-4.09-3l-6.62-8.8Z" transform="translate(-120.31 -72.41)"/><path d="M397,573a16.86,16.86,0,0,1,10.17,8.33c-.74.87-1.15.23-1.47-.05a18.43,18.43,0,0,1-2-2.07,21.63,21.63,0,0,0-5.11-4.67A10.62,10.62,0,0,1,397,573Z" transform="translate(-120.31 -72.41)"/><path d="M767.76,586.06c-4.58-.89-4.58-.89-10.36,1.8a8.4,8.4,0,0,1,6.91-4.07A3.15,3.15,0,0,1,767.76,586.06Z" transform="translate(-120.31 -72.41)"/><path d="M422.06,273.2a9,9,0,0,1,3.5,4.65,11.14,11.14,0,0,1,0,6.34c-1.17-1.48-.68-2.77-1-3.87a35,35,0,0,0-1-3.5C423.25,275.72,422.72,274.68,422.06,273.2Z" transform="translate(-120.31 -72.41)"/><path d="M304.39,240.39c-2.12,3.5-5,3.41-8.71,3Z" transform="translate(-120.31 -72.41)"/><path d="M271.3,385.57a9.35,9.35,0,0,1-2.71-6.81c.81,1.56,1.64,3.1,2.39,4.69C271.24,384,271.85,384.54,271.3,385.57Z" transform="translate(-120.31 -72.41)"/><path d="M456.13,377.87a10.75,10.75,0,0,1-4.8-5.16C453.58,373.69,453.58,373.69,456.13,377.87Z" transform="translate(-120.31 -72.41)"/><path d="M773.5,592.33l4.72-2.54C777.3,592.06,776.27,592.6,773.5,592.33Z" transform="translate(-120.31 -72.41)"/><path d="M716,638.52c1.36-1.52,3.13-1.64,5.1-2.81C719.62,638.05,719.62,638.05,716,638.52Z" transform="translate(-120.31 -72.41)"/><path d="M655.58,604.59c-2.37.71-3.6.24-4.72-.8Z" transform="translate(-120.31 -72.41)"/><path d="M446.72,567.77c-.76-.93-1.51-1.85-2.54-3.13C446,565.64,446,565.62,446.72,567.77Z" transform="translate(-120.31 -72.41)"/><path d="M733,566.17a9.68,9.68,0,0,1-.54,1.68c-.4.77-.93,1.48-1.4,2.23a1.09,1.09,0,0,0,.1.11c-.74-2,.85-2.83,1.94-3.92Z" transform="translate(-120.31 -72.41)"/><path d="M675.67,669.38c.64-1,1.64-1.17,2.81-1.38a3.34,3.34,0,0,1-2.9,1.27Z" transform="translate(-120.31 -72.41)"/><path d="M683.81,667.24h0Z" transform="translate(-120.31 -72.41)"/><path d="M517,617.77l-3.08-.62c1.62-.45,2.42-.2,3.05.6Z" transform="translate(-120.31 -72.41)"/><path d="M712.07,675.49c-.44,1.08-1.23,1.12-2.33.91l2.4-.89Z" transform="translate(-120.31 -72.41)"/><path d="M358.32,219.78l-.31.79c-.29-.16-.75-.26-.83-.49s.2-.6.32-.91Z" transform="translate(-120.31 -72.41)"/><path d="M439.86,559.26c.37.57.75,1.13,1.19,1.81-1.26-.24-1.66-.8-1.16-1.85Z" transform="translate(-120.31 -72.41)"/><path d="M332.84,210.25a6,6,0,0,1-.94.49,1.32,1.32,0,0,1-.36-.57,6,6,0,0,1,.88-.69Z" transform="translate(-120.31 -72.41)"/><path d="M675.58,669.27a7.26,7.26,0,0,1-.79.78c-.09.05-.34-.12-.52-.19.08-.1.15-.25.25-.28.38-.09.77-.14,1.15-.2Z" transform="translate(-120.31 -72.41)"/><path d="M471.88,413.49l-.89-1.72c1.2.37,1.34,1,.8,1.79C471.78,413.58,471.88,413.49,471.88,413.49Z" transform="translate(-120.31 -72.41)"/><path d="M638.21,578.3l.51.59c-.18.06-.47.22-.51.17a2.41,2.41,0,0,1-.3-.65Z" transform="translate(-120.31 -72.41)"/><path d="M594.34,509.25c.63-.57,1-.19,1.32.21a1.66,1.66,0,0,1,.15.33c-.21.06-.47.23-.61.16A5.61,5.61,0,0,1,594.34,509.25Z" transform="translate(-120.31 -72.41)"/><path d="M386.82,492.92l-1.31-.06v-.35h1.31Z" transform="translate(-120.31 -72.41)"/><path d="M835.75,500.56c0,.12.13.24.12.35s-.14.19-.21.29c0-.12-.14-.24-.12-.35S835.67,500.66,835.75,500.56Z" transform="translate(-120.31 -72.41)"/><polygon points="307.59 482.75 307.96 482.84 307.66 482.94 307.59 482.75"/><path d="M432.29,556.74l-.65-.4c-.12-.06-.25-.1-.37-.15.18,0,.43-.11.51,0a3.23,3.23,0,0,1,.4.65Z" transform="translate(-120.31 -72.41)"/><path d="M669.26,671.44h1v.08l-1.07-.06Z" transform="translate(-120.31 -72.41)"/><path d="M744.06,550.05l.11-1,.51.19L744,550Z" transform="translate(-120.31 -72.41)"/><polygon points="306.97 225.89 306.88 225.61 307.1 225.65 306.97 225.89"/><path d="M576,598.47c.58.23,1.16.47,1.74.69l.11-.1c-.76.22-1.51.42-1.76-.7Z" transform="translate(-120.31 -72.41)"/><path d="M516.94,617.75l.35-.06-.32.08Z" transform="translate(-120.31 -72.41)"/><path d="M574.5,597.52l1.48,1,.1-.11c-.74.1-1.4.06-1.47-.91Z" transform="translate(-120.31 -72.41)"/><polygon points="554.45 566.79 554.74 566.73 554.67 566.95 554.45 566.79"/><path d="M574.61,597.45a1.16,1.16,0,0,1-1.45-.92h-.06c.46.34.92.68,1.39,1Z" transform="translate(-120.31 -72.41)"/><path d="M573.16,596.53l-.78-.07c.23,0,.45,0,.7.06Z" transform="translate(-120.31 -72.41)"/><polygon points="663.24 439.3 662.94 439.16 663.27 439.05 663.24 439.3"/><polygon points="262.57 343.19 262.63 343.51 262.4 343.45 262.57 343.19"/><path d="M437.28,559.24l-1.21-1.14-.1.11c.75,0,1.24.3,1.2,1.13Z" transform="translate(-120.31 -72.41)"/><path d="M712.14,675.51l.92.06v.11l-1-.18Z" transform="translate(-120.31 -72.41)"/><path d="M436.07,558.1l-1.55-.9-.1.09,1.55.92Z" transform="translate(-120.31 -72.41)"/><path d="M434.52,557.2l-2.21-.47-.13.08c.79-.14,1.61-.29,2.23.49Z" transform="translate(-120.31 -72.41)"/><path d="M439.89,559.22a2.57,2.57,0,0,1-2.6,0l-.12.11c.87,0,1.76,0,2.67-.07Z" transform="translate(-120.31 -72.41)"/><path d="M693.78,431.06l4.39-.75a25.26,25.26,0,0,1,3.64-.57A39.92,39.92,0,0,1,716,431.8a34.81,34.81,0,0,1,11.2,6.78c1.87,1.61,3.64,3.34,5.59,4.85,2.83,2.2,4.33,5.26,5.78,8.38a5.39,5.39,0,0,1,.4,1.59c.34,2.72-.32,4.41-3.72,4.35-10.56-.18-21.12-.19-31.68-.25a29.75,29.75,0,0,0-4.53.13c-10,1.46-20,.91-30,1-2.2,0-4.39.09-6.59.16-13.57.48-27.15.5-40.72,0-1.77-.07-3.56.1-5.33.2-2.6.15-5.21.28-7.8.52a61.9,61.9,0,0,0-6.5.89,12.79,12.79,0,0,1-7.12-.53c-.55-1.37,1-1.23,1.12-2a6.83,6.83,0,0,1,.4-2c2.2-3.6,4.91-6.62,9.35-7.43.8-.15,1.59-.35,2.61-.57.63-1.44,1.33-2.91,1.9-4.43a12.67,12.67,0,0,1,7.93-7.82,74.69,74.69,0,0,1,9.8-3.09c2.21-.46,4.62-.08,6.93,0,1.35.07,2.68.36,4.11.56.85-1.34,1.56-2.5,2.31-3.64A63,63,0,0,1,651,417.69a21.19,21.19,0,0,1,13.74-5.77,50.34,50.34,0,0,1,5.76-.06,16.69,16.69,0,0,1,4.83.88,67.27,67.27,0,0,1,9.38,4.17c4.09,2.34,6.58,6.12,8.06,10.55C693.14,428.49,693.38,429.55,693.78,431.06Zm40.78,22.85c.08-.34.26-.65.18-.86a14.49,14.49,0,0,0-4.5-6.74,36.24,36.24,0,0,1-4-3.49c-2.92-3-6.58-4.91-10.14-7A10.11,10.11,0,0,0,713,434.8c-2.29-.45-4.6-.78-6.9-1.13a20.83,20.83,0,0,0-8.17.38q-1.39.34-2.82.57c-4.57.76-4.66.64-5.54-4-1-5.3-3.66-9.39-8.83-11.55a35.07,35.07,0,0,1-3.35-1.56,16,16,0,0,0-8.69-2.06c-1.36.07-2.74,0-4.11,0a14.9,14.9,0,0,0-6.75,1.6,24,24,0,0,0-8.66,7.43c-2.43,3.14-4.95,6.24-6.65,9.88-1,2.23-2.82,2.83-5.09,2.44-1.49-.26-3-.64-4.46-.8a11.39,11.39,0,0,0-4.07-.06c-3.44.9-6.83,2-10.19,3.18a8.24,8.24,0,0,0-5.09,5.06c-.5,1.28-1.11,2.52-1.5,3.83-.66,2.22-2,3.56-4.38,3.68-4.33.21-6.89,2.81-8.86,6.32.34.22.55.47.75.46a9.89,9.89,0,0,0,2-.25c6.27-1.64,12.74-1.67,19.13-2.33.41,0,.82,0,1.24,0,12.34,0,24.68,0,37-.12,7.54-.07,15.08-.32,22.62-.47a113.72,113.72,0,0,0,13.54-.79,79.53,79.53,0,0,1,10.24-.64c6.72-.08,13.45,0,20.17,0Z" transform="translate(-120.31 -72.41)"/><path d="M652.48,309.93c1.88,5.14,4.91,9.4,7.28,14s5,9.14,7.5,13.82a16.06,16.06,0,0,1,2.29.42,1.44,1.44,0,0,1,.33,2.61c-2.52,1.36-5.09,2.7-8,2.78-.49,0-1.17-.63-1.45-1.14-.17-.32.14-1.11.48-1.42a18.11,18.11,0,0,1,2.27-1.58c-1-3.8-3.52-8.66-9-18.47-3.28-5.83-6.25-11.84-9.43-17.73s-6.6-12-10-18.2l-2.68-.57c.19-.76.17-1.53.54-2a36.9,36.9,0,0,1,4.52-4.74c2.11-1.73,4.47-3.16,6.74-4.68a28.51,28.51,0,0,1,10.61-4.25c4.75-.91,9.44-.36,13.28,2.74a27,27,0,0,1,10,15.6,8.31,8.31,0,0,1-.82,5.94c-3.15,5.91-7.58,10.28-14,12.52C659.3,306.82,656,308.44,652.48,309.93ZM637,281.85a9.13,9.13,0,0,0,1.35,4.08c3.4,5.63,6.74,11.29,10.12,16.93.55.91,1.21,1.76,1.85,2.68a17.32,17.32,0,0,0,2.58-.4c1.43-.44,2.84-1,4.24-1.55s2.77-1.2,4.2-1.64c5.25-1.6,9-5,12-9.47a6.09,6.09,0,0,0,.9-5.42,25,25,0,0,0-8.29-12.49c-3-2.54-6.69-3.1-10.47-2.6C648,272.94,642.45,277.35,637,281.85Z" transform="translate(-120.31 -72.41)"/><path d="M542.1,353.48c.55.94,1,1.78,1.49,2.58,6.73,10.48,13.47,20.95,20.13,31.3a15.45,15.45,0,0,1,2.68,0,1.73,1.73,0,0,1,1.16.94,1.54,1.54,0,0,1-.41,1.41,42.74,42.74,0,0,1-4.67,2.51c-.24.11-1.2-.61-1.16-.72.75-2.21-.76-3.6-1.78-5.17q-10.95-16.9-21.88-33.82c-5.19-8.06-10.29-16.17-15.54-24.43h-2.88c0-.7-.15-1.58.17-1.86a8.91,8.91,0,0,1,3.39-2.18c3.14-.72,5.83-2.33,8.66-3.7a67.2,67.2,0,0,1,9.6-3.63c6.27-1.89,11.32.05,15.63,4.54a22.29,22.29,0,0,1,5.11,8.81,13.31,13.31,0,0,1-.49,9.23,8.5,8.5,0,0,1-2,3,35.13,35.13,0,0,1-8.06,5.63c-2.57,1.28-5.07,2.7-7.57,4.11A10.23,10.23,0,0,0,542.1,353.48Zm-2-3.63c2.86-1.64,5.5-3.38,8.34-4.7a44.74,44.74,0,0,0,7.24-4.63c3-2.17,3.77-5.14,3.14-8.68a16.54,16.54,0,0,0-3.81-7.61c-3.35-4.09-7.45-5.77-12.73-4.51a59.38,59.38,0,0,0-16.4,7.22C527.69,331,537.28,346.59,540.14,349.85Z" transform="translate(-120.31 -72.41)"/><path d="M590.44,300.06c.77-.82,1.2-1.65,1.85-1.89,2.35-.89,4.25-2.49,6.38-3.72,3.08-1.78,6.24-3.42,9.43-5A26.58,26.58,0,0,1,616,287.3c6.39-1,10.93,1.76,14.22,6.9a29.88,29.88,0,0,1,2.92,6.34,11.08,11.08,0,0,1-.54,8.41,20.38,20.38,0,0,1-8.16,9c-3.72,2.32-7.36,4.76-11,7.21-1.11.75-2.09,1.71-3.28,2.7,4.1,10.41,9.75,19.74,16.05,28.91a12.73,12.73,0,0,1,2.32-.42,1.69,1.69,0,0,1,1.33.67,1.56,1.56,0,0,1-.14,1.49,47.7,47.7,0,0,1-4.38,3.66,1.62,1.62,0,0,1-1.51-.16,1.73,1.73,0,0,1-.6-1.39,11.85,11.85,0,0,1,.9-2.28c-1.89-2.73-3.8-5.41-5.63-8.14a139.85,139.85,0,0,1-9.74-17.62c-2-4.2-4.44-8.19-6.61-12.31-2.63-5-5.23-9.94-7.76-15C593.44,303.36,592.86,301.21,590.44,300.06Zm17.87,23.72a2.65,2.65,0,0,0,.76-.19q7.3-4.56,14.6-9.16a15.85,15.85,0,0,0,6-7.11,7.16,7.16,0,0,0,.34-5.6,29.73,29.73,0,0,0-3.07-6.25c-2.48-3.65-5.89-5.76-10.52-4.85a34.46,34.46,0,0,0-7.52,1.93c-3.73,1.69-7.24,3.87-10.81,5.9a28.84,28.84,0,0,0-2.51,1.81C597.35,306.06,604.34,318.93,608.31,323.78Z" transform="translate(-120.31 -72.41)"/><path d="M579.14,342l4.54-2.43a33.18,33.18,0,0,1-.32-3.4,1.27,1.27,0,0,1,1.91-.82,16.14,16.14,0,0,1,4.19,6c.38.9-.69,2-1.68,1.69a19,19,0,0,1-2.3-.95c-1.58.79-3.41,1-4.77,2.47a7.55,7.55,0,0,0,.56,1.54c4.9,7.74,9.83,15.47,14.87,23.39A11.89,11.89,0,0,0,599,368c2.5-2.52,5.64-3.82,8.84-5.09.87-.35,1.68-.86,2.67-1.38a19.38,19.38,0,0,1-.35-2.82,1.48,1.48,0,0,1,2.4-1.12A40.1,40.1,0,0,1,616,362c.44.63-.2,1.82-1,1.92-3.77.45-6.85,2.61-10.18,4.1-2,.88-3.6,2.47-5.47,3.59-3.35,2-4.07,3.56-6.9-1.52-3.73-6.7-8-13.1-12.27-19.47a46.63,46.63,0,0,1-4.43-7.88c-2.67-6.34-6.17-12.23-9.5-18.22a70.94,70.94,0,0,1-4.87-10.62c.34-1.64,1.5-2.2,2.55-2.81,4.27-2.46,8.57-4.87,13.09-7.44a17.69,17.69,0,0,1,.55-2.08,1.17,1.17,0,0,1,2-.44c1.56,2.23,3,4.52,4.47,6.85.17.29-.14,1.07-.46,1.42a1.22,1.22,0,0,1-1.83-.09c-.85-.87-1.58-1.85-2.33-2.73-3.33.9-11.77,5.42-15.35,8.23A18.08,18.08,0,0,0,565,317c2.11,3.69,4.31,7.33,6.39,11,2.28,4.06,4.46,8.17,6.69,12.26C578.31,340.72,578.62,341.17,579.14,342Z" transform="translate(-120.31 -72.41)"/><path d="M847.93,360.32l-13.14,4.23a14.79,14.79,0,0,0,.19,2.27c.68,2.8,1.41,5.58,2.17,8.36q2,7.13,4,14.25a13.37,13.37,0,0,0,.57,1.35c.6-.1,1.24-.16,1.85-.32,1.84-.49,3.68-1,5.8-1.62a9.6,9.6,0,0,1,.79-1.06c.84-.89,1.91-1,2.4-.13a30.19,30.19,0,0,1,2.06,4.43c.31.87-1.06,2.07-1.82,1.58-3.64-2.32-6.74-.24-10.22.7a23.18,23.18,0,0,0,.41,3.12c.95,3.43,2,6.84,3,10.27.61,2.09,1.08,4.24,1.8,6.29.62,1.79,1.5,3.48,2.24,5.15,3.77-.75,4.7-1.31,7.19-3.64A6.46,6.46,0,0,1,860,414a21.1,21.1,0,0,0,7-3.47,21.9,21.9,0,0,1,.54-2.75c.32-.94,1.85-1.3,2.39-.49a46.82,46.82,0,0,1,3.21,5.64c.39.79-1,2.17-1.71,1.74-2.61-1.5-4.34-.07-6.24,1.4-1.49,1.14-3.17,2-4.68,3.19-2.76,2.26-6.33,3.17-9.72,4.24a2.29,2.29,0,0,1-2.77-1.28,32,32,0,0,1-1.47-3.4,159.16,159.16,0,0,1-7.33-25.24,140.86,140.86,0,0,0-4.34-17.13,63.41,63.41,0,0,1-2.54-12.06c-.26-2,0-2.47,1.8-3.08,3-1,6-2,9-3,1.54-.53,3.06-1,3.54-3,.26-1.13,2-1.13,2.65-.06,1.11,1.73,2.14,3.51,3.1,5.32a1.58,1.58,0,0,1-.6,2.16,1.65,1.65,0,0,1-2.2-.45C849,361.66,848.52,361,847.93,360.32Z" transform="translate(-120.31 -72.41)"/><path d="M788.45,377.92a21.74,21.74,0,0,1,1.71-2.22,1.27,1.27,0,0,1,1.85,0c1.18,1.16,1.21,2.7,1.17,4.21,0,1.24-.09,2.51-1.45,3.15a3.44,3.44,0,0,1-.61.15l-2.49-2c-3.58.12-7.27.29-11,.35-3.53.07-7.07,0-10.8,0-.67,3.59,0,7-.35,10.37a33.89,33.89,0,0,0,.1,9.85c.39.19.74.51,1.09.52a46.44,46.44,0,0,1,9.41.74c1.48.35,2.55-.33,3.56-1.46.86-1,2.14-.47,2.55.77.65,2,.45,3-1,5a13.28,13.28,0,0,0-3-1.07c-4.06-.48-8.13-.8-12.23-1.18-1.33,2.34-.83,4.71-1,7s-.17,4.65-.2,7,0,4.64,0,7.1a14.64,14.64,0,0,1,2.48,1.42,2.55,2.55,0,0,1,.88,1.7c0,.74-.72,1.13-1.45,1.16-1.91.07-3.82.13-5.74.11a1.79,1.79,0,0,1-1.88-1.29c-.22-.94.41-1.51,1.21-1.89.36-.18.7-.42,1.1-.66,0-2.18,0-4.37,0-6.55,0-6.3-.1-12.6-.12-18.9a17.21,17.21,0,0,1,.28-2.86,80,80,0,0,0,1.16-14.74,17.54,17.54,0,0,1,.05-2.05,3.42,3.42,0,0,1,3.1-3.3,8.72,8.72,0,0,1,2-.08C775.41,378.75,781.8,377.29,788.45,377.92Z" transform="translate(-120.31 -72.41)"/><path d="M914.67,378.31c-7.59-12.68-15.6-24.88-23.47-37.47-1.48.77-2.75,1.5-4.1,2.06a1.08,1.08,0,0,1-1.14-1.82c1.13-1,2.27-2.2,3.62-2.62,5.6-1.75,11.31-2.6,16.78.36a36.26,36.26,0,0,1,6,4.31,26.69,26.69,0,0,1,7.46,9.18,32.8,32.8,0,0,1,2.07,5.77c.71,2.92,1.25,5.9,1.68,8.88a11.5,11.5,0,0,1-2.92,9.89c-1.57,1.71-3.1,3.46-4.76,5.08a5.8,5.8,0,0,1-2.44,1.42,1.63,1.63,0,0,1-1.66-2.54A22.39,22.39,0,0,1,914.67,378.31Zm2.09-2.25c3.54-2.88,4.73-6.08,3.8-10.1-.55-2.4-.92-4.83-1.33-7.26A16.09,16.09,0,0,0,917,353c-3.18-5.13-7.74-8.79-12.77-11.87-3-1.87-6.43-1.63-10.17-.76C901.71,352.37,909.13,364,916.76,376.06Z" transform="translate(-120.31 -72.41)"/><path d="M939.64,321.9c2.53,1.54,3.2,3.8,3.26,6.34a1.26,1.26,0,0,1-1.86.9,7.07,7.07,0,0,1-.82-.9c-.29-.28-.6-.53-.87-.76-8.08,1-11.63,5.84-10.7,14.71a8.74,8.74,0,0,0,2.47.88c2.86.17,5.74.18,8.61.2a18.43,18.43,0,0,0,2.87-.25c3-.47,4.95.86,6.41,3.38a15,15,0,0,1,1.87,9.11A8.76,8.76,0,0,1,948,360.8a22.57,22.57,0,0,1-9,5.54c-1.65.55-3.42.79-4.62,2.38-.56.75-1.91.35-2.43-.54a7.4,7.4,0,0,1-1.07-4.73c.2-1.61,1.56-2.13,3-1.09a13.39,13.39,0,0,1,1.18,1.1A21.89,21.89,0,0,0,945,358.94a8.29,8.29,0,0,0,.42-12.33,2.66,2.66,0,0,0-2.67-.56,36.18,36.18,0,0,1-10.64.52,22.24,22.24,0,0,1-4.4-.93A3.7,3.7,0,0,1,925,342a19.06,19.06,0,0,1,3.55-12.8,12.06,12.06,0,0,1,6-4.15,17.61,17.61,0,0,0,3.09-1.07A11.24,11.24,0,0,0,939.64,321.9Z" transform="translate(-120.31 -72.41)"/><path d="M867,351c2.46,5,4.82,9.78,7.18,14.55s4.92,9.79,7.25,14.74,4.32,9.7,6.5,14.63c5.45-1.46,9.19-5.08,13.27-8.17a27.62,27.62,0,0,1-.68-3.29,1.39,1.39,0,0,1,2.08-1.15,4.44,4.44,0,0,1,1.19,1.09,41.81,41.81,0,0,1,2.32,3.85c.22.42,0,1,0,1.82-3.4.53-5.75,2.86-8.46,4.66a77.88,77.88,0,0,1-8.65,4.63,2.08,2.08,0,0,1-2.84-.93,26.63,26.63,0,0,1-1.77-3.23c-2.78-6.1-5.51-12.23-8.28-18.33q-3.74-8.22-7.55-16.41c-.75-1.62-1.63-3.17-2.49-4.73s-1.55-3.23-3.81-3.24c-.37,0-1-1-1-1.52a2.06,2.06,0,0,1,1.11-1.5,16.66,16.66,0,0,1,3.93-1.05c1.43-.19,2.11,1.06,1.41,2.45A11,11,0,0,1,867,351Z" transform="translate(-120.31 -72.41)"/><path d="M808.75,377.38c-.45-.32-.79-.55-1.11-.79-1.35-1-1.41-2.14-.09-2.74a6.67,6.67,0,0,1,5.92-.28,1.41,1.41,0,0,1,.21,2.58,18.39,18.39,0,0,1-1.87,1.05c.07,1.42.14,2.78.2,4.13q.24,6,.46,11.89a17.42,17.42,0,0,0,.06,2c.93,6.26.69,12.56.7,18.85a76.81,76.81,0,0,0,1,12.76,16.75,16.75,0,0,1,2.37.62,1.56,1.56,0,0,1,.24,2.7,10.28,10.28,0,0,1-6.3,1.33,1.49,1.49,0,0,1-.9-2.5,15.09,15.09,0,0,1,1.53-1.42c-.24-3.78-.48-7.6-.72-11.41,0-.41-.11-.82-.1-1.23.25-7.39-.46-14.74-.85-22.11C809.24,387.81,809,382.76,808.75,377.38Z" transform="translate(-120.31 -72.41)"/><path d="M226.11,562.59l9.82-6.24a23.71,23.71,0,0,0-1.32-3.09c-3.55-5.86-7.26-11.63-10.68-17.56-.8-1.4-2.5-1-3.23-2.49.85-2.1,2.67-3.3,4.51-4.41a1.69,1.69,0,0,1,1.5.19,1.72,1.72,0,0,1,.56,1.39,14,14,0,0,1-1,2.49c.85,1.44,1.71,3,2.65,4.48,2.77,4.41,5.64,8.76,8.34,13.22,1.77,2.92,3.23,6,5,9,3.09,5.17,6.33,10.26,9.46,15.41a4.59,4.59,0,0,0,3.37,2.6c2.06.36,2.41,2.33.8,3.61a19.83,19.83,0,0,1-3.12,2c-1,.55-2.64-.15-2.5-1.23.37-2.94-1.47-4.89-2.78-7.07-3-4.91-6-9.76-9.14-14.75-3.94,1.45-7,4.07-10.52,5.76a7.91,7.91,0,0,0,1.71,4.23c2.27,3.6,4.61,7.15,6.91,10.72.74,1.15,1.51,2.29,2.17,3.49a5.66,5.66,0,0,0,2.44,2.64,1.57,1.57,0,0,1,.56,2.68,21,21,0,0,1-3.46,2.85,2,2,0,0,1-1.86-.18,1.93,1.93,0,0,1-.57-1.76c1.21-2.57-.17-4.47-1.45-6.4-2.49-3.78-5-7.52-7.54-11.28A17.91,17.91,0,0,1,225.1,570c-3.73-8.76-9.24-16.49-14.08-24.6a3.35,3.35,0,0,0-2.63-1.59c-1.68-.33-2-2-.66-3a29.49,29.49,0,0,1,3.74-2.52c1.15-.66,2.49.13,2.18,1.35-.53,2.11.29,3.69,1.34,5.35,3.29,5.22,6.51,10.48,9.76,15.71C225.1,561.26,225.52,561.78,226.11,562.59Z" transform="translate(-120.31 -72.41)"/><path d="M227.67,589.94c-.7-1.56-1.28-2.65-1.68-3.8a1.53,1.53,0,0,1,.87-2,3.45,3.45,0,0,1,1.92.14,1.93,1.93,0,0,1,.91.8c1.33,1.9,2.65,3.82,3.94,5.75a6.17,6.17,0,0,1,.67,1.48c.56,1.77-.83,3.27-2.36,2.74-.51-.17-1-.32-1.38-.43-3.17,1.67-6.12,3.4-9.23,4.8a17.34,17.34,0,0,1-16.17-.53c-4.47-2.47-8.64-5.28-11.18-10a35.21,35.21,0,0,1-4-12.85c-.85-7.19-.49-14.22,3.18-20.75,1.36-2.42,2.85-4.67,5.4-6a8.5,8.5,0,0,0,1.29-1,11.82,11.82,0,0,1-.72-2.77,2.36,2.36,0,0,1,1-1.59c.33-.24,1-.06,1.52.08a1.85,1.85,0,0,1,1,.73q2.3,3.89,4.51,7.8a1.06,1.06,0,0,1,.12.79c-.17.49-.35,1.12-.73,1.35a1.61,1.61,0,0,1-1.51,0,21.39,21.39,0,0,1-2.15-2.4c-4.52,1.81-7.21,4.74-8,9.35a53.1,53.1,0,0,0-1.16,10.6,31.48,31.48,0,0,0,3.44,13.41,13.85,13.85,0,0,0,2.85,4,52.52,52.52,0,0,0,6.78,5.29,9.05,9.05,0,0,0,4.58,1.59C217.48,596.5,223.09,594.76,227.67,589.94Z" transform="translate(-120.31 -72.41)"/><path d="M273.1,511.36c-1.26-.2-2.07.53-2.88-.19a3,3,0,0,1,1.24-3.19c1-.7,2-1.39,3.1-2a1.49,1.49,0,0,1,1.89,0,1.39,1.39,0,0,1,.27,1.85c-.31.6-.73,1.13-1.2,1.86.89,1.57,1.77,3.1,2.65,4.62a183.38,183.38,0,0,0,13.46,20.14c3.24,4.23,6.2,8.69,9.3,13,.39.54.84,1,1.42,1.76l7.3-4.15c.11-.69.17-1.35.32-2,.34-1.52,1.7-2.16,2.65-1.13a25.63,25.63,0,0,1,3.11,4.27,2.21,2.21,0,0,1-.33,1.85,1.81,1.81,0,0,1-1.46.36,10.71,10.71,0,0,1-2-.74c-2.87,2.06-6.39,3-9.11,5.44a1.57,1.57,0,0,1-2.67-.69c-1.16-2.68-3-4.87-4.7-7.21-3.67-5.11-7.39-10.2-10.86-15.45s-6.68-10.67-10-16C274.08,513,273.59,512.18,273.1,511.36Z" transform="translate(-120.31 -72.41)"/><path d="M252.75,518.89a16,16,0,0,1,2-2.57,2.29,2.29,0,0,1,1.88-.26c.77.21.91,1,.53,1.68-.64,1.17-.13,2.1.44,3.06,2.15,3.66,4.34,7.3,6.46,11,2.33,4,4.69,8.06,6.84,12.18,1.65,3.16,3,6.46,4.48,9.71a25.86,25.86,0,0,0,5,7.28c1.3-.68,2.59-1.38,3.9-2s2.72-1.24,4.2-1.91a17.56,17.56,0,0,1-.48-2.84,1.7,1.7,0,0,1,.85-1.25,1.61,1.61,0,0,1,1.48.12c1.36,1.68,2.66,3.42,3.86,5.23a1.35,1.35,0,0,1-1.08,1.84c-4.42-.43-7.81,1.76-11.1,4.26-1.25,1-2.31.91-3.21-.29a66.94,66.94,0,0,1-5-7.06c-1.69-3-3-6.15-4.46-9.25-.47-1-.9-2-1.43-3q-3.9-7-7.85-14c-1.81-3.21-4.11-6.14-5.53-9.59A11.55,11.55,0,0,0,252.75,518.89Z" transform="translate(-120.31 -72.41)"/><path d="M296,498.12l-3.49-.37a6.81,6.81,0,0,1,5-3.94c.4.31.78.47.79.63a8.81,8.81,0,0,0,1.9,4.87q6.21,8.94,12.42,17.88a121.24,121.24,0,0,1,11.37,19,5.52,5.52,0,0,0,.81,1,21,21,0,0,1,2.6-1,1.57,1.57,0,0,1,2,1,2.8,2.8,0,0,1-.23,1.9,4.58,4.58,0,0,1-1.46,1.41c-1.58,1.07-3.2,2.1-4.82,3.11a1.32,1.32,0,0,1-1.85-.09c-.31-.38-.65-1.18-.47-1.45,2-3.16.26-5.8-1.19-8.35-2.58-4.51-5.25-9-8.13-13.31C306.32,513,301.22,505.72,296,498.12Z" transform="translate(-120.31 -72.41)"/><path d="M238.4,526.85l-2.88-.7c.1-.51,0-.88.2-1a24.55,24.55,0,0,1,3-2.08,1.54,1.54,0,0,1,1.46.14c.29.26.3.95.25,1.44a4.34,4.34,0,0,1-.6,1.21c.69,2,2.16,3.69,3.39,5.48.84,1.24,1.65,2.51,2.44,3.79,1.5,2.44,2.94,4.92,4.48,7.34,1.69,2.65,3.6,5.17,5.16,7.89,2.33,4,4.39,8.21,6.65,12.28,1.4,2.5,3,4.91,4.54,7.49a10.5,10.5,0,0,1,2.35.28,2.32,2.32,0,0,1,1.43,1.18,2.06,2.06,0,0,1-.56,1.79,15.61,15.61,0,0,1-3.62,1.89c-2,.71-3.11-.2-2.84-2.35a3.26,3.26,0,0,0-.43-2.31c-4.67-7.43-8.45-15.34-12.54-23.08-1.34-2.53-3.11-4.83-4.66-7.25a10.57,10.57,0,0,1-1.21-2.14,33.46,33.46,0,0,0-4.06-7.57A39.18,39.18,0,0,1,238.4,526.85Z" transform="translate(-120.31 -72.41)"/><path d="M935,225c-3.31-.08-5.55-1.85-6-4.24-.59-3,.41-5.25,3-6.54.48-.24,1-.37,1.53-.57,3.29-1.3,5.8-.57,6.94,2,1.54,3.47.55,7-2.51,8.48A14.11,14.11,0,0,1,935,225Zm2.53-5.91a2.85,2.85,0,0,0-3.26-2.81,2.79,2.79,0,0,0-2.66,3,2.55,2.55,0,0,0,2.57,2.58C936.17,221.84,937.58,220.69,937.57,219.05Z" transform="translate(-120.31 -72.41)"/><path d="M942.71,225.74a1.38,1.38,0,0,1,.3,2c-1.91,2.6-7.56,4.18-10.43,2.92a4.31,4.31,0,0,1-1.25-1,.76.76,0,0,1-.16-.72c.19-.3.6-.75.82-.7,3.62.81,6.69-.62,9.73-2.26A4.66,4.66,0,0,1,942.71,225.74Z" transform="translate(-120.31 -72.41)"/><path d="M395.68,290.86a11.12,11.12,0,0,1-6.5,10.22,8.59,8.59,0,0,1-9.3-.72,9,9,0,0,1-3.78-8.59,12.21,12.21,0,0,1,6.89-10c4.92-2.61,11.49,1,12.5,6.75C395.61,289.16,395.61,289.85,395.68,290.86Z" transform="translate(-120.31 -72.41)"/><path d="M392.19,305.84c.79,1.7,1.6,3.38,2.32,5.1.1.23-.22.7-.45,1a.75.75,0,0,1-.71-.12C392.14,310,391,308.25,392.19,305.84Z" transform="translate(-120.31 -72.41)"/><path d="M378.38,273.55c.62.21.78.22.86.3.91.95,2,1.83,1.64,3.38,0,.14-.56.34-.67.26A4.16,4.16,0,0,1,378.38,273.55Z" transform="translate(-120.31 -72.41)"/><path d="M389.74,275.66a4,4,0,0,1-.66.71c-.09.06-.49-.13-.57-.29-.23-.46.27-1.14.72-1C389.4,275.13,389.52,275.39,389.74,275.66Z" transform="translate(-120.31 -72.41)"/><path d="M383.57,308.45l-.58.85c-.18-.26-.53-.54-.5-.77s.39-.53.61-.8Z" transform="translate(-120.31 -72.41)"/><path d="M373.17,283.28c-.2.27-.41.62-.46.6a6,6,0,0,1-.91-.53l.54-.76Z" transform="translate(-120.31 -72.41)"/></g></svg>