<?xml version="1.0" encoding="utf-8"?>
<!-- Generator: Adobe Illustrator 24.2.0, SVG Export Plug-In . SVG Version: 6.00 Build 0)  -->
<svg version="1.1" id="chilli-trippy" xmlns="http://www.w3.org/2000/svg" xmlns:xlink="http://www.w3.org/1999/xlink" x="0px"
	 y="0px" viewBox="0 0 952.2 677.6" style="enable-background:new 0 0 952.2 677.6;" xml:space="preserve">
<style type="text/css">
	.st0{fill:#D01417;}
	.st1{fill:#4FAE32;}
	.st2{fill:#FFE900;}
	.st3{fill:#FFFDED;}
	.st4{fill:#EB5E93;}
	.st5{fill:#4AA9DF;}
	.st6{fill:#A64895;}
	.st7{fill:#EB7606;}
</style>
<g id="chilli-colors">
	<path class="st0" d="M267.1,158.9l-31.4-6.9l-6.9-1.5l-24.5,5.4l-14.5,4.6l-26,3.8l-32.9,19.1l-18.4,26.8l-8.4,17.6l6.9,36
		l4.6,23.8l11.5,25.3l7.7,19.1l12.3,16.1l6.9,15.3l19.1,3.1l14.5,13l3.8,8.4l4.6,5.4l9.2,26l8.4,36.8l15.3,15.3l8.4,5.4l11.5,14.5
		l9.2,6.1c0,0,13.8,27.6,31.4,34.5l15.3,3.1l26,18.4l20.7,10l19.9,10.7l23,10.7l13.8,6.1c0,0,18.4,3.8,26,9.2l34.5,6.1
		c0,0,5.4,0,26.8,5.4l14.5,2.3c6.5,5.8,15.2,8.3,23.8,6.9l32.9-13c0,0,9.2,7.7,43.7-15.3l40.6-18.4c0,0,31.4-29.1,39.8-34.5
		l-3.8-3.1l-40.6,3.8c0,0,8.4-18.4,30.6-14.5c0,0,11.5-26,39.1-16.1l10.7-19.2l10.7-26.8c0,0,6.9-9.2,5.4-20.7l2.3-29.9l3.1-30.6
		l-4.6-24.5l-23,6.9l-18.4,3.8h-26c0,0-0.8,16.1-1.5,14.5s-8.4,11.5-10,17.6c0,0-42.1,23.7-49.8,37.5c0,0-7.3,10.1-13.2,11.6
		c-0.9,0.3-2,0.3-2.9-0.1c-6.1-2.3-30.6,9.2-116.4-32.2l-42.1-21.5l-37.5-29.9l-15.3-15.3l-16.8-21.5c0,0-6.1-13.8-13.8-17.6
		c0,0,5.4-7.7-5.4-10.7l-6.1,3.8c0,0-37.5-30.6-31.4-61.3l11.5,1.5c-1.9-5.3-5.4-9.8-10-13c0,0-6.9-42.1-11.5-47.5
		C303.9,184.9,285.5,158.1,267.1,158.9z"/>
	<path class="st1" d="M174.4,161.2l15.3-0.8c0,0,22.2-9.2,39.1-10l13.8,1.6l24.5,6.9c0,0,6.9,1.5,6.9-4.6l-10.7-5.4
		c0,0-13-6.9-18.4-6.1c0,0-6.1-13-15.3-4.6L222.7,93c-1.9-9-5.6-17.6-10.7-25.3c0,0-6.1-24.5-13.8-34.5l-7.7-6.1L179,16.4L149.9,1.9
		c0,0-15.3-6.1-19.9,13c0,0-4.6,10-10,19.9c0,0-7.7,11.5,16.1,5.4l4.6-1.5c0,0,13,1.5,19.1,13c0,0,6.9,2.3,9.2,7.7
		c0,0,9.2,12.3,16.9,34.5c0,0-4.6,20.7,2.3,32.2c0,0-6.9,17.6-4.6,28.3C183.6,154.3,172.1,152.8,174.4,161.2z"/>
	<path class="st1" d="M382,408.6c0,0-39.1-25.3-55.9,29.9c0,0-6.9,47.5,71.2,43.7l72.8-12.3l-19.2-47.5c0,0-16.8-46-26-51.3
		c0,0-28.3-17.6-44.4,18.4C380.5,389.5,376.6,395.6,382,408.6z"/>
	<path class="st2" d="M208.1,283.8c0,0-21.4,40.6,29.1,79.7c0,0,1.5-3.8,20.7-10C257.9,353.5,246.4,279.9,208.1,283.8z"/>
	<path class="st2" d="M325.3,245.5l-11.5-1.5c0,0-11.5,24.5,31.4,61.3l6.1-3.8C351.4,301.4,349.1,267.7,325.3,245.5z"/>
	<path class="st2" d="M100.1,369.5c0,0,6.1,15.3,21.4,32.2l14.5,29.1c0,0,47.5-18.4,54.4-45.2c0,0-12.3-26.8-47.5-20.7l-25.3,5.4
		L100.1,369.5z"/>
	<path class="st2" d="M408.8,181.9c0,0-10,10.7-36,13c0,0-49,19.1-30.6,39.8c0,0,26,17.6,79.7-6.1l3.1-0.8
		C424.9,227.8,418,227.8,408.8,181.9z"/>
	<path class="st2" d="M717.5,174.2c0,0-0.8,5.4-42.9,19.2c0,0-72.8,16.9-77.4,57.4c0,0-11.5,30.6,46.7,41.4l6.9,0.8
		c0,0,0-10.7,34.5-20.7c0,0,29.1-13.8,34.5-22.2c-0.7-6.5-2-12.9-3.8-19.1C712.4,212.1,712.9,192.8,717.5,174.2z"/>
	<path class="st3" d="M251,176.5c0,0-25.3,46,30.6,88.1C281.6,264.6,297,219.4,251,176.5z"/>
	<path class="st3" d="M191.3,387.9c0,0,1.5,19.9-82.7,56.7c0,0-79.7,32.2-101.9,114.9l-4.6,20.7l24.5-20.7c0,0,20.7-19.2,32.9-19.2
		c0,0-25.3,27.6-27.6,47.5l-4.6,36c0,0-1.5,27.6-20.7,51.3c0,0,28.3-7.7,44.4-52.1c0,0,22.2-61.3,57.4-84.3c0,0,49-29.9,83.5-42.1
		c0,0,17.6-13,23-19.1C215,477.5,208.1,414.7,191.3,387.9z"/>
	<path class="st3" d="M303.9,187.2c0,0,7.7,16.1,9.2,29.1c0,0,0,16.1,10,24.5l7.7,10l12.3,33.7l11.5,18.4c0,0,12.3-23,21.5-23
		l27.6,37.5c0,0,11.5,26.8,35.2,23l90.4-46c0,0,48.3-23.7,68.2-24.5c0,0-12.3-48.2,49.8-66.6c12.4-6.1,25.5-10.8,39.1-13.8
		c0,0,53.6-13.8,22.2-36c0,0-59.7-41.4-181.5,31.4l-101.9,42.9c0,0-69.7,29.1-85.8,1.5c0,0-9.2-23,50.6-37.5c0,0,39.1-13,15.3-34.5
		C405,157.4,347.5,133.6,303.9,187.2z"/>
	<path class="st3" d="M133.1,328.9c0,0-45.2,21.5-32.9,40.6c0,0,12.3,2.3,23.8-1.5c0,0,28.3-4.6,29.9-4.6s-6.9-15.3-6.9-15.3
		L133.1,328.9z"/>
	<path class="st3" d="M600.3,273.8l14.6,32.9c0,0,0.8,23.7,0,30.6c0,0-1.5,29.1,61.3,31.4c0,0,37.5,4.6,78.1-18.4l68.9-44.4
		c0,0,47.5-36.8,94.2-26l30.6,4.6c0,0-62-47.5-136.3-41.4c0,0-30.6-4.6-106.5,29.9c0,0-42.1,26-76.6,17.6L600.3,273.8z"/>
	<path class="st1" d="M246.4,206.4c0,0,7.7-16.9,23-8.4c0,0,14.5,13.8,13.8,39.1c0,0-6.9,13.8-24.5,6.9
		C258.7,243.9,245.6,220.2,246.4,206.4z"/>
	<polygon class="st4" points="272.5,259.2 283.2,253.1 281.7,264.6 	"/>
	<path class="st4" d="M247.2,186.5c0,0,6.9-6.9,14.6-3.1l-10.7-6.9L247.2,186.5z"/>
	<path class="st0" d="M773.4,189.5c0,0-10,25.3-33.7,35.2c0,0,37.5,0,66.6-18.4c0,0,11.5,21.4,34.5,6.1c0,0,18.4,3.8,23.8,0
		c0,0-13.8-7.6-18.4-19.9c0,0-0.8-12.3-8.4-13c0,0,15.3-19.1,6.1-32.2c0,0-17.6-23-44.4-2.3c0,0,0-4.6-35.2-5.4
		c0,0-16.1-4.6-20.7-15.3c0,0-7.7,14.6,15.3,27.6C758.9,152,743.5,170.4,773.4,189.5z"/>
	<path class="st2" d="M830.9,137.5l8.4-19.2l2.3,19.9l13.1-1.5l-10.7,10.7C843.9,147.4,835.5,147.4,830.9,137.5z"/>
	<path class="st2" d="M817.1,142.8c0,0-13.8,3.1-1.5,7.7C815.5,150.5,822.4,148.2,817.1,142.8z"/>
	<path class="st5" d="M190.5,612.3l251.2-10l-21.5-8.4c0,0-43.7-12.3-60.5-26.8l-42.1-21.5l-13-10.7l-15.3-3.1
		c0,0-26.8,11.5-30.6,39.1C258.7,571,205.1,562.6,190.5,612.3z"/>
	<path class="st5" d="M475.5,387.2l79.7-2.3l59.8-0.8l1.5-3.8l-9.2-10.7c0,0-12.3-16.9-35.2-8.4c0,0-3.8-19.9-24.5-19.9
		c0,0-17.6-1.5-28.3,22.2c0,0-26-6.1-29.9,14.5C489.2,378,479.3,374.9,475.5,387.2z"/>
	<path class="st6" d="M646.3,540.3l104.2-8.4c0,0-8.4-13.8-23.7-11.5c0,0-21.5-33.7-49.8,5.4C676.9,525.8,656.2,518.1,646.3,540.3z"
		/>
	<path class="st6" d="M39.6,296.8l41.4-2.3l37.5,0.8l-6.9-17.6l-0.8-13.8c0,0-19.1-9.9-36,18.4C74.9,282.2,53.4,273,39.6,296.8z"/>
	<path class="st7" d="M244.1,116l87.3-3.1c0,0-7.7-7.7-14.5-3.1c0,0-3.8-18.4-22.2-5.4c0,0-15.3-22.2-31.4,1.5
		C263.3,106.1,241.1,106.1,244.1,116z"/>
	<path class="st7" d="M545.9,643l126.4-6.1c0,0-16.1-22.2-41.4-17.6c0,0-22.2-30.6-52.1,10.7C578.9,630,562.8,616.9,545.9,643z"/>
	<path class="st3" d="M124.6,309c0,0-5.4,17.6,6.1,15.3L124.6,309z"/>
	<path class="st3" d="M241.1,495.2c0,0,0,9.2-3.8,24.5c0,0-1.5,13,11.5,10.7c0,0,1.5-15.3-1.5-21.5
		C247.2,508.9,246.4,485.2,241.1,495.2z"/>
	<path class="st3" d="M472.4,620c0,0-4.6,18.4,1.5,19.2C473.9,639.2,477.8,629.2,472.4,620z"/>
</g>
<g id="chilli-outline">
	<path d="M322.7,244.5c0.8-2.3-0.6-3.9-1.9-5.5c-0.6-0.6-1.2-1.1-1.9-1.6c-2.9-2.4-4.9-5.7-5.6-9.3c-0.5-2.6-0.9-5.1-1.2-7.7
		c-0.4-5.6-1.6-11.1-3.6-16.4c-1-2.4-1.6-4.9-2.4-7.4c-1.7-5.7-4.6-10.9-8.4-15.5c-2.8-3.4-5.5-6.8-8.3-10.2
		c-0.7-0.8-1.5-1.6-2.4-2.3c-4.7-3.7-9.8-6.5-15.8-7.5c-1.1-0.2-2.5-0.2-3.3-1.5c0.3-1.5,1.9-0.6,2.9-1.7l1.1-2.6
		c-0.3-0.4-0.5-0.9-0.8-1c-2.8-0.8-5.4-2-7.7-3.7c-3-1.9-6.3-3.4-9.5-5c-1.7-0.9-3.6-1.4-5.5-1.4c-0.4,0-0.8,0-1.2-0.1
		c-3-0.5-5.5-1.7-6.7-4.7c-0.6-1.6-1.5-2.8-3.5-3c-2.3-0.2-4.4-0.1-6,1.9c-0.3,0.3-0.4,0.7-0.7,1c-1.8,2.4-2.2,2.5-6.3,1.9
		c1.1-0.3,1.9-0.5,2.6-0.7c2.3-0.8,3.4-2.4,3-4.7c-0.9-4.8-1-9.8-2.9-14.5c-0.6-1.6-0.5-3.5-0.9-5.3c-1.3-7.3-2.7-14.6-4.1-21.8
		c-0.5-2.7-1-5.4-1.8-8c-1.9-6.4-4.5-12.4-9-17.4c-0.9-1-1.4-2.4-1.3-3.8c0.1-3.6-0.8-7.1-2.5-10.2c-3.3-6.8-6.5-13.6-9.8-20.6
		l-2.9,1c-0.5-0.2-0.9-0.5-1.3-0.8c-2.7-3.1-5.6-6.1-8.1-9.3c-1.8-2.4-4-4.6-6.3-6.4c-5.2-4.2-11.1-7.6-17.4-9.9
		c-4.7-1.6-9.2-3.5-13.9-5.2c-1.3-0.5-2.6-0.8-4-0.9c-5.6,0.1-8.8,1.3-11.3,7.7c-1,2.7-1.9,5.4-2.5,8.3c-0.7,3.1-2.1,5.9-4,8.4
		c-1.9,2.7-3.6,5.5-5.4,8.3c-0.2,0.4-0.4,0.7-0.5,1.1c-0.8,2.3,0,3.7,2.4,4.2c2,0.5,4.1,0.5,6.1,0.1c3-0.8,6.2-1.1,8.9-2.9
		c1.4-1,3.2-1.1,4.7-0.2c2.3,1.3,4.7,2.3,7.2,2.9c3.4,1,6.5,3.1,8.6,6c2.1,2.7,4.6,5.1,7.5,7c4.1,2.8,6.7,6.9,9.1,11
		c2.4,4,4.3,8.3,5.8,12.7c1,3,2.2,5.9,3.6,8.7c2.1,4.2,2.6,8.6,2.5,13.2c0,4.8-0.4,9.6-0.4,14.4c0.1,1.9,0.4,3.8,0.9,5.6
		c0.3,1.2,0.7,2.4,1.2,3.5c1,2.7,1,5.7-0.1,8.5c-0.7,1.9-1.4,3.9-2.1,5.8c-1.7,4.5-2.3,9.4-1.6,14.2c0.1,0.6,0.3,1.2,0.5,1.9
		c0.9-0.1,1.8-0.2,2.7-0.5c3.8-1.3,7.5-2.7,11.2-4c0.8-0.1,1.5-0.2,2.3-0.2c-1.3,1.9-2.9,2.3-4.4,2.9c-2.8,1.2-5.5,2.4-8.4,3.3
		c-2.5,0.8-5,1.3-7.6,1.9c-1.5,0.4-2.9,0.7-4.3,1.2c-0.5,0.2-0.8,0.7-0.8,1.2c0,0.4,0.6,0.7,1.1,1c0.3,0.1,0.5,0.1,0.8,0.1
		c5.3-0.6,10.7-0.6,15.9-2.1c4.3-1.3,8.7-2.5,13-3.7c1.5-0.4,2.9-0.6,4.4-1c4.7-1,9.4-1.9,14.1-2.9c2.4-0.5,4.9-0.6,7.4-0.2
		c2.2,0.4,4.3,0.6,6.5,0.8c2.7,0.1,5.4,0.6,8,1.6c4.9,1.7,9.9,3.1,15,4.2c1.3,0.4,2.6,0.8,3.8,1.4c0.2,0.1,0.4,0.8,0.3,1.1
		c-0.2,0.3-0.5,0.5-0.9,0.6c-0.7-0.1-1.3-0.2-2-0.4c-6-1.3-12-2.9-17.8-4.9c-2.2-0.8-4.5-1.2-6.8-1.3c-2.1-0.1-4.1-0.3-6.1-0.7
		c-3.8-0.7-7.4,0-11,0.7s-7.2,1.7-10.9,2.2c-6.8,0.9-13.4,2.6-19.8,5.1c-1,0.4-2.1,0.6-3.2,0.8c-3.1,0.4-6.3,0.4-9.4,1
		c-4,0.9-8,1.7-12,2.2c-2.1,0.3-4,1.8-6,2.6c-5.9,2.2-11.5,5.2-16.6,8.9c-1.2,0.9-2.4,1.9-3.6,2.8c-1.7,1.6-3.6,3-5.5,4.3
		c-4.4,2.6-7.4,6.4-10,10.7c-2.2,3.6-4.4,7.3-6.6,10.9c-2.9,4.7-5.7,9.4-8.5,14c-4.1,6.8-4.8,14.2-3.4,21.9
		c0.7,4.2,1.7,8.3,2.6,12.5c0.3,2,0.8,4,1.5,6c1.7,4.2,2.2,8.7,3,13.1c0.1,1.1,0.3,2.2,0.6,3.2c2.4,8.2,4.7,16.4,8.4,24
		c2.1,4.4,4.6,8.8,6.8,13.1c0.6,1.1,1.1,2.2,1.4,3.4c2,8,6.1,15,10.3,21.9c1.7,3,3.8,5.7,6.3,8.1c1.7,1.6,2.9,3.7,3.4,6
		c1.3,3.8,3,7.4,5.2,10.7c0.9,0.1,1.7,0.3,2.5,0.3c1.1,0.1,2.2,0.1,3.3,0.1c7.6,0.2,14.9,3.1,20.6,8.1c2.2,1.9,4.4,3.7,6.4,5.8
		c1.4,1.3,2.6,2.8,3.4,4.6c2.8,6.3,5.9,12.4,7.8,19c1.1,4,2.6,7.8,4.1,11.6c2.3,5.6,3.3,11.6,4.7,17.5c1.7,7.5,3.5,15,5.2,22.5
		c0.4,2,1.5,3.9,3.1,5.2c2.5,2.2,5,4.3,7.4,6.5c1.7,1.6,3.3,3.3,4.8,5c0.9,1.2,2.2,2.1,3.6,2.6c4.5,1.7,8.4,4.8,10.9,9
		c1.5,2.4,3.1,4.9,4.7,7.2c1.7,2.5,3.9,4.6,6.4,6.1c1,0,0.6-0.8,0.9-1.2c0.5-0.9,1.5-1.1,1.9-0.3c1.8,3,4.1,5.8,5,9.3
		c1,3.9,2.7,7.5,5.1,10.7c0.8,1.1,1.6,2.2,2.2,3.5c1.2,2.3,2.9,4.4,5,5.9c1.3,1,2.6,2,3.9,3c4.4,3.5,9.7,5.8,15.2,6.8
		c3.1,0.6,6.3,0.8,9.4,1.2c2.1,0.2,4.1,0.5,4.8,3c0.1,0.4,0.7,0.8,1.1,1.1c9.5,7.7,20.1,13.8,30.6,20.1c1.5,0.9,3.2,1.7,4.9,2.2
		c7,2.6,13.6,6,19.7,10.2c10.3,6.8,21.4,11.8,32.8,16c4.8,1.8,9.5,3.4,14.3,5.1c1.2,0.4,2.4,0.7,3.6,0.9c3.5,0.5,7,1.5,10.3,2.9
		c2.3,0.9,4.6,1.8,6.9,2.8c6,2.7,12.5,4.3,19.1,4.8c1.8,0.2,3.5,0.5,5.3,0.7c3.3,0.4,6.5,0.8,9.8,1.1c1,0,1.9,0.1,2.9,0.2
		c5.2,1.2,10.4,2.3,15.6,3.7c6.9,1.9,13.8,3.4,21,3.3s14.3,0.3,21.4,0.6c2,0.1,4.1,0.4,6,0.6c0.1,1-0.5,1.2-1,1.2
		c-2.7,0-5.5-0.2-8.2-0.3c-3.8,0-7.7,0-11.5,0c-0.3,0-0.7,0.3-1.3,0.6c1.5,1.5,3.3,2.6,5.2,3.5c3.9,1.8,7.9,3.1,12.3,2.7
		c7.9-0.7,15.6-3,22.6-7c4.1-2.4,8.7-3.9,13.2-5.6c1.5-0.5,3.2-0.2,5,0.2l-1.9,0.8c-5.6,2.3-11.3,4.3-16.5,7.5
		c-7.6,4.6-16.4,6.8-25.2,6.2c-6.2-0.3-11.9-2.3-15.8-7.5c-0.6-0.9-1.7-1.4-2.8-1.4c-1.6,0-3.3,0-4.9,0c-6,0.2-11.7-1.3-17.3-3
		c-3.1-1-6.4-1.7-9.6-2c-0.8,0-1.6-0.2-2.4-0.4c-2.7-1.3-5.6-1.3-8.5-1.5c-2.5-0.1-4.9-0.5-7.4-0.8c-4.9-0.7-9.8-1.4-14.7-2
		c-0.5-0.1-1.1,0-1.6,0.2c-2,1.1-4.2,1-6.4,1.1c-13.3,0.8-26.6,0.3-39.9,0.4c-8.5,0.1-17,0.2-25.4,1.9c-0.5,0.1-1.1,0.2-1.6,0.2
		c-8.6,0.4-17.3,0.7-25.9,1.1c-4.7,0.2-9.3,0.5-14,0.8c-7.9,0.5-15.9,1.1-23.8,1.6c-4.2,0.3-8.5,0.4-12.8,0.5
		c-9.9,0.3-19.7,0.6-29.6,0.8c-3.4,0.1-6.9-0.1-10.3,0c-9.3,0.3-18.6,0.7-28,0.3c-0.8,0-1.6,0-2.5-0.1c-5.5-1-10.9-0.1-16.4,0.4
		c-4.1,0.4-8.2,0.2-12.3,0.3c-0.4,0-0.8-0.1-1.2-0.2c-0.6-0.1-1-0.7-0.9-1.3c0-0.2,0.1-0.4,0.3-0.6c0.8-0.5,1.2-1.5,1.1-2.4
		c0-0.7,0.2-1.3,0.5-2c2.8-6.7,6.5-13,11-18.7c3-3.8,6.8-6.8,11.1-9.1c7.6-4.1,15.7-7.2,24.1-9.5c4.2-1.1,8.6-1.7,13-1.7h5.9
		c0.5-1.2,1-2.4,1.4-3.6c1.6-6,4.4-11.6,8.2-16.5c3.3-4.8,7.5-8.8,12.4-11.9c1.3-0.7,2.7-1.4,4.1-1.9c0.7-0.3,1.5-0.6,2.6-1
		c-0.6-0.5-1.3-0.9-2-1.3c-2.9-1.2-5.6-3-7.9-5.1c-1.1-1-2.3-1.9-3.5-2.8c-2-1.5-3.5-3.5-4.6-5.7c-0.5-1.1-1.1-2.2-1.8-3.2
		c-2.3-3.1-4-6.5-5.1-10.2c-0.2-0.6-0.4-1.1-0.7-1.6c-4.7-1.8-8.2-5.4-11.9-8.6c-3.3-2.9-5.6-6.8-7.8-10.6c-1.6-2.9-3.8-5.4-6.6-7.2
		c-0.8-0.5-1.7-1-2.6-1.3c-2-0.5-3.8-1.7-5-3.4c-2.5-3.7-6.4-6-9.5-9c-0.1-0.1-0.5-0.1-1.1-0.1c-0.4,1.4-0.4,2.9-0.1,4.3
		c0.4,2.9,0.7,5.7,1.2,8.6c0.5,2-0.3,4.2-2.1,5.3c-4.1,3.2-7.9,6.8-12,10c-5.7,4.7-12.1,8.6-18.9,11.6c-3.8,1.6-7.4,3.7-11.1,5.4
		c-6.2,2.9-12.4,5.9-18.7,8.6c-6.5,2.7-12.9,5.7-19.1,9c-8.9,4.9-17.5,10.2-26.1,15.6c-7.9,5-14.9,11.3-20.6,18.8
		c-3.3,4-6.1,8.5-8.3,13.2c-0.8,1.9-1.8,3.7-3.1,5.3c-4.3,5.8-7.6,12-11,18.3c-1.5,2.8-2.7,5.7-3.9,8.6c-2.5,5.7-4.5,11.6-7.5,16.9
		c-3.7,6.4-6.8,13.2-10.2,19.7c-2.1,3.9-4.3,7.6-6.8,11.2c-2.2,3.1-4.9,5.9-7.3,8.9c-4,4.9-9.4,7.9-14.7,11.1
		c-2.8,1.7-5.5,3.7-8.8,4.4c-0.4,0.1-0.8,0.3-1.2,0.4c-0.9,0.2-1.8,0.2-2.1-0.7c-0.2-0.6-0.1-1.3,0.3-1.9c2.1-2.9,4.4-5.6,6.8-8.2
		c4.9-4.8,7.7-10.6,10-16.8c4-10.1,6.2-20.8,6.5-31.7c0.1-5.9,0.4-11.8,0.7-17.7c0-0.7,0-1.3,0.1-2c1.2-6.5,2-13,4.1-19.3
		c1.5-4.6,3.5-9,6-13.1c2.9-4.9,6-9.5,9.5-14c1.7-2.1,3.2-4.4,5.1-7.3c-1.2,0.3-1.7,0.4-2.1,0.5c-0.4,0.2-0.8,0.3-1.1,0.6
		c-9.8,5.8-19.6,11.6-28.4,18.8c-0.7,0.5-1.3,1-1.8,1.6c-2.6,3-5.5,5.7-8.6,8.2c-2.2,1.8-4.1,4.1-5.5,6.6c-0.3,0.6-0.7,1.2-1.2,1.6
		c-0.5,0.4-1.2,0.6-1.8,0.5c-0.6-0.2-1.1-0.8-1.3-1.4c-0.2-0.9-0.2-1.9,0-2.8c0.5-3.7,1.2-7.3,2.1-10.9c2.5-9,5-18,8.5-26.7
		c2.2-5.5,4.4-11,7.1-16.2c2.1-3.9,4.5-7.5,7.1-11c5.1-7,10.1-14,15.9-20.5c7.1-8,14.1-16.1,22.4-23c2.1-1.8,4.2-3.5,6.4-5.1
		c9-6.3,17.9-12.8,27.6-17.9c6.8-3.6,13.8-6.7,20.8-10c4.7-2.2,9.5-4.4,14.2-6.5c0.4-0.3,0.7-0.6,1.1-0.9c-2.8-4.1-4.3-8.8-6.3-13.3
		c-3.7-8-7.8-15.7-13.7-22.4c-5-5.7-8.5-12.4-11.7-19.3c-1.1-2.2-1.8-4.6-3-6.8c-2.7-4.5-1.9-9,0.2-13.4c1-1.9,2.2-3.8,3.6-5.5
		c3.1-4.1,7-7.4,10.8-10.7c3.9-3.3,8.2-6.1,12.7-8.3c1.7-0.9,3.3-1.9,5.2-3c-0.4-1-0.7-2-1.1-3.1c-1.4-0.2-2.8-0.3-4.1-0.6
		c-1.5-0.1-2.5-1.4-2.4-2.8c-0.1-2.1,0-4.1,0-6.2c0.1-3.7-0.7-7.4-2.4-10.7c-1.5-2.9-2.9-5.9-4.3-9c-0.9-0.1-1.6-0.2-2.4-0.2
		c-7.5-0.1-15.1-0.2-22.6-0.1c-4.2,0.1-8.5,0.5-12.7,1c-7.5,0.9-15,1.4-22.6,1.4c-2.6,0-5.2,0.1-7.8,0.1c-3.3,0.1-6.6-0.1-9.8-0.8
		c-0.2-3.7,1.5-6.3,4.1-8.5c2.7-2.3,5.7-4.3,9-5.7c1.8-0.7,3.5-1.5,5.2-2.4c3.8-2.3,7.8-2.4,11.9-1.5c1.7,0.4,3.5,0.7,5.3,1
		c0.5,0,1,0,1.5-0.1c0.3-0.8,0.7-1.7,1.1-2.5c1-1.9,2.3-3.7,3.6-5.5c2.2-2.6,4.7-5,7.2-7.4c2-1.9,4.6-3.1,7.4-3.3
		c3.1-0.4,6.3-0.5,9.4-0.8c0.8-0.1,1.6-0.1,2.7-0.1c-0.1-1-0.1-1.8-0.3-2.5c-1-5.5-2.1-11-3.1-16.6c-1.7-9.4-0.5-18.2,4.8-26.4
		c3.5-5.4,6.6-11.1,10-16.5c2.6-4,5.4-8,8.1-11.9c0.6-0.9,1.4-1.7,2.3-2.3c4.5-3.5,9.1-7,13.7-10.5c5-3.7,10.4-6.6,16.2-8.8
		c1.4-0.6,2.8-1.2,4.2-1.7c1.8-0.6,3.7-0.9,5.5-1.4c1.3-0.3,2.8,0,3.9-0.9c0.1-0.2,0.3-0.3,0.3-0.4c0-4.2,0-4.4,3.8-5.5
		c1.8-0.6,3.7-0.9,5.6-1.4c0.1-0.9,0.1-1.7,0-2.6c-0.8-5.4-0.2-11,1.9-16.1c0.4-1,0.6-2.1,1.1-3.1c1.7-3.2,1.7-7.1,0.1-10.3
		c-1.4-3.3-1.4-6.6-1.3-10.1c0.1-5.1,0-10.1-0.1-15.2c-0.1-3-0.9-6-2.2-8.8c-1.8-3.9-3.2-7.9-4.9-11.8c-2.5-6.1-5.8-11.8-9.8-17.1
		c-1.3-1.6-2.8-3-4.5-4.2c-1.9-1.4-3.6-3.1-4.9-5c-2.7-4.5-7.1-6.8-11.8-8.4c-1.5-0.5-3.1-0.5-4.6-1.1c-0.8-0.2-1.6-0.1-2.3,0.4
		c-3,2-6.4,2.4-9.7,3.2c-2.4,0.5-4.9,0.5-7.3-0.2c-3.3-0.8-4.7-3.1-4.1-6.4c0.1-0.7,0.3-1.4,0.6-2c1.8-3.2,3.4-6.6,5.9-9.4
		c2.1-2.3,3.7-5.2,4.5-8.2c0.6-2.5,1.5-5,2.1-7.5c0.5-1.7,1.4-3.3,2.5-4.7c2.6-3.7,7.1-5.5,11.6-4.6c3.4,0.6,6.7,1.5,9.9,2.7
		c5.5,2,11,4.2,16.5,6.4c6.1,4.1,12.8,7.5,17.3,13.7c1.8,2.4,3.8,4.7,6.1,6.7c3.7,3.2,6.1,7.3,8.4,11.6c2.5,4.7,4.8,9.6,7.4,14.3
		c1.4,2.4,2.1,5.1,2.1,7.9c-0.1,1.9,0.6,3.8,1.9,5.2c4.9,6.2,8.1,13.5,9.3,21.2c1,5.7,2.3,11.3,3.3,17c0.6,3.5,1,7.1,1.5,10.6
		c0.1,1.1,0.2,2.2,0.5,3.2c1.5,4,2.5,8.1,3.1,12.4c0.1,0.5,0.3,1.1,0.5,1.6c1.5,0.7,3,0.3,4.5,0.3c2.3,0,4.1,0.8,5.1,2.8
		c1.4,3.1,3.9,4,7,4.1c1.5,0,3,0.3,4.4,0.9c4.9,2,9.9,3.9,14.3,7.1c1.1,0.6,2.2,1.1,3.4,1.4c3.8,1.2,4.6,2.8,3.4,6.8
		c0,0.3,0,0.7,0,1l2.5,0.9c3.5,1.2,6.9,2.8,10,4.8c2.5,1.7,4.7,3.8,6.5,6.2c3.4,4.5,7,8.8,10.6,13.1c0.1,0.2,0.5,0.2,0.8,0.4
		c0.3-0.2,0.6-0.4,0.8-0.7c3-4.8,6.9-8.9,11.6-12.1c10-7.2,21.3-12.6,33.2-15.9c9.1-2.6,18.5-4.1,28-4.4c7.1-0.3,14.3,0.6,21.1,2.7
		c3,0.9,5.9,2.3,8.5,4.1c2.1,1.5,3.7,3.7,4.5,6.2c1.5,4,1.7,8.4,0.5,12.5c-0.7,2.9-0.9,6-0.5,9c0.6,11.1,3.1,22.1,7.4,32.3
		c1.1,2.7,2.5,5.3,4.2,7.7c2.9-0.7,5.8-1.6,8.6-2.7c5.3-2.2,10.6-4.6,16-6.5c6.8-2.4,13-5.8,19.6-8.6c10.5-4.5,20.9-8.9,31.3-13.6
		c6.5-2.9,12.9-6.2,19.3-9.3c3.1-1.5,6.2-3,9.2-4.6s6.3-3.3,9.5-4.8c3.6-1.7,7.3-3.3,10.8-5c4-1.9,7.9-3.8,11.8-5.7
		c0.9-0.4,1.7-0.9,2.6-1.3c6.6-3,13.4-5.6,20.4-7.7c4.6-1.3,9-3.3,13.5-4.9c3.1-1.1,6.2-2.2,9.4-3c7.3-1.8,14.6-3.7,22-5.1
		c5.4-1,10.6-2.7,16.1-3.1c4.4-0.2,8.8-0.2,13.2,0.3c7.8,0.6,15.6,1.5,23.3,2.3c7,0.8,13.7,2.7,20.1,5.8c5.9,2.6,11.2,6.5,15.5,11.3
		c0.8,0.8,1.3,1.8,1.6,2.8c0.2,1.1,0.5,2.1,0.9,3.1c0.8,2.4,0.8,4.9,0.2,7.3c-0.9,3.7-1.2,7.6-1.9,11.4c-0.9,5-1.3,10.1-1.1,15.2
		c0.1,0.8,0,1.7-0.1,2.5c-1.2,8.1-0.2,16.2,1.6,24.1c1.2,5.4,2.7,10.6,4.1,16c1.4,5-0.2,10.3-4,13.8c-4.7,4.3-9.9,7.8-15.6,10.6
		c-7.1,3.6-14.5,6.6-22,9.1c-6.9,2.4-13.5,5.4-19.8,9c-2.2,1.3-4.6,2.4-5.6,5.1c0.5,1,1.2,0.6,1.8,0.5c5.6-1.3,11.2-2.7,16.8-4.1
		c0.8-0.2,1.6-0.4,2.3-0.8c3.9-1.9,8-3.6,12.2-5c2-0.8,4-1.8,5.9-2.9c4.1-2.2,8.3-4.4,12.4-6.5c1-0.5,2-1,3-1.4
		c8.3-3.3,16.5-6.8,24.9-9.6c6.5-2.2,12.8-4.9,19.3-7.2c9.3-3.3,18.5-6.8,28.3-8.8c3.5-0.7,7-1.1,10.6-1.3
		c7.3-0.4,14.5-0.6,21.8-1.3c8.6-0.8,17.3-0.6,25.9,0.6c10.6,1.4,21.2,2.8,31.6,5.6c5.3,1.5,10.6,3,15.8,4.7
		c7.1,2.4,14.3,4.9,21.3,7.8c8.9,3.6,17.3,8.4,25.7,12.9c5.7,3.1,10.7,7.3,15.7,11.3c0.7,0.6,1.4,1.3,1.9,2.2
		c0.5,0.7,0.4,1.7-0.2,2.3c-0.5,0.7-1.4,1-2.2,0.7c-1-0.3-2.1-0.8-3-1.3c-2.6-1.6-5.5-2.6-8.5-2.9c-2.7-0.3-5.4-1.2-8.1-1.6
		c-3-0.5-6-0.9-9-0.9c-3.3,0-6.6-0.4-9.8-1c-8.1-1.6-16.4-1.8-24.5-0.4c-4.8,0.9-9.8,1.5-14.6,2.4c-1.6,0.3-3.2,0.9-4.7,1.5
		c-3.4,1.4-6.9,2.8-10.3,4.3c-5.7,2.5-11.3,4.9-16.8,7.7c-2.8,1.5-5.4,3.2-7.9,5.1c-2.7,2.2-5.5,4.1-8.4,5.9
		c-0.8,0.5-1.6,1.1-2.4,1.6c-2.4,1.5-4.8,3.2-7.3,4.6c-2.8,1.5-5.4,3.2-8,5.1c-3.6,2.5-7.4,4.7-11.1,7.1c-4.7,3.1-9.2,6.5-13.9,9.5
		c-8.8,5.8-17.8,11.4-26.7,17c-1.7,1.1-3.6,2-5.4,3c-1.6,0.6-3,1.5-4.3,2.7c0.1,0.7,0.2,1.3,0.4,2c2,4.5,2.4,9.3,2.7,14.1
		c0.2,2.5,0.5,4.9,0.6,7.4c0,7-0.6,14-1.9,20.9c-0.4,2.2-0.5,4.4-0.8,6.5c-1,6.5-0.9,13.1-1.3,19.7c-0.3,4.6-1,9.3-1.4,13.9
		c-0.1,1.2,0,2.4,0.1,3.7c0.1,1.5,0.2,3,0.3,4.5c0,3.6-1,7-3,10c-3,5-5.9,10.2-7.7,15.9c-1.3,4-2.9,8-4.5,11.9
		c-2,4.7-4.4,9.2-7.2,13.4c-1.2,1.8-2.3,3.7-3.5,5.6c0.2,0.5,0.3,1,0.5,1.2c4.1,2.5,7.3,6.1,9.2,10.5l4.5,0.1
		c7.8,0.2,14.2,3.5,19.6,9c0.3,0.3,0.5,0.6,0.8,1c0.7,1.1,1.3,2.2,0.7,3.5s-1.9,1.3-3.2,1.3c-10.8,0.5-21.6,1.7-32.4,3
		c-3.3,0.4-6.5,0.6-9.8,0.8c-4.5,0.2-9,0.3-13.6,0.4c-1.5-0.1-3,0.6-4,1.7c-3,3.2-6.1,6.3-9,9.6c-3.3,3.8-7,7.3-11,10.5
		c-5.5,4.4-10.8,8.9-16.8,12.5c-1.2,0.7-2.3,1.6-3.5,2.2c-8,4.2-15.9,8.6-24.4,11.8c-5.9,2.2-11.7,4.8-17.4,7.5
		c-2.9,1.4-5.6,3.5-8.3,5.2c-1.3,0.8-2.6,1.5-3.9,2.3c-0.1,0-0.2-0.1-0.5-0.2c0.1-0.3,0.2-0.8,0.4-0.9c1.8-1.5,3.7-2.8,5.5-4.3
		c2.8-2.2,5.9-4,9.2-5.4c7.7-3.3,15.4-6.5,23-10.1c10.3-4.9,20.3-10.2,29.2-17.6c4.3-3.6,8.8-7,12.7-11.1s7.5-8,11.3-12
		c0.2-0.3,0.4-0.6,0.5-1c-0.6-1-1.5-0.8-2.2-0.8c-3.8,0.2-7.7,0.4-11.5,0.6c-5.9,0.4-11.8,0.9-17.6,1.4c-2.3,0.2-4.6,0.5-7,0.8
		c-1.2,0.1-2.4,0.2-3.5,0.3c-0.9-0.4-1.3-1.5-0.9-2.4c0-0.1,0.1-0.1,0.1-0.2c0.7-1.3,1.5-2.6,2.5-3.7c4.4-5.1,10-8.4,16-11.3
		c2.8-1.4,5.9-1.3,8.9-1c1.8,0.2,3.5,0.7,5.5,1.1c2.1-2.4,4.3-4.8,6.3-7.4c4-5.2,9.5-8.2,15.3-10.9c3.6-1.7,7.5-1,11.3-0.3
		c1.6,0.3,3.1,0.8,4.7,1.3c0.4-0.2,0.7-0.2,0.8-0.4c4.6-6.3,8.5-13.1,11.5-20.3c1.5-3.8,2.8-7.8,4.2-11.6c0.6-1.7,1.3-3.3,2.1-4.9
		c0.9-1.9,1.8-3.7,2.8-5.5c0.6-1.4,1.3-2.7,2.1-4c2.4-3.1,3.4-7,2.7-10.9c-0.7-4.7,0.2-9.3,0.6-13.9c0.5-5,1.2-10.1,0.7-15.2
		c-0.1-0.5-0.1-1.1,0-1.6c0.7-5.8,1.5-11.7,2.2-17.5c0.6-4.8,1.1-9.5,1.6-14.3c0.1-1.4,0.1-2.7,0-4.1c-0.4-5.1-0.9-10.1-1.4-15.1
		c-0.1-1.1-0.4-2.2-0.7-3.2c-0.5-1.4-1.1-2.8-1.7-4.3c-0.6,0-1.2,0.1-1.8,0.3c-3.9,1.3-7.8,2.6-11.7,4c-5.4,1.9-11,3.5-16.6,4.5
		c-0.8,0.1-1.6,0.3-2.4,0.6c-4.8,1.6-9.7,1.8-14.6,1.9s-9.6,0-14.4,0c-1.1,0-2.2,0.1-3.3,0.1c-1,1.4-1.4,3.1-1.2,4.8
		c0.3,4.4-1.1,8.8-4,12.2c-1.8,2.2-3.3,4.8-4.2,7.5c-1,2.7-2.6,5.2-4.7,7.2c-0.9,1-2,1.9-3.3,2.5c-5,2.3-9.7,5.1-14.1,8.4
		c-4.6,3.3-9.3,6.3-13.9,9.6c-5.3,4.1-10.3,8.8-14.7,13.9c-0.6,0.7-1.1,1.5-1.6,2.4c-2.9,5.5-7.2,10.1-12.5,13.4
		c-3.6,2.5-7.7,4.3-11.9,5.4c-3.6,0.9-7.1,2.2-10.8,2.7c-8,1.4-16.3,0.5-23.9-2.4c-1.9-0.8-3.9-1.3-5.8-2c-1.4-0.3-2.7-1-3.8-2.1
		c0.5-0.1,0.9-0.1,1.4,0c3,0.9,6,1.8,9,2.8c8.1,2.7,16.8,3.1,25.2,1.1c4.3-1,8.4-2.5,12.6-3.9c0.8-0.3,1.6-0.8,2.3-1.3
		c0-1.1-0.7-1-1.1-1c-3-0.3-6-0.8-9,0.2c-0.8,0.3-1.6,0.4-2.4,0.2c-3.6-1.1-7.3-0.7-11-1c-3.1-0.2-6.3-0.7-9.3-1.4
		c-8.7-2.1-17.2-4.5-25.7-7.3c-10-3.3-19.8-7.3-29.7-11c-7.3-2.8-14.4-6-21.4-9.4c-7.2-3.6-14.4-7.3-21.9-10.4
		c-6.7-2.8-13.2-6.2-19.4-10c-0.8-0.5-1.6-0.8-3-1.5c0.3,1.2,0.5,1.8,0.7,2.4c2.3,5.6,4.6,11.1,7,16.7c4,9.2,7.9,18.4,11,27.9
		c1.4,4.3,3.2,8.5,5.3,12.5c1.5,2.8,2.9,5.6,4.3,8.4c1,2,0.1,3.6-2,3.9c-1,0.1-1.9,0.1-2.9,0.2c-3.7,0.3-7.4,0.8-11,1.1
		c-11.9,1.2-23.4,4.5-35.2,6.5c-7.4,1.4-14.9,2.4-22.4,3c-3.7,0.2-7.4,0.8-11.1,1c-3.4,0.3-6.9,0.4-10.3,0.6
		c-5.9,0.1-11.8-0.6-17.5-2.3c-4-1-8-2-11.7-3.9c-5.7-3.1-11.3-6.2-15.5-11.4c-6.1-7.6-9-16.3-8-26c0.6-5.6,2.4-11,5.1-15.9
		c2.5-4.5,5.7-8.8,9.3-12.5c3.2-3.2,6.9-5.9,10.9-7.9c5.9-3.2,12.3-3.5,18.8-2.1c2.7,0.6,5.3,1.6,7.9,2.4c0.5,0.1,1,0.2,1.8,0.4
		c-0.2-1-0.2-1.6-0.4-2.2c-0.7-3.5-0.9-7.1-0.4-10.6c0.5-2.7,1.4-5.3,2.8-7.7c0.6-1.2,1.5-2.3,2.2-3.5c3.7-6.5,9.5-10.5,16.1-13.5
		c0.9-0.4,1.7-0.8,2.8-1.2c-2-2.7-4.2-5.2-6.7-7.4c-6.1-5.3-11.6-11.3-16.4-17.8c-0.5-0.7-1-1.3-1.5-2c-4.9-5.6-8.8-11.9-13-18
		c-1.4-2.2-3.1-4.2-5.1-5.9c-1.6-1.1-2.6-2.9-2.7-4.9c0-0.9-0.5-1.9-0.5-2.8c0-2.7-1.6-4.2-3.6-5.5c-3.8,1.3-5.9,4.2-7.8,7.3
		c-1.7,2.8-2.7,6-2.9,9.4c-0.1,0.9-0.2,1.9-0.5,2.8c-0.3,0.6-1,0.8-1.5,0.5c-0.2-0.1-0.3-0.2-0.5-0.4c-0.3-0.6-0.5-1.3-0.5-1.9
		c-0.2-3.7,0.6-7.4,2.4-10.7c0.5-1.1,1.1-2.2,1.8-3.4c-0.9-0.8-1.6-1.6-2.4-2.3c-9.3-8-16.9-17.7-22.5-28.5c-2.2-4.1-3.9-8.5-5.1-13
		c-1.3-4.6-1.7-9.5-1.2-14.3c0.1-0.7,0.1-1.3,0.1-2.2c-1.3-0.8-2.6-1.5-3.9-2.2c-1.8-0.9-3.4-2.3-4.6-4c-0.4-0.7-0.9-1.5-0.1-2.4
		c0.3,0.1,0.8,0,1,0.3c1.7,2,3.9,3.5,6.5,4.2c3.2,1.1,6.6,1.8,9.9,2.7c0.8,0.2,1.6,0.4,2.4,0.5c1.2,0,2.4,0,3.2,0
		c1.5,1.6,2.8,2.8,4,4c1.6,1.7,3.1,3.5,4.5,5.3c4.4,6.3,8.1,13.1,10.9,20.3c3,7.1,5.3,14.5,6.9,22c0.2,0.9,0.4,1.9,0.8,2.8
		c0.3,0.7,1.1,1,1.8,0.7c0.2-0.1,0.5-0.3,0.6-0.5c0.7-1,1.3-2.1,2-3.1c3.6-5.5,7.5-10.8,13.1-14.6c1.1-0.8,2.1-1.6,3.4-2.7
		c-1.4-2.1-3-4-4.8-5.9c-2.1-2.2-4.1-4.4-6.1-6.6c-1.1-1.2-2.2-2.5-3.2-3.8c-3.8-4.8-7.6-9.7-11.4-14.6c-4.5-5.8-7.5-12.4-10.8-18.9
		c-1.1-1.9-1.3-4.3-0.7-6.4c0.5-1.6,1.2-3.1,2-4.5c2-3.1,4.5-5.9,7.3-8.3c3.9-3.7,8.2-6.9,12.9-9.6c7.6-4.2,15.8-7.1,24.3-8.5
		c3.9-0.7,7.8-1.7,11.5-3.1c4.3-1.4,8.3-3.8,11.5-7c4.7-4.5,6-11.5,3.3-17.4c-0.6-1.5-1.7-2.8-3-3.8c-3.2-2.2-6.7-3.8-10.4-4.7
		c-6.3-1.5-12.7-2.1-19.2-1.8c-10,0.4-20,2.1-29.5,5.1c-8.4,2.5-16.5,6.1-24,10.6c-6,3.6-11.3,8.4-15.5,14c-0.8,1.1-1.8,2.1-1.8,3
		c2.2,6.7,4.3,12.8,6.1,19c0.7,2.6,1.3,5.3,1.6,8c0.6,4.2,1,8.4,1.5,12.7c0.4,4,2.4,7.7,5.6,10.1c1.3,1,2.2,2.4,2.7,4
		C324.4,242.1,323.1,243.1,322.7,244.5z M336.5,261.4v2.8c0.5,0.6,0.9,1.3,1.3,2c2.5,6.3,4.9,12.7,7.4,19c0.5,1.4,0.8,2.9,2.3,4.2
		c0-0.7-0.1-1.4-0.2-2.1c-2-7.2-4.8-14.2-8.2-20.9c-0.3-0.6-0.6-1.2-1.1-1.7c-0.3-0.3-1-0.3-1.5-0.5V261.4l-0.3,0.1l0.2-0.4
		C336.5,261.1,336.5,261.2,336.5,261.4L336.5,261.4z M674.8,370.4c-3.7-0.3-6.8-0.8-9.9-0.7c-3.8,0.2-7.7-0.1-11.5-1
		c-4.2-1.1-8.4-2.4-12.6-3.6c-2.2-0.8-4.4-1.4-6.7-1.9c-7.6-1.2-12.7-5.8-16-12.3s-5.1-13.5-4-21.1c1.4-10.4-0.2-21-4.7-30.5
		c-3.7-8.3-7.4-16.5-10.3-25.1c-0.3-1.3-1-2.5-2-3.4c-1.5,0.5-2.9,1-4.3,1.4c-7,2-14.2,3.4-21,5.9c-4.4,1.6-8.8,3.3-13.2,4.5
		c-6.9,1.9-13.3,5.1-19.8,8c-8.3,3.6-16.3,7.9-24,12.7c-1.5,0.9-3.1,1.8-4.7,2.6c-3,1.6-6.2,2.9-9.2,4.6c-5.4,3-10.7,6.1-16.3,8.7
		c-1.3,0.6-2.5,1.2-3.7,1.9c-6.6,4.1-13.5,7.9-20.6,11.2c-1.8,0.8-3.5,1.6-5.2,2.4c-5.4,2.8-11,5-16.8,6.5c-3,0.8-6.1,1.5-9.3,0.6
		c-4.7-1.2-9-3.4-12.7-6.4c-6.5-5.5-11.3-12.3-15.8-19.4c-7.3-11.6-15.1-22.9-23.6-33.7c-0.3-0.4-0.7-0.7-1.1-1
		c-6.1,1.7-15.6,12.7-18.7,20.4c1.4,2.2,1.9,4.8,1.4,7.3c-0.1,1,0.3,2,1,2.6c0.6,0.7,1.4,1.3,2.1,1.9c3.4,2.4,5.9,5.8,7.3,9.7
		c0.5,1.4,1.2,2.7,2.1,3.9c3.2,4,6.6,7.8,9.5,11.9c6.9,9.9,16.3,17.4,24.6,25.9c0.2,0.1,0.4,0.2,0.6,0.3c0.5,0,1.1,0,1.8-0.1
		c5.8-0.5,11.2,0.6,15.8,4.5c0.5,0.4,1.1,0.8,1.7,1.2c5.7,3.9,10.1,9.4,12.8,15.8c0.8,2,1.8,4,2.7,6c0.5,1.4,1.5,2.6,2.8,3.4
		c8.8,5.6,18,10.5,27.5,14.8c6.8,3,13.4,6.3,20.1,9.4c4,1.9,7.9,3.8,12,5.5c3.2,1.4,6.4,2.4,9.6,3.7c8.5,3.4,17,7,25.7,9.9
		s17.8,5.5,26.8,7.8c3.8,1,7.8,1.6,11.8,1.7c2.3,0,4.7,0.2,6.9,0.7c1.6,0.4,3.3,0.4,4.8-0.1c1.6-0.5,3.3-0.5,4.9-0.2
		c0.9,0.2,1.9,0.2,2.9,0.2c5.9,0.3,10.8-1.4,14.3-6.4c1-1.2,1.8-2.4,2.6-3.7c1.8-3.7,4.6-6.5,7.5-9.2c0.8-0.8,1.6-1.5,2.4-2.3
		c4.6-4.6,9.6-8.6,15.1-12c3.3-2,6.4-4.2,9.7-6.2c3.1-2,6.3-3.9,9.6-5.5c3.8-1.6,6.9-4.7,8.4-8.6c1.5-3.7,3.6-7.1,6-10.3
		c1.2-1.5,2-3.3,2.2-5.2C674.3,377.1,674.5,374,674.8,370.4L674.8,370.4z M345.9,238.7c0.7,1.9,1.7,3.7,3,5.2
		c3.9,5.1,7.9,10.2,11.9,15.2c2.9,3.5,5.9,6.9,8.9,10.3c2.2,2.5,4.5,4.8,6.5,7.4c7.1,9.1,13.9,18.4,20.3,28
		c4.5,6.6,8.3,13.5,13.2,19.9c4.1,5.3,8.6,9.9,14.9,12.6c5.8,2.5,11.6,2.1,17.3,0.6c3.6-1,7-2.4,10.3-4.2c7.4-3.8,15-7.4,22.1-11.8
		c7-4.3,14.4-7.9,21.7-11.7c3.6-1.9,7.4-3.6,11-5.6c8.4-4.6,16.6-9.7,25.3-13.6c6.2-2.8,12.5-5.7,18.7-8.5c0.4-0.2,0.8-0.3,1.2-0.5
		c5.4-1.9,10.8-3.9,16.3-5.7s11.1-4.1,16.9-5c1.7-0.3,3.4-1,5.1-1.5s3.4-0.8,4.8-1.1c-0.3-4.8-0.6-9.2-1-14c-0.7,0.2-1.3,0.5-2,0.8
		c-1.1,0.6-2.1,1.3-3.2,1.9c-1.1,0.8-2.7,0.5-3.5-0.6c0-0.1-0.1-0.1-0.1-0.2c-0.6-0.9-1.2-1.8-1.7-2.8c-4.6-9-9.8-17.8-13.9-27.1
		c-1.5-3.3-3.2-6.4-4.6-9.7c-2-4.5-3.8-9.1-5.7-13.7c-1-2.4-2-4.8-2-7.6c0.8-0.2,1.6-0.4,2.4-0.4c2.5,0.1,4.9-0.5,7.2-1.6
		c5-2.3,9.8-4.9,14.7-7.3c0.1-0.9,0.1-1.5,0.2-2.2c0.3-1.4,1.7-1.9,2.4-0.9c1.3,1.9,2.5,3.9,3.6,5.9c0.2,0.6,0,1.3-0.6,1.6
		c-0.6,0.2-1.3,0.1-1.9-0.2c-0.7-0.5-1.4-1-2-1.6l-7.4,3.8c-2.3,1.2-4.6,2.5-7,3.4s-5.2,1.7-7.7,2.5c-0.1,1.6,0.3,3.2,1.2,4.5
		c1.5,2.6,2.8,5.4,3.9,8.1c2,5.1,4.6,10,7.1,14.8c0.4,0.7,0.9,1.3,1.4,1.9l7.8-4.9c0-0.5,0.1-0.9,0.1-1.3c0-0.4,0-0.8,0-1.2
		c0.2-0.9,1.2-1.5,1.9-1c1.8,1.2,3.2,3.1,3.8,5.2c0.3,1-0.8,2.1-1.7,1.6c-1.5-0.8-2.6-0.3-3.8,0.5c-1.5,0.9-3.1,1.7-4.7,2.6
		c-0.8,0.5-1.5,1.1-2.2,1.8c1.5,3.9,3.4,7.6,5.6,11.2c2.1,3.5,3.5,7.4,5.9,10.8l7.5-4.2c0.1-1.5,0.3-3,0.5-4.5
		c0.3-1.3,0.5-2.9,1.4-3.7c1-1,1.7-2.2,2-3.5c1.8-5.2,5-9.4,8.8-13.2c0.8-0.8,1.5-1.5,2.2-2.2c-0.1-0.5-0.3-0.9-0.4-1.4
		c-4.9-10.1-9.2-20.5-12.8-31.2c-0.7-2.2-1.2-4.5-2.7-6.4c-0.5-0.1-0.9-0.1-1.3-0.1c-0.8,0-1.7-0.2-2-1.1s0.4-1.5,1.1-1.9
		c4.2-2.4,8.3-4.9,12.5-7.1c3.6-2.1,7.9-2.6,12-1.6c3.3,0.6,6,3.1,6.7,6.4c2.3,8.4-0.4,18.4-9.2,22.9c-0.6,0.4-1.3,0.9-1.8,1.4
		c3.4,1.4,6.6,1.3,9.5,2.4c3.1,1.1,6,2.5,8.9,3.7c4.3-2.1,8.4-4,12.4-6c8-4,16.3-7.1,24.9-9.5c7.8-2.2,15.6-4.2,23.4-6.4
		c6.3-1.8,12.5-4.3,18.2-7.5c2.3-1.2,4.3-3,5.7-5.2c1.8-3.3,1.5-7.4-0.7-10.5c-3.7-4.6-8.4-8.3-13.7-11c-7.6-3.8-15.9-6.2-24.4-6.8
		c-5.6-0.4-11.2-1-16.8-1.5c-5.3-0.4-10.7-1.1-16-0.2c-5,0.8-10,1.7-14.9,2.8c-7.4,1.6-14.7,3.4-22,5.3c-2.9,0.8-5.8,1.7-8.6,2.8
		c-4.8,1.8-9.4,3.9-14.2,5.3c-6.3,1.9-12.5,4.2-18.5,6.9c-2.5,1.1-4.8,2.6-7.3,3.8c-4.4,2.1-8.9,4.4-13.4,6.2
		c-3.7,1.5-7.1,3.5-10.7,5.2c-9.2,4.4-18.3,8.8-27.5,13c-9.7,4.4-19.5,8.7-29.3,13c-0.5,0.2-1,0.4-1.5,0.6c-5.3,1.8-10.5,4-15.5,6.6
		c-1.5,0.7-3,1.4-4.5,2c-5.8,2.2-11.7,3.9-17,7.1c-0.6,0.3-1.2,0.6-1.9,0.8c-10.1,3.6-20.1,7.3-30.2,10.9c-3.3,1.2-6.8,2.2-10.3,2.9
		c-7.8,1.5-15.7,2.8-23.5,3.8c-7.7,1-15.3,0.7-22.7-2.2C349.2,239.8,347.9,239.4,345.9,238.7z M604.1,278.5
		c-0.2,1.8,0.6,3.1,1.2,4.5c2.3,5.3,4.7,10.5,7.1,15.7c4.5,9.6,6.4,20.3,5.4,30.8c-0.3,2.8-0.9,5.7,0,8.6s1.7,6.1,2.7,9.1
		c0.4,1.2,1,2.3,1.8,3.2c3.7,4.9,8.8,7.9,14.2,10.1c4.7,1.9,9.7,2.8,14.6,4.1c4.4,1.1,8.9,1.7,13.5,1.5c1.8,0,3.6,0.1,5.3,0.2
		c6.4,0.6,12.9,0.9,19.3,0.9c4.7-0.2,9.3-0.3,14-0.7c2.6-0.2,5.1-1.2,7.6-1.7c5.3-0.9,10.4-2.3,15.5-4.1c2.7-1,5.5-1.8,8.2-2.7
		c6.5-2.2,12.7-5.1,18.6-8.7c9-5.5,17.6-11.7,26.7-16.9c3.8-2.2,7.3-4.9,10.9-7.3c5.5-3.6,11.3-6.7,16.4-11c0.4-0.4,0.9-0.7,1.4-0.9
		c4.9-2.5,9.5-5.4,13.9-8.7c2.4-1.8,5-3.4,7.3-5.3c3-2.5,6.4-4.6,9.9-6.3c6.6-3,13.1-6.3,20-8.7c1.9-0.7,3.8-1.6,5.7-2.3
		c2.2-0.9,4.4-1.5,6.7-2c6.5-1.1,13-2,19.5-2.8s13.1-0.1,19.7,0.9c2.7,0.5,5.4,0.8,8.2,0.9c4-0.1,7.9,0.4,11.8,1.3
		c2.5,0.6,5,1,8.4,1.7c-0.6-0.7-1.2-1.4-1.8-2c-3-1.9-6-3.9-9.1-5.6c-4.2-2.3-8.5-4.5-12.8-6.6c-7.2-3.8-14.6-6.9-22.3-9.4
		c-3-0.9-6-2-9-3c-8-2.8-16.3-4.9-24.7-6.5c-5.8-1.1-11.7-1.8-17.5-2.7c-9.2-1.5-18.6-1.8-27.9-1c-6.6,0.6-13.1,1-19.7,1.2
		c-7.3,0.2-14.5,1.5-21.4,3.8c-8.2,2.7-16.4,5.5-24.4,8.7c-11.3,4.6-23.1,7.9-34.2,12.9c-0.5,0.2-1,0.4-1.5,0.6
		c-2.3,1-4.5,1.9-6.8,3c-7.8,3.9-15.3,8.5-23.7,11.5c-4.3,1.5-8.3,3.5-12.8,4.5c-5.5,1.2-10.9,2.5-16.4,3.9
		c-1.9,0.5-3.8,0.6-5.7,0.5c-4-0.3-7.9-0.4-11.9-0.7c-1.5-0.2-3-0.5-4.4-1c-1.2-0.3-2.3-0.8-3.5-1.1c-5.5-1.3-10.7-3.7-15.1-7.2
		C610.1,283.2,607.2,280.9,604.1,278.5z M12.7,670.5c0.7-0.2,1.4-0.4,2-0.7c1.3-0.8,2.4-1.8,3.7-2.6c6.6-4,11.3-10,15.7-16.1
		c4.1-5.9,7.5-12.1,10.3-18.7c1.2-2.9,3-5.6,4.4-8.3c1.1-2,2.2-4.1,3.2-6.2c2.5-5.8,4.8-11.7,7.4-17.4c3.7-8.1,8.1-15.9,13.3-23.2
		c1.4-1.9,2.6-3.9,3.6-6c2.3-4.7,5-9.1,8.1-13.3c6.4-8.6,14.4-15.9,23.5-21.6c8.1-5,16.2-9.8,24.4-14.4c6.6-3.7,13.5-6.6,20.5-9.6
		c5.5-2.4,11.2-4.6,16.5-7.5c4.9-2.7,10.1-5,15.3-7.1c1.3-0.5,2.5-1.1,3.7-1.8c8.6-5,16.2-11.3,23.6-17.8c1.2-0.9,1.8-2.5,1.5-4
		c-0.4-2.6-0.7-5.2-0.9-7.8c-0.2-4.7-0.9-9.3-2-13.8c-1.9-8-3.7-16-5.5-24c-0.8-3.6-1.5-7.3-2.6-10.8c-2.4-7.6-5.1-15.1-7.7-22.6
		c-0.5-1.4-0.8-2.9-2.2-4c-0.5,0.7-0.9,1.4-1.3,2.1c-1.2,1.8-2.4,3.7-3.7,5.4c-4.4,5.8-10,10.5-15.5,15.3c-1.2,0.9-2.4,1.8-3.7,2.5
		c-3.4,2.1-6.8,4.1-10.3,6.1c-2.3,1.3-4.6,2.4-6.9,3.6s-4.4,2.2-6.6,3.3s-4.1,2.2-6.2,3.1c-11.2,5.2-22.4,10.3-33.6,15.6
		c-6.8,3.3-13.3,7.1-19.5,11.4c-2.7,1.9-5.4,3.8-8.1,5.6c-4.5,2.9-8.7,6.2-12.8,9.7c-7.3,6.3-13.6,13.6-20.1,20.7
		s-12.1,15.3-17.9,23c-2.5,3.3-4.7,6.8-6.4,10.5c-4.4,9.2-8,18.7-10.8,28.4c-1.4,5.2-2.9,10.3-4.3,15.5c-0.1,0.9-0.2,1.8-0.2,2.7
		c0.5-0.2,0.8-0.3,1-0.5c3.5-3.7,7-7.3,10.5-11c1-1,2-1.9,3.1-2.7c7.9-6.7,16.8-11.9,25.5-17.3c5.3-3.4,11-6.2,16.9-8.4
		c1-0.4,2.1-0.6,3.2-0.7c0.9,0.1,1.5,0.9,1.4,1.7c0,0.3-0.1,0.5-0.3,0.7c-0.6,0.7-1.4,1.3-2.1,1.9c-4.6,3.6-8.8,7.4-11.8,12.5
		c-0.6,0.9-1.3,1.8-1.9,2.7c-2.8,4.1-5.6,8.1-8.3,12.2c-7,10.7-9.4,22.7-10.3,35.1c-0.4,5.3-0.5,10.7-0.6,16
		c-0.3,11.5-2.5,23-6.7,33.7c-2.3,6.2-5,12.2-9.9,16.9C13.6,669.1,13.1,669.8,12.7,670.5L12.7,670.5z M468.9,468
		c-0.9-2.6-2-5.1-3.3-7.6c-1.6-3-3-6.2-4.1-9.4c-3.5-11-8.2-21.5-12.6-32.1c-1.3-3.2-2.9-6.2-4.3-9.4c-3-6.9-6.1-13.8-9-20.7
		c-2.1-5.1-5.4-9.6-9.6-13.2c-3.3-2.7-6.6-5.3-10.9-6.4c-5.5-1.3-10.7-0.2-15.6,2c-5.2,2.4-9.7,5.6-12.9,10.5
		c-0.5,0.8-1.1,1.6-1.7,2.4c-3.6,4.9-4.6,10.5-4,16.4c0.5,4.3,1.9,8,5.8,10.3c0.7,0.4,1.3,1,1.8,1.6c0.3,0.4,0.3,1,0.1,1.5
		c-0.3,0.4-0.9,0.6-1.4,0.5c-1.4-0.6-2.7-1.2-4-2.1c-4-3.1-8.6-5.4-13.5-6.9c-6.4-1.8-12.8-1.9-18.8,1.4c-4.5,2.5-8.9,5.5-12.2,9.6
		c-5.8,7-9.8,14.8-10.6,24c-0.8,8.8,1.9,16.5,7.3,23.3c3.9,4.9,9.2,7.7,14.6,10.5c4.9,2.6,10.4,3.5,15.7,4.9
		c3.1,0.7,6.2,1.1,9.4,1.1c8.4,0.2,16.7-0.9,25.1-1.5c3.3-0.3,6.6-0.3,9.8-0.9c8.4-1.5,16.8-3,25.1-4.8c10.4-2.3,21-3.9,31.7-4.8
		C467.4,468.3,467.9,468.2,468.9,468z M431.6,600.4c-0.1-0.4-0.1-0.5-0.2-0.6c-4.8-2.7-10-4.6-15.3-5.7c-2.8-0.5-5.6-1.2-8.3-2.2
		c-3.9-1.4-7.8-2.7-11.6-4.2c-11.6-4.4-22.8-9.3-33.2-16.2c-6.1-4.2-12.7-7.7-19.6-10.3c-2-0.8-4-1.8-5.9-3c-3.4-2-6.7-4.3-10.1-6.3
		c-6.2-3.6-12.2-7.4-17.5-12.2c-2.6-2.3-5.8-3.8-9.3-4c-2.2-0.2-4.3-0.7-6.5-1s-4.3-0.8-6.2,0.8c-0.7,0.4-1.5,0.7-2.3,0.8
		c-2.3,0.6-4.4,1.6-6.3,3c-3.3,2.2-6.2,5.1-8.5,8.3c-3,4.1-6,8.2-7.6,13.1c-0.6,1.8-1.1,3.7-1.7,5.5c-1.8,5.2-2.4,4.4-6.1,4.4
		c-4.5,0-9-0.2-13.5,0.7c-9.7,1.9-19,5.4-27.6,10.3c-4.4,2.6-8.2,6.1-11.1,10.3c-3.6,5-6.4,10.6-9.4,16c-0.3,0.7-0.5,1.4-0.6,2.1
		c5.2,0,10.4-0.3,15.5-0.8c1.9-0.2,3.8-0.4,5.7-0.4c2.2,0,4.4,0.5,6.5,0.5c6.3,0,12.6,0.2,18.9-0.3c5.2-0.4,10.4-0.4,15.6-0.5
		c2.7-0.1,5.5-0.1,8.2-0.2c9-0.3,18.1-0.6,27.1-1c4.1-0.2,8.3-0.1,12.3-0.5c9.8-1,19.7-1.4,29.5-1.9c5.3-0.3,10.7-0.4,16-0.7
		c6.2-0.3,12.3-1.3,18.5-1.1c1.1,0,2.2-0.2,3.3-0.4c5.5-0.9,11.2-1.4,16.8-1.5c12.5,0.2,25,0,37.4,0
		C427,601.1,429.3,600.9,431.6,600.4z M715,179.4c-1,0.5-1.8,0.8-2.5,1.1c-3.6,1.7-7.1,3.7-10.7,5.2c-6.4,2.5-12.9,4.6-19.6,6.3
		c-10.2,2.8-20.4,5.4-30.1,9.7c-5,2.2-9.9,4.7-14.9,7c-1.5,0.7-2.4,2.2-3.8,3.1s-3.1,0.9-4.6,1.4c-0.6,0.3-1.2,0.6-1.8,1
		c-5.4,3.4-10.6,7.3-15.5,11.5c-6.8,5.9-9.9,13.7-12,22c-0.2,0.5-0.2,1.1-0.2,1.6c0.2,1.2,0,2.5-0.7,3.5c-0.4,0.7-0.6,1.5-0.6,2.4
		c-0.1,2.5-0.1,4.9,0.1,7.4c0.2,2.9,1.4,5.7,3.4,7.8c5.1,5.2,10.7,9.8,16.8,13.8c0.6,0.4,1.2,0.7,1.8,1c8.3,4,17.4,6,26.7,5.9
		c0.8-0.1,1.7-0.2,2.5-0.4c0.4-0.7,0.9-1.4,1.3-2.1c1.7-3.2,4.3-5.8,7.4-7.5c3-1.6,6.1-3.3,9.2-4.5c6.1-2.5,12.3-4.8,18.4-7.1
		c8.7-3.3,17.4-6.8,25-12.3c2.1-1.5,4.1-3.2,6-5c1.5-1.4,2.2-3.5,1.8-5.6c-0.6-3.9-1.5-7.8-2.5-11.6c-1.9-7.6-3.7-15.2-3.6-23.1
		c0-4,0.3-7.9,0.4-11.9c0.1-5.9,0.8-11.8,2-17.6C714.9,181.4,714.9,180.3,715,179.4L715,179.4z M138.1,428.8l4.7-2.5
		c1.5-0.9,3.1-1.7,4.8-2.4c4-1.5,7.7-3.5,11.2-5.9c2.3-1.5,4.8-2.7,7.1-4.1c1.5-0.9,3-1.9,4.4-3c2.7-2.3,5.3-4.7,7.9-7.2
		c3.7-3.5,6.9-7.5,9.4-11.9c2.4-4.4,1.6-8.9-2.1-12.3c-2-1.9-4-3.7-6.2-5.4c-2.5-1.9-5.1-3.6-8-5c-4.1-1.8-8.5-2.5-12.9-2.1
		c-2.7,0.1-5.4,0-8.2-0.3c-2.3-0.2-4.7-0.2-7-0.1c-2.5,0.2-4.9,0.5-7.3,1c-3.7,0.5-7.3,1.3-10.8,2.2c-3.4,1.1-6.9,1.6-10.5,1.6
		c-2.9,0-5.8-0.1-8.6-0.1c-1.1,0-2.1,0.1-3.5,0.1c0.3,1.1,0.8,2.2,1.3,3.2c3.9,6.8,7.9,13.5,13.1,19.4c3.1,3.2,5.7,6.7,7.7,10.6
		c2.8,5.6,5.4,11.4,8.1,17c0.6,1.2,1.1,2.5,1.8,3.7C135.3,426.9,136.6,428.1,138.1,428.8z M409.5,183.2c-0.6,0.3-1.1,0.7-1.6,1.1
		c-3.4,3-7.3,5.4-11.6,7c-5.6,2.1-11.5,3.6-17.5,4.5c-2.6,0.4-5.1,1.1-7.6,1.8c-10.9,3.5-19.6,10.3-27.5,18.3
		c-1.5,1.6-2.7,3.5-3.7,5.4c-1.1,2-1,4.4,0.2,6.3c2.1,3.9,5.4,7,9.5,8.7c7.5,3.1,15.8,4,23.8,2.7c3.7-0.6,7.3-1.4,11-1.7
		c12.2-1.1,23.5-5.1,34.8-9.6c0.6-0.3,1.1-0.6,1.7-0.9c-1.5-3.4-3.2-6.7-4.5-10.1c-1.4-3.6-2.6-7.3-3.5-11
		c-0.9-3.6-1.6-7.2-2.2-10.9S410,187.3,409.5,183.2z M648.8,537.8c6.9-0.5,12.9-0.8,18.9-1.3c9.6-0.8,19.1-1.4,28.7-1.3
		c5.1,0,10.2-0.2,15.2-0.5c6.7-0.5,13.4-1.3,20-2c4.9-0.5,9.8-1,14.7-1.5c0.6-0.1,1.4,0.1,1.6-1.2c-4.7-4.2-10-7.2-16.8-7.1
		c-1.2,0-2.5,0-3.7,0c-1.6,0.2-3-0.7-3.6-2.2c-1.8-5-5.6-8-10.2-10.3c-6.1-3-12.2-3.5-18.3,0.5c-4,2.7-7.9,5.4-10.8,9.4
		c-0.9,1.2-2,2.3-2.8,3.5c-2,3.2-4.4,4.2-8.3,2.8c-3.9-1.5-8.3-1-11.8,1.3c-1.5,1-3.2,1.7-4.7,2.5
		C653.9,532.1,651.5,534.4,648.8,537.8z M41.5,295.5c2.7,0,5.2,0.1,7.6,0c6.4-0.3,12.9-0.5,19.3-1c5.9-0.4,11.7-1.1,17.6-1.7
		c2.3-0.2,4.6-0.6,6.9-0.6c6.6-0.1,13.1,0,19.7-0.1c0.9,0,2,0.2,2.6-1.2c-1.3-4.1-3-8.3-4.1-12.7s-1.7-9.1-2.5-13.7
		c-0.7-0.3-1.4-0.6-2.1-0.8c-4.5-0.6-9.1-0.2-13.4,1c-1.1,0.3-2,0.8-2.9,1.5c-2.8,2.8-5.6,5.6-8.2,8.6c-1,1.4-1.9,3-2.6,4.6
		c-0.4,0.7-0.6,1.5-1,2.2c-0.5,1.1-1.7,1.6-2.8,1.2c-2.8-0.6-5.6-1.2-8.4-1.8c-2.8-0.6-5.8-0.2-8.4,1.1c-1.9,1-4,1.9-6,2.7
		c-3.3,1.4-6.3,3.3-9,5.7C42.6,291.9,41.4,293.1,41.5,295.5z M132.4,330.9c-2.1,0.2-3.3,1.9-5,2.8c-6.8,3.4-12.7,8-18.3,13.1
		c-3.2,2.7-5.9,6.1-8,9.8c-1.1,2.1-1.6,4.4-1.4,6.8c0.1,2.9,1.5,5,4.8,5c1.4,0,2.7,0.2,4.1,0.2c5.6,0,11.3,0.2,16.5-2.2
		c0.5-0.2,1-0.4,1.6-0.5c7.9-1.2,15.7-3.5,23.9-3.2c0.1,0,0.2-0.1,0.5-0.4c-0.1-0.5-0.2-1-0.4-1.4c-1.6-2.7-2.8-5.6-3.7-8.7
		c-0.6-1.8-1.6-3.5-3-4.8c-1.1-1-2.1-2.1-3-3.3c-2-3-3.8-6-5.7-9C134.3,333.7,133.7,332,132.4,330.9L132.4,330.9z M604.2,199.8
		c1.4,0.5,3,0.3,4.3-0.5c2.6-1.5,5.2-3,7.6-4.8c1.1-0.8,2-1.9,2.6-3.1c2.4-3.9,3-8.6,1.8-13c-0.4-2.1-2-3.7-4.1-4.1
		c-3.1-0.8-6.3-0.4-9.2,1c-2.6,1.3-5.1,2.7-7.5,4.1c-0.8,0.6-1.5,1.2-2.2,1.9C599.6,187.8,601.8,193.9,604.2,199.8z M314.3,246.5
		c-0.9,2-1.2,4.2-0.8,6.4c0.3,3.1,0.9,6.2,1.7,9.3c4.5,14.4,12.9,26.1,24.2,36c0.4,0.3,0.8,0.5,1.3,0.7c0.5-1.3-0.4-1.7-0.9-2.3
		c-4.1-4.6-7.7-9.6-10.7-15.1c-3.1-5.5-5.3-11.4-6.5-17.6c-0.6-2.8-0.7-5.7-0.1-8.6c0.6-2.7,2-3.5,4.8-3.1c0.7,0.1,1.4,1,2.1-0.1
		c-1.1-1.4-2.4-2.7-3.9-3.6c-0.4-0.3-0.9-0.5-1.5-0.6C320.9,247.4,317.6,247,314.3,246.5z M626.4,210.3c-6-3.3-12-3.6-17.9-4.8
		c-0.4-0.1-0.9,0.2-1.8,0.4c2.4,4.6,3.8,9.4,6.5,13.8C617.3,216.3,622,214,626.4,210.3L626.4,210.3z M128.7,322.4
		c-0.8-2.7-1.6-5.2-2.4-7.6c-0.1-0.5-0.4-1.1-1.4-0.7c-0.2,1.9-0.3,3.9-0.1,5.9C124.9,322.5,125.1,322.7,128.7,322.4z"/>
	<path d="M259.5,351.4c1.5,0.2,2.9,0.2,4.3,0.5c0.8,0.1,1.6,0.4,2.3,0.8c0.5,0.5,0.7,1.1,0.6,1.8c0,0.4-0.6,0.9-1.1,1.1
		c-0.5,0.2-1.1,0.2-1.6,0.1c-7.4-1.1-14.1,1.2-20.5,4.5c-5.3,2.6-10,6.4-13.7,11c-0.2,0.4-0.5,0.7-0.8,0.9c-0.5,0.4-1.1,0.6-1.7,0.8
		c-0.6,0.1-0.7-1.1-0.2-2.1c0.3-0.7,0.7-1.5,1.1-2.2c-0.2-0.4-0.5-0.7-0.8-1.1c-7.3-6.4-12.9-14.2-18-22.3
		c-3.1-4.5-5.7-9.4-7.7-14.5c-0.5-1.4-1.4-2.7-0.8-4.7c0.4,0.4,0.8,0.9,1.1,1.4c4.6,11.8,11.8,21.9,20,31.4c1.9,2.1,4,4.1,6.3,5.9
		c1.9,1.6,2.3,1.4,4.3-1c-0.3-1.5-1.7-2.1-2.6-3c-6.8-6.1-12.7-13.3-17.3-21.3c-5.6-9.9-9.3-20.5-10-31.9c-0.1-2.5,0-4.9,0-7.4v-2.8
		c-1-0.1-1.2,0.6-1.5,1.1c-2.3,3.7-4.7,7.4-7,11.1c-0.5,0.8-1.1,1.5-1.9,2.1c-0.6,0.3-1.3,0.2-1.9-0.1c-0.5-0.4-0.7-1.1-0.6-1.7
		c0.5-1.1,1.1-2.2,1.8-3.2c5.5-7.5,10.2-15.6,14-24c2.8-5.8,5-11.9,6.5-18.1c0.7-2.4,0.8-4.9,0.4-7.3c-0.1-0.5-0.1-1.1,0-1.6
		c0.1-0.4,0.4-0.7,0.7-0.9c0.5-0.1,1-0.1,1.5,0.1c0.9,0.6,1.5,1.7,1.4,2.8c0.1,2.5-0.1,4.9-0.5,7.3c-0.9,3.7-2.3,7.3-3.5,11
		c-0.5,1.5-1.2,3-1.9,4.9c0.7,0.1,1.4,0.1,2.1,0.1c5.5-0.4,11,1,15.6,4.2c5,3.4,9.3,7.7,12.7,12.8c5.6,8.2,9.4,17.3,12.4,26.8
		c2.4,7.7,4.3,15.6,5.7,23.6C258.9,349.3,259.2,350.3,259.5,351.4z M237.5,359.2c-0.8-1-1.7-2.2-2.7-3.3c-4.3-5-8.2-10.3-11.8-15.8
		c-6-9-10.8-18.8-14.4-29c-1-3-1.5-6.1-1.3-9.3c0-1.8,0.5-3.6,1.4-5.1c1.7-3.1,5.5-4.3,8.7-2.6c0.2,0.1,0.4,0.2,0.6,0.4
		c1.3,0.8,2.4,1.8,3.4,3c2.1,2.4,3.7,5.1,4.8,8.1c2,5.3,3.9,10.5,5.7,15.9c3.5,10.4,6.8,20.9,10.2,31.3c0.1,0.5,0.3,1,0.6,1.5
		c0.4,0.7,0.8,1.3,1.2,1.9l11.9-4.2c-0.1-1.3-0.1-2.4-0.3-3.5c-1.2-7-2.7-14-4.8-20.8c-2.4-8.3-5.8-16.3-10.1-23.8
		c-2.5-4.3-5.5-8.2-9-11.7c-4.4-4.2-9.4-7.1-15.5-7.7c-2.3-0.3-4.6-0.4-6.8,0.7c-0.3,0.6-0.5,1.1-0.7,1.6
		c-3.6,9.4-4.2,19.8-1.6,29.5c4.3,17.5,14,31.7,27.6,43.4c0.4,0.4,0.9,0.7,1.4,0.9C236.5,360.9,237.1,360.5,237.5,359.2L237.5,359.2
		z"/>
	<path d="M744.7,122.4c0.6,1,1.1,1.9,1.7,2.8c2.1,3.7,4.4,7.3,8.3,9.5c1.5,0.9,3.1,1.7,4.7,2.5c1.3,0.5,2.6,0.7,3.9,1.2
		c5,1.8,10.2,1.6,15.4,1.5c4-0.1,8,0,11.9,0.2c1.5,0.1,3,0.5,4.3,1.1c1.6,0.7,3.2,1.6,4.9,2.5c0.8-0.7,1.8-1.3,2.5-2
		c2.8-2.6,6.2-4.6,9.9-5.7c0.8-0.2,1.6-0.5,2.3-0.8c3.4-1.3,7-1.5,10.5-0.8c1.3,0.3,2.7,0.5,4.2,0.8c1.4-2.7,2.4-5.5,3.1-8.5
		c0.9-3,2.1-5.9,3.7-8.7c0.3-0.5,0.6-0.9,0.9-1.4c1.2-1.5,2.8-1.3,3.6,0.4c0.2,0.4,0.3,0.8,0.4,1.2c0.7,4.2,2,8.3,1.5,12.6
		c-0.3,1.9-0.6,3.8,0.5,5.9c1-0.1,2.1-0.3,3.1-0.4c2.6-0.3,5.2-0.6,7.8-0.8c0.3,0,0.6,0,0.8,0.1c0.8,0.1,1.7,0.4,1.8,1.3
		c0.1,0.7-0.1,1.3-0.4,1.9c-1.1,1.2-2.3,2.3-3.7,3.3c-2,1.5-4,2.8-6.3,4.3c0,0.5,0.1,1,0.2,1.5c3,6.8,1.7,13.4-0.7,20
		c-1,2.8-2.4,5.6-3.5,8.3c-0.3,0.7-0.6,1.5-0.9,2.3c4.3,3.7,6.2,8.8,7.9,13.8c1.7,5.2,4.6,10,8.5,13.9c1.2,1.1,2.4,2.2,3.8,3.2
		c1.1,1,2.6,1.6,4.1,1.7c0.7,0.1,1.3,0.3,1.9,0.6c0.7,0.5,0.9,1.4,0.4,2.1c-0.1,0.1-0.2,0.2-0.3,0.3c-0.2,0.2-0.4,0.3-0.7,0.4
		c-3.4,0.9-6.8,1.9-10.3,2.8c-0.8,0.2-1.6,0.3-2.4,0.2c-4-0.7-8.3-0.5-12-2.6c-0.4-0.1-0.7-0.2-1.1-0.2c-11.4,9.8-25.1,9.1-34.3-6.1
		c-0.8,0.3-1.7,0.6-2.5,1l-11.7,5.1c-0.9,0.4-1.8,0.7-2.6,1.1c-7.3,4-15.3,5.9-23.3,8.1c-3.5,0.8-7,1.4-10.5,1.6
		c-5.3,0.6-10.6,1-15.9,1.5c-0.4,0.1-0.8,0.1-1.2,0.1c-0.9,0-1.6-0.6-1.8-1.4c-0.4-0.9,0-2,0.9-2.5c0.9-0.4,1.8-0.6,2.7-0.6
		c1.8-0.1,3.5-0.7,5-1.6c6-3.2,10.9-7.9,15.6-12.6c2.2-2.3,4-4.9,5.2-7.8c1.4-3.2,3-6.2,5-9c0.3-0.5,0.5-1.1,0.7-1.6
		c-1.3-0.7-2.6-1.2-3.8-1.8c-8.2-4.4-13.6-10.9-15.7-20c-0.7-3.7-0.2-7.5,1.6-10.8c0.5-1.1,1.2-2.1,1.9-3.4c-1-0.7-1.8-1.3-2.7-1.8
		c-2.7-1.6-5.1-3.7-7-6.2c-3.3-4.1-5.5-8.9-6.2-14.1c-0.2-1.8-0.2-3.5-0.1-5.3C740.5,124.1,741.6,122.6,744.7,122.4z M849.9,139
		c-2.9,0.5-4.9,0.8-6.9,1.1c-2.5,0.3-3.5-0.3-3.7-2.7c-0.2-2.5-0.2-4.9,0-7.4c0.2-3-0.2-5.9-1-8.8c-1.1,1.3-1.8,2.8-2.3,4.3
		c-1.1,3.1-2.2,6.2-3.3,9.3c-1.5,4.4-1.7,4.6-6.2,3.3c-7.1-2.2-13.5-0.2-19.7,3.1c-2,1-3.8,2.4-5.1,4.2c0.7,0.9,1.4,1.8,2,2.6
		c1.5,2.1,2.5,4.6,2.8,7.2c0.1,0.4,0.1,0.8,0,1.2c-0.1,0.3-0.2,0.5-0.5,0.6c-0.4,0.1-1,0.1-1.1-0.1c-0.7-1-1.3-2.1-1.7-3.2
		c-1.2-3.5-3.7-6.1-6.5-8.3c-1.8-1.5-4.1-2.3-6.4-2.4c-3.6,0-7.1,0-10.7,0c-2.7,0-5.5,0.2-8.2,0.2c-1.2,0-2.4-0.2-3.6-0.4
		c-1.9-0.4-3.7-0.9-5.6-1.4c-3.3-0.7-6.5-2-9.5-3.8c-3.5-2.4-6.4-5.7-8.4-9.4c-0.4-0.8-0.4-2-1.8-2.2c-0.4,1.3-0.4,2.6,0.1,3.9
		c1.2,5.2,3.7,10.1,7.2,14.1c2.7,3.2,6.4,5.3,10.5,5.9c1.8,0.2,3.5,0.3,5.3,0.5c1.2,0.1,2.4,0.4,3.5,0.9c0.5,0.4,0.8,1,0.8,1.7
		c-0.2,0.6-0.6,1.2-1.2,1.5c-0.8,0.2-1.6,0.3-2.4,0.2c-2.3-0.1-4.6-0.3-7-0.4c-1.2,1.7-2.1,3.6-2.7,5.6c-1.2,3.1-1.1,6.6,0.2,9.6
		c3.1,7.7,8.4,13.2,16.3,15.7c4,1.3,8.1,2.6,12.5,1.8c0.9,0,1.9,0.2,2.7,0.6c0.5,0.3,0.8,0.8,0.8,1.3c-0.1,0.7-0.4,1.2-1,1.6
		c-2.6,0.9-5.2,1.6-8,0.9c-1.6-0.4-3.2-0.7-5-1.1c-0.3,0.4-0.5,0.7-0.8,1.1c-1.5,2.9-3.2,5.8-4.5,8.8c-1.7,4.5-4.4,8.6-7.9,11.9
		c-3,2.8-6.2,5.4-9.3,8.1c-0.4,0.3-1,0.5-0.4,1.5c1.6-0.1,3.4-0.3,5.1-0.5c1.4-0.2,2.7-0.5,4.1-0.6c3.3-0.3,6.5-0.9,9.7-2
		c2.5-0.7,5-1.5,7.5-2.3c3.3-0.8,6.5-2.1,9.6-3.7c1.5-0.7,3-1.4,4.6-1.9c1.8-0.7,3.6-1.3,5.3-2.1c7.5-3.4,14.6-7.5,21.3-12.3
		c5.7-3.8,10.8-8.5,14.9-14c5.1-6.8,8.7-14.7,10.4-23c0.6-3.4,0.2-6.9-1.3-10c-0.3-0.6-0.7-1.2-1-1.8c-0.8-1.2-0.4-2.8,0.8-3.6
		c0,0,0,0,0,0c0.8-0.6,1.6-1,2.4-1.5C847.3,141.7,848.8,140.5,849.9,139z M811,206.1c1.7,4.3,4.8,7,8.5,9.2c1.5,0.9,3.2,1.4,5,1.5
		c5.2,0,10.1-1,13.2-5.8c1.1-1.8,2.4-2.1,4.2-1c3.5,2.1,7.5,2.5,11.3,3.2c1.7,0.4,3.4,0.1,4.8-0.9c-0.3-0.5-0.6-0.9-1-1.3
		c-6-5-9.6-11.5-11.9-18.8c-0.5-2-1.2-3.9-2-5.8c-0.8-1.8-1.5-3.8-3.6-5.1c-0.7,0.9-1.4,1.7-2,2.5c-4.3,5.9-9.7,10.9-15.9,14.8
		C818.2,201,814.6,203.6,811,206.1z"/>
	<path d="M288,365.9c6.2,2.5,13.2,2.1,19.1-1c4.5-2.6,9-5.2,12.8-8.8c4.5-4.3,7.5-10,8.3-16.1c0.3-1.9,0.4-3.8,0.7-5.8
		c-1.2-0.4-2.3-0.9-3.4-1.5c-0.4-0.4-0.6-0.9-0.5-1.4c0-0.3,0.5-0.7,0.8-0.8c0.9-0.2,1.9-0.2,2.9-0.2c3,0.1,6.1-0.2,9-0.9
		c0.3-0.1,0.5-0.1,0.8-0.1c1.2-0.1,2.1,0.4,2.2,1.3c0.1,1-0.5,1.9-1.5,2.2c-1.4,0.5-2.9,0.8-4.6,1.2c0.2,0.6,0.5,1.2,0.8,1.8
		c4.9,8,6.5,16.7,5.5,26c-0.7,7.4-4.4,12.8-10,17.3c-3.6,2.8-7.9,4.5-12.4,4.9c-5.2,0.5-10.4,0.1-15.5-1.3c-3.1-0.8-5.9-2.2-8.4-4.1
		c-2.3-1.8-4.5-3.5-7-5.3c-1.1,1.1-1.1,2.4-1.6,3.4c-0.3,0.7-0.8,1.4-1.4,1.9c-0.6,0.3-1.3,0.4-1.9,0.2c-0.7-0.2-0.9-1-0.8-1.7
		c0-0.3,0.1-0.5,0.2-0.8c2.1-4.2,3.1-8.8,2.7-13.5c0-0.1,0-0.3,0-0.4c0.2-0.3,0.4-0.8,0.7-0.9c0.4,0,0.8,0.1,1,0.5
		c0.4,0.9,0.7,1.8,1,2.7C287.6,365,287.8,365.5,288,365.9z"/>
	<path d="M286.4,247.6c-0.4,4-0.7,7.9-1.3,11.8c-0.3,1.6-0.7,3.2-1.4,4.7c-0.4,1.1-1.6,1.7-2.7,1.4c-0.1,0-0.2-0.1-0.3-0.1
		c-1.4-0.6-2.8-1.2-4.1-2c-6.5-3.9-12.1-9.1-16.5-15.2c-7.8-10.7-12.8-23.1-14.8-36.2c-1.3-8-1.2-16.2,0.2-24.1
		c0.6-3.8,1.8-7.5,3.4-10.9c1.2-2.5,3.5-3.1,5.8-1.6c1.6,1.1,3,2.4,4.4,3.7c4.7,4.6,8.7,9.9,11.9,15.7c7.9,13.7,12.9,28.9,14.6,44.6
		c0.3,2.7,0.3,5.5,0.5,8.2L286.4,247.6z M279.2,226c-2.2-9.3-5.6-18.2-10.1-26.6c-0.9-2.1-3-3.4-5.3-3.2c-5.8,0.3-10.6,2.6-14,7.4
		c-1.4,1.7-2,4-1.5,6.2c1.1,4.7,2.2,9.3,3.4,14c0.2,1.2,0.9,2.3,1.9,3c-0.2,1.2,0,2.5,0.6,3.5c1.8,3.5,3.7,7,5.5,10.5
		c0.9,2.1,3.1,3.3,5.3,3c1.8-0.1,3.6,0,5.3-0.3c3.4-0.6,6.5-2.2,8.9-4.8c1.6-1.4,2.2-3.6,1.6-5.6c-0.3-1.2-0.6-2.4-0.8-3.3
		c-0.8-1.3-2.8-0.5-3-2.4L279.2,226z M264.6,192.4c-1.4-2.4-3.1-4.7-5-6.9c-0.7-0.9-1.8-1.3-2.9-1.3c-1.8,0.1-3.5,0.4-5.2,0.8
		c-2,0.4-3.4,2.1-3.4,4.1c-0.3,3-0.5,6-0.7,9c0,0.4,0.3,0.9,0.6,1.6C252.3,195.2,258.3,192.5,264.6,192.4z M281.6,241.7
		c-4,4.1-9.4,6.3-15.1,6.2c-0.3,0-0.6,0.4-0.9,0.7c2.1,2.8,4.5,5.2,7.3,7.3c0.5,0.4,1.2,0.6,1.9,0.5c2.4-0.4,4.7-1.5,6.5-3.2
		c0.4-0.4,0.6-0.9,0.7-1.4C282.3,248.4,282.2,245,281.6,241.7z M255.2,181.6c-0.8-1.4-2-2.6-3.4-3.3c-1.6,2.1-1.6,2.1-1.3,4.4
		L255.2,181.6z M281.3,256.6c-1.7,0.8-2.7,1.2-3.6,1.7c-0.1,0.1-0.1,0.5-0.2,0.9c1,0.5,1.7,1.6,3.4,1.1
		C280.9,259.3,281.1,258.3,281.3,256.6z"/>
	<path d="M633,617.4c2.4,0,4.7,0.1,7,0c6.5-0.2,12.5,1.7,18.4,4c1.9,0.7,3.8,1.6,5.6,2.6c4.6,2.3,7.8,5.9,10.6,10.1
		c0.3,0.5,0.5,1,0.6,1.5c0.3,1.2-0.5,2.5-1.7,2.7c0,0-0.1,0-0.1,0c-0.4,0.1-0.8,0.1-1.2,0.2c-6,0.5-12,1.2-18,1.4
		c-6.8,0.3-13.7,0.2-20.6,0.1c-3.6-0.1-7.1,0.1-10.7,0.5c-6.1,0.7-12.3,1-18.4,1.4c-9.3,0.5-18.7,0.3-28,0.2c-2.9,0-5.8,0.2-8.6,0.7
		c-5.7,0.8-11.5,1.2-17.2,1.2c-1.6,0-3.2,0-5,0c-0.1-0.6-0.1-1.2-0.1-1.7c0.1-0.7,0.4-1.3,0.8-1.9c2.6-3.3,4.8-7,8-9.8
		c3.9-3.5,9-5.5,14.3-5.5c2.7-0.2,5.5,0.1,8.2,0.8c0.8,0.2,1.7,0.4,2.5,0.5c0.8-1.2,1.6-2.2,2.3-3.4c4-7.3,10.6-11.3,17.9-14.3
		c6.4-2.7,13-2.9,19.8-1.5c4.9,1,9.2,3.9,11.9,8.1C632,615.8,632.5,616.6,633,617.4z M549.4,641.4c0.7,0.3,0.9,0.6,1.1,0.5
		c4-0.4,7.9-0.6,11.8-1.2c7.4-1.2,15-1.7,22.5-1.7c9.7,0.1,19.5,0.4,29.1-1.2c0.9-0.1,1.9,0,2.9-0.1c2.3-0.2,4.6-0.5,7-0.6
		c2.8-0.3,5.7-0.5,8.6-0.4c7.4,0.4,14.8,0.4,22.2,0c4.8-0.3,9.5-0.7,14.3-1.1c0.3,0,0.7-0.3,1.2-0.7c-0.4-0.7-0.9-1.4-1.5-2
		c-2.7-2.9-6-5.2-9.6-6.8c-7.5-3.5-15.2-5.4-23.5-4.5c-3.4,0.4-5.6-0.2-7.2-3.6c-1.9-4-5.4-6.3-9.9-7.3c-6.2-1.6-12.7-1.1-18.5,1.3
		c-6.4,2.7-12.1,6.3-15.6,12.7c-0.6,1.1-1.2,2.2-1.9,3.2c-1.4,2.2-2.3,2.5-4.8,1.8c-1.1-0.3-2.1-0.7-3.2-0.9
		c-7.8-1.5-14.7,0.1-20.2,6.2C552.5,636.9,551.1,639.1,549.4,641.4L549.4,641.4z"/>
	<path d="M295,102c2.6-1,4.8-2,7-2.6c1.7-0.4,3.5-0.6,5.3-0.6c2.4,0,4.6,1,6.2,2.8c1.8,2.1,3.5,4.2,5.2,6.3c1.6,0,3.3,0.1,4.9,0
		c4-0.3,6.8,1.9,9.5,4.2c0.9,0.8,0.8,1.9,0.4,3.3c-2.9-1.4-5.7-1-8.5-1c-2.6,0-5.2,0.1-7.8,0c-6.6-0.2-13.1,0.7-19.7,1
		c-3.3,0.2-6.6,0.1-9.9,0.1c-1.9,0-3.8,0.2-5.7,0.3c-2.2,0.1-4.4,0.2-6.6,0.2c-9.9,0.1-19.7,0.2-29.6,0.4c-1.1,0-2.1,0.1-3.2,0.2
		c0.2-3.5,2.9-6.8,7.3-9.2c3.6-2,7.7-1.7,11.7-2c0.4-0.7,0.8-1.4,1.2-2.1c3.3-7,9.2-9.8,16.5-10.3c1-0.1,1.9,0,2.9,0
		c2.6,0,5.2,1,7.1,2.8c1.3,1.2,2.5,2.6,3.7,3.9C293.6,100.3,294.2,101.2,295,102z M245.4,114.2c0.6,0.2,1.2,0.3,1.8,0.4
		c6.6-0.1,13.2-0.1,19.7-0.4c9.5-0.3,18.9-1.4,28.3-1.2c0.5,0,1.1-0.1,1.6-0.1c7.2-0.6,14.5-1.4,21.7-1.1c2.2,0.1,4.4,0,6.6,0
		c0.6,0,1.2-0.2,2.6-0.4c-1-0.6-1.5-1.1-1.9-1.1c-1.8-0.1-3.6,0-5.3,0.2c-1.9,0.4-3.9-0.5-4.9-2.2c-1-1.5-2.2-2.8-3.2-4.2
		c-2-2.6-4.6-3.2-7.7-2.8c-2.4,0.4-4.8,1.3-6.9,2.5c-2.7,1.5-4.1,1.1-6-1.3c-1.5-1.8-3-3.5-4.7-5.1c-1.4-1.4-3.3-2.1-5.2-2.1
		c-7.2-0.2-14.7,2.5-17.2,10.5c-0.1,0.3-0.2,0.5-0.3,0.8c-0.3,1-1.2,1.6-2.2,1.5c-1.9-0.1-3.8-0.3-5.7-0.2
		C252.1,108.2,248.5,110.2,245.4,114.2z"/>
	<path d="M170.1,27.9c0.9,0,1.8,0.2,2.7,0.5c1.9,0.8,3.6,1.9,5.2,3.2c4.2,3.9,8.3,8,11.4,12.9c1.3,2.1,2.4,4.3,3.5,6.5
		s2.1,4.5,3.3,6.6c5.5,9.7,9.2,20.2,11.2,31.2c1,4.3,1.2,8.7,0.5,13.1c-0.4,3-0.1,6.1,1,8.9c0.4,1.3,0.9,2.6,1.5,3.8
		c1.9,3.7,1.8,7.7,1.3,11.6c0,0.2-0.3,0.4-0.4,0.5c-1.1-0.5-0.8-1.4-0.7-2.1c0.3-3.6-0.4-7.2-2-10.4c-2-4.4-2.7-9.2-2.2-14
		c0.2-4.5-0.3-9.1-1.5-13.4c-2.5-10.1-5.7-20-11.1-29.1c-0.8-1.4-1.6-2.9-2.1-4.4c-1.5-4-3.7-7.7-6.4-11c-2.6-3.2-5.3-6.3-8-9.3
		C175.1,31,172.7,29.3,170.1,27.9z"/>
	<path d="M268.2,181.9c0.8,0,1.5,0.1,2.2,0.4c2.7,1.7,5,3.9,6.8,6.5c3.3,4.2,5.9,8.9,7.8,13.9c5.6,13.9,8.1,28.8,7.4,43.8
		c-0.1,0.8-0.2,1.6-0.5,2.3c-0.2,0.3-0.6,0.5-1,0.5c-0.4-0.1-0.7-0.3-0.9-0.7c-0.1-0.8-0.2-1.6-0.1-2.4c0.9-14.8-1.7-29.6-7.6-43.3
		c-1.5-3.4-3.2-6.7-5.1-9.8c-2-3.5-4.6-6.5-7.8-9c-0.5-0.4-0.9-0.9-1.3-1.5C268.2,182.6,268.2,182.4,268.2,181.9z"/>
	<path d="M237.9,194c0.6,1.4,0.3,2.7,0.1,4c-0.5,5.3-0.4,10.7,0.1,16c0.8,9.8,3.9,19.2,8.8,27.6c3.5,5.9,8.3,11,14,14.8
		c0.8,0.5,1.5,1.1,2.2,1.8c0.2,0.3,0.2,0.8,0,1.1c-0.2,0.3-0.6,0.5-1,0.5c-0.8-0.2-1.5-0.5-2.2-0.9c-4.4-2.8-8.3-6.3-11.4-10.6
		c-5-6.7-8.6-14.4-10.6-22.6c-2.5-9.6-3-19.6-1.4-29.4C236.6,195.6,236.6,195.6,237.9,194z"/>
	<path d="M179.5,240.6c2.2,3,2.2,5.4,1.2,7.7c-0.9,2-2.1,4-4.6,4.2c-3.1,0.2-6-0.5-8.1-3c-1.2-1.4-1.8-3.1-1.7-4.9
		c0.1-2,0.4-4.1,0.9-6.1c0.8-3.5,1.8-6.9,2.8-10.3c0.8-2.6,1.2-5.4,1.2-8.1c-0.1-1.6,0.1-3.2,0.9-4.7c0.5,0.5,1.1,0.8,1.1,1.2
		c0.6,3.4,0.5,6.8-0.3,10.2c-1.1,4.1-2.2,8.2-3.2,12.3c-0.3,1.5-0.5,3-0.5,4.5c-0.2,3,2.1,5.6,5.1,5.9c1.4,0.4,2.9-0.3,3.4-1.6
		c0.4-1,0.7-2,0.9-3.1C178.8,243.6,179,242.6,179.5,240.6z"/>
	<path d="M548.9,599.1c-0.5,0.5-0.8,1.1-1.4,1.3c-3.2,1.3-6.2,2.8-9.2,4.5c-2.2,1.1-4.5,2-6.9,2.6c-5.2,1.4-10.5,2-15.8,1.8
		c-9.5-0.3-13.9-7.9-13.9-14.3c0-4.1,0.4-7.9,3-11.1c0.8,0.1,1.1,0.5,1,1.1c-0.1,1-0.3,1.9-0.5,2.8c-0.7,3.4-0.8,6.8-0.4,10.2
		c0.3,4.6,3.9,8.2,8.5,8.7c4.3,0.7,8.7,0.7,13.1,0.1c3.9-0.6,7.8-1.8,11.2-3.7C541,601.1,544.9,599.7,548.9,599.1L548.9,599.1z"/>
	<path d="M240.8,494.9c1,0.4,0.9,1.2,1,1.8c0.6,4.6,0.2,9.3-1.1,13.8c-0.5,1.7-1,3.4-1.4,5.2c-0.7,2.7-0.9,5.4-0.7,8.2
		c0.3,3.1,4,6.3,7.2,6.3c0.8,0,1.6-0.5,2-1.3c0.9-1.7,1.4-3.6,1.2-5.5c-0.3-2.6-0.9-5.1-1.4-7.7c-0.4-2-0.8-4-1.1-6
		c-0.1-0.6-0.1-1.4,0.7-1.7c0.2,0.1,0.6,0.2,0.6,0.3c1.1,4.2,2.2,8.5,3.1,12.7c0.6,3,0.1,6.1-1.3,8.8c-0.6,1.6-2.2,2.5-3.9,2.4
		c-5-0.1-9.1-4-9.3-9c-0.1-3.4,0.4-6.9,1.5-10.1c1.7-4.9,2.6-10.1,2.5-15.3C240.5,496.7,240.7,495.8,240.8,494.9z"/>
	<path d="M519.8,573.4c-2.3,0.8-4.8,1.1-7.3,0.8c-3.4-0.4-6.9-0.2-10.2,0.5c-3.7,0.9-7.7,0.9-11.4-0.1c-5.5-1.4-11.1-1.6-16.6-2.8
		c-1.7-0.3-3.5-0.7-5.2-1.3c-4.2-1.3-8.3-2.7-12.4-4.2c-1.8-0.7-3.5-1.5-5.2-2.4c-0.4-0.2-0.7-0.7-1.4-1.4c0.5,0,1.1,0,1.6,0.2
		c6.6,3,13.7,4.6,20.6,6.8c2.1,0.5,4.3,0.9,6.5,1.2c4.3,0.7,8.6,1.3,13,2.1c3.1,0.6,6.3,0.7,9.4,0.3c4.1-0.6,8.2-0.6,12.3-0.1
		C515.2,573.1,517,573.2,519.8,573.4z"/>
	<path d="M610.7,497.8c-0.6,0.7-1.1,1.5-1.6,2.3c-3.3,7.3-8.6,13.5-15.2,18c-5.7,4.1-12.2,7-19.1,8.3c-4.7,0.9-9.4,1.9-14.1,2.7
		c-1.7,0.3-3.5,0.3-5.2,0c1.1-1.2,2.2-1,3.2-1c5.9-0.5,11.7-1.6,17.3-3.4c10.4-3.3,19.4-8.8,26.5-17.3c2.2-2.4,4.2-5.1,5.8-8
		C608.8,498.5,609.4,497.3,610.7,497.8C610.8,497.8,610.8,497.8,610.7,497.8z"/>
	<path d="M457.4,526.8c2.7,1.4,5.3,2.9,8,4.2c4.5,2.3,9.5,3.7,14.6,4.1c3.7,0.1,7.4-0.5,10.9-1.6c6.4-1.7,12.9-2.7,19.5-2.7
		c1.7,0,3.3,0.3,4.9,0.9c-0.8,0.3-1.6,0.6-2.5,0.7c-4,0.5-7.9,0.8-11.9,1.3c-3.3,0.5-6.5,1.1-9.7,1.8c-3.3,0.8-6.7,1.3-10.2,1.4
		c-5,0-9.5-1.5-13.9-3.4c-3.1-1.5-6-3.2-8.9-5.1C457.8,528,457.2,527.6,457.4,526.8L457.4,526.8z"/>
	<path d="M147.3,290.7c-1.8-1.8-3.2-4-3.9-6.4c-1.3-3.8-3.3-7.3-5.8-10.3c-3.4-4.1-5.2-8.9-6.5-14c-1.3-4.8-1.8-9.7-1.4-14.7
		c0.1-0.7,0.1-1.3,0.3-2c0.1-0.2,0.3-0.4,0.4-0.7c0.8,0.1,0.6,0.8,0.5,1.2c-0.8,3.8-0.6,7.7,0.5,11.4c1.1,4.2,2.1,8.5,4.5,12.3
		c1.5,2.3,3.1,4.5,4.8,6.6c3.7,4.5,5.3,9.8,6.8,15.3C147.4,289.9,147.4,290.3,147.3,290.7z"/>
	<path d="M327.4,390c0.6-0.4,1.2-0.8,1.8-1.1c1.1-0.5,2.3-0.9,3.4-1.4c5-2,8.9-6.1,10.5-11.3c0.5-1.4,1-2.8,1.6-4.2
		c0.2-0.3,0.6-0.4,1-0.4c0.4,0.1,0.7,0.4,0.8,0.8c0.2,0.4,0.2,0.8,0.2,1.2c-1.1,5.8-3.4,11-8.4,14.4c-2.7,1.9-5.9,2.9-9.2,3
		c-0.4,0-0.8-0.1-1.2-0.3C328,390.7,327.9,390.6,327.4,390z"/>
	<path d="M258.6,410.1c-1.7-0.4-3.1-1.6-3.8-3.2c-1.3-2.6-3.2-4.8-5.6-6.4c-2-1.5-3.7-3.1-5.6-4.7c-1.4-1.1-2.7-2.3-4.1-3.4
		c-2.6-2-4.5-4.8-5.2-8c0.9-0.5,1.1,0.1,1.3,0.5c1.4,2.8,3.6,5.2,6.3,6.9c1.2,0.9,2.3,1.9,3.4,2.9c1.4,1.3,2.9,2.4,4.5,3.5
		c3.1,1.8,5.5,4.6,6.8,7.9C257.2,407.6,257.9,408.8,258.6,410.1z"/>
	<path d="M634.6,525.9c1.4,1.8,1.7,4.2,0.9,6.3c-0.6,1.8-1.3,3.6-2.1,5.3c-0.5,1.1-1.3,2.1-2.3,2.8c-3.2,2.4-6.3,4.8-10.2,6
		c-1.4,0.6-2.7,1.2-4,2c-1.1,0.5-2.2,1-3.8,1.7c0.4-0.9,0.5-1.3,0.7-1.4c2.3-1.4,4.7-2.7,7.2-3.8c3.6-1.3,6.3-3.8,9.2-6
		c0.5-0.4,1-1,1.2-1.6c1.1-3.2,3-6.2,2.5-9.8C633.8,527.1,634.2,526.7,634.6,525.9z"/>
	<path d="M225,397.3c0.8,0,1,0,1,0c1.6,2.3,1.7,5.3,0.3,7.7c-0.5,1.1-1.7,1.8-3,1.7c-1.1-0.1-2.1-0.3-3.2-0.7
		c-1.7-0.4-2.8-2-2.6-3.8c0.1-1.8,0.3-3.5,0.6-5.3c0.7-2.4,1.1-4.8,1.3-7.2c0-0.3,0.3-0.6,0.6-1.1c0.4,0.4,0.8,0.6,0.9,0.9
		c0.4,2.2,0.3,4.4-0.3,6.5c-0.5,1.8-0.9,3.7-1.1,5.6c-0.2,1.7,0.5,2.5,2.2,2.8c0.4,0.1,0.8,0.1,1.2,0.1c1.1,0.1,2.1-0.7,2.2-1.8
		c0,0,0-0.1,0-0.1c0-1,0-1.9-0.1-2.9C225,399,225,398.2,225,397.3z"/>
	<path d="M863.1,108.1c0.5,0.8,0.3,1.7-0.3,2.4c-3.2,5.4-6.5,10.8-9.8,16.1c-0.5,0.8-1.2,1.5-1.9,2.1c-0.4,0.2-0.8,0.1-1.1-0.1
		c-0.3-0.2-0.5-0.6-0.5-1c0.2-0.7,0.5-1.3,0.8-1.8c1.9-3,3.7-6.1,5.7-9s4-5.5,6-8.3C862.3,108.3,862.8,108.2,863.1,108.1z"/>
	<path d="M475,627.8c1,3.4,2.3,6.6,2,10.2c-0.2,2.1-1.3,2.9-3.3,2.4s-3.4-1.8-3.3-4c0.2-2.4,0.5-4.9,0.9-7.3c0.4-2.7,1-5.4,1.5-8
		c0.2-0.5,0.4-1.1,0.7-1.6c0.5,2.1,0.5,4.3,0,6.4c-0.4,2.3-0.9,4.6-1.2,6.9c-0.2,1.2-0.2,2.4-0.2,3.7c0.1,1.5,0.5,1.8,2.8,2.1
		c0.6-1.5,0.6-3.2,0.1-4.8c-0.4-1.5-0.7-2.9-1-4.4c0-0.4,0.1-0.8,0.3-1.2C474.2,628.2,474.5,628.1,475,627.8z"/>
	<path d="M730.4,368.5c0.7,2.8,0.2,5.3-0.2,7.8c-0.3,1.6-0.8,3.2-1.3,4.7c-0.2,0.7-0.5,1.3-0.9,1.8c-2.4,2.6-5,5-8.5,6.2
		c-0.1-0.4-0.3-0.8-0.2-0.8c0.7-0.6,1.5-1.2,2.3-1.7c4.5-2.9,6.5-7.1,6.7-12.4c0.2-1.6,0.5-3.2,1.1-4.7
		C729.4,369.1,729.9,368.9,730.4,368.5z"/>
	<path d="M242.9,171.5c0-2.1,1-4,2.7-5.2c3.1-2.2,7.4-1.8,10.2,0.8c0.4,0.4,0.6,0.9,0.8,1.4c0.1,0.6-0.3,1.2-0.9,1.3
		c-0.2,0-0.4,0-0.6,0c-0.7-0.4-1.4-0.9-2-1.4c-2.8-1.9-6.7-0.2-7.3,2.6c-0.1,0.4-0.1,0.8-0.2,1.2c-0.1,0.7-0.7,1.3-1.4,1.2
		c-0.8-0.1-1.1-0.7-1.2-1.4C242.9,171.8,242.9,171.7,242.9,171.5z"/>
	<path d="M300.4,258.1c0.8,2.3,1.4,4,2,5.6c0.8,2.3,1.5,4.7,2.4,7c0.8,2,1.9,4,2.8,5.9s1.9,3.7,2.8,5.5c0.1,0.4,0.1,0.8,0.1,1.3
		C305.3,279,300.1,266.1,300.4,258.1z"/>
	<path d="M328.6,496.9c0.2,0.1,0.5,0.3,0.7,0.4c5.3,5.3,11.2,10,17.6,14c1.5,1,3.1,1.9,4,3.7c-4.9-2.5-9.6-5.5-13.8-9.1
		C333.9,503.3,330.8,500.5,328.6,496.9z"/>
	<path d="M249.5,303.7c3,3.6,4.5,6.9,8,17.2c1,2.3,1.4,4.7,1.4,7.1c-1.8-1.5-1.7-3.4-2.4-4.9c-0.6-1.5-1.1-3.1-1.7-4.6
		s-1.1-3.4-1.7-5s-1.2-3-1.7-4.6S249.7,305.9,249.5,303.7z"/>
	<path d="M278.2,270.3c1.8,0.5,2.6,0.9,3.6,1.1c2.9,0.7,5-0.4,6.2-3.2c0.3-0.7,0.4-1.6,0.8-2.3c0.2-0.3,0.6-0.5,1-0.4
		c0.4,0.1,0.7,0.4,0.8,0.8c0.4,3.9-2.5,7.3-6.3,7.7c-0.5,0.1-1,0-1.5,0c-1.3-0.3-2.5-0.9-3.7-1.6
		C278.6,272.1,278.6,271.4,278.2,270.3z"/>
	<path d="M271.1,297.8c0.3-0.9,0.7-1.9,1.1-2.9c0.3,0.2,0.6,0.3,0.6,0.4c0,0.8,0,1.6-0.2,2.4c-0.2,0.5-0.5,1-0.9,1.3
		c-1.4,1-2.9,0.5-4.3-0.1c-1.2-0.4-2-1.6-1.9-2.9c0.3-3.8,0.5-7.6,0.9-12.1c0.3,0.5,0.5,1.1,0.6,1.7c0,2.6,0,5.2,0,7.8
		c-0.1,0.4-0.1,0.8-0.1,1.2c0,0.9,0.2,1.8,0.6,2.7C268.4,298.3,269.7,298.3,271.1,297.8z"/>
	<path d="M323.7,415.3l-14.8-10.5c2.2,0.3,4.2,1.1,6,2.3C318.4,409.2,321.4,412,323.7,415.3z"/>
	<path d="M506.6,498.3c-5.6-1.3-10.4-5.3-17.1-5.3C495.2,491.8,501.9,493.9,506.6,498.3z"/>
	<path d="M702.3,446.7c-2.5,4.7-6,8.7-7.3,14c-0.5-1.8-0.3-3.8,0.7-5.4C697.4,452,698.8,448.6,702.3,446.7z"/>
	<path d="M199.6,174l2.2,1.9c-0.4,1.4-1.4,1.1-2.3,0.8c-1-0.2-1.7-1-1.7-2c0.1-1.4,0.3-2.7,0.7-4c0.6-2,1.4-4,2.2-6.1
		c0.8-0.1,0.7,0.7,0.6,1c-0.1,1.6-0.4,3.2-0.7,4.8C200.4,171.6,200,172.8,199.6,174z"/>
	<path d="M853.6,129.7c0-0.2-0.1-0.4,0-0.4c2.2-1.9,5-2.6,7.7-3.4c0.3-0.1,0.5-0.1,0.8,0.1c0.4,0.3,0.8,0.6,1,1.1
		c0,0.4-0.1,0.8-0.5,1c-2.7,1.2-5.4,2.6-8.5,2.2C854,130.1,853.8,129.8,853.6,129.7z"/>
	<path d="M193.3,116c3.5,1.6,4.2,4.9,4.6,8.2c0.3,2.4,0.1,2.8-1.9,4.7c0.1-1.5,0.1-2.9,0-4.4c-0.1-1.5-0.5-3-0.9-4.4
		C194.6,118.7,193.9,117.4,193.3,116z"/>
	<path d="M612.8,493.9c2.1-3.5,3.8-7.2,6.4-10.3c0.9-1.3,1.7-2.8,2.5-4.2c0.5-0.8,0.8-1.8,2-1.7v0c-1.3,3.7-3.4,7.2-6,10.2
		c-1,1.1-1.5,2.6-2.4,3.8c-0.7,0.9-1,2.3-2.6,2.2L612.8,493.9z"/>
	<path d="M847.9,118.1c0.2,0.4,0.3,0.8,0.3,1.3c-0.2,2.4-0.5,4.9-0.8,7.3c-0.1,1-0.3,1.1-1.9,1.6c-0.6-2.8,0-7.7,1.2-9.9
		C847,118.2,847.5,118.2,847.9,118.1z"/>
	<path d="M351.4,341.3c0.5,0.1,1.1,0,1.5,0.3c1,0.9,2,1.8,2.9,2.9c2.1,2.6,4,5.3,6.5,8.6c-1.7-0.5-3.1-1.6-4.1-3l-6.6-8.8
		L351.4,341.3z"/>
	<path d="M276.6,500.7c4.4,1.3,8,4.3,10.2,8.3c-0.7,0.9-1.1,0.2-1.5,0c-0.7-0.6-1.4-1.3-2-2.1c-1.4-1.8-3.2-3.4-5.1-4.7
		C277.7,501.8,277.1,501.3,276.6,500.7z"/>
	<path d="M647.4,513.7c-4.6-0.9-4.6-0.9-10.4,1.8c1.5-2.4,4.1-4,6.9-4.1C645.5,511.3,647,512.2,647.4,513.7z"/>
	<path d="M301.7,200.9c1.6,1.1,2.9,2.8,3.5,4.6c0.6,2.1,0.6,4.3,0,6.3c-1.2-1.5-0.7-2.8-1-3.9c-0.3-1.2-0.6-2.4-1-3.5
		C302.9,203.4,302.4,202.4,301.7,200.9z"/>
	<path d="M184,168.1c-2.1,3.5-5,3.4-8.7,3L184,168.1z"/>
	<path d="M150.9,313.3c-1.8-1.8-2.8-4.3-2.7-6.8c0.8,1.6,1.6,3.1,2.4,4.7C150.9,311.7,151.5,312.2,150.9,313.3z"/>
	<path d="M335.8,305.6c-2.1-1.1-3.8-2.9-4.8-5.2C333.2,301.4,333.2,301.4,335.8,305.6z"/>
	<path d="M653.1,520l4.7-2.5C656.9,519.7,655.9,520.3,653.1,520z"/>
	<path d="M595.6,566.2c1.4-1.5,3.1-1.6,5.1-2.8C599.3,565.7,599.3,565.7,595.6,566.2z"/>
	<path d="M535.2,532.3c-2.4,0.7-3.6,0.2-4.7-0.8L535.2,532.3z"/>
	<path d="M326.4,495.5c-0.8-0.9-1.5-1.8-2.5-3.1C325.6,493.3,325.6,493.3,326.4,495.5z"/>
	<path d="M612.6,493.9c-0.1,0.6-0.3,1.1-0.5,1.7c-0.4,0.8-0.9,1.5-1.4,2.2c0,0,0.1,0.1,0.1,0.1C610.1,495.9,611.7,495,612.6,493.9
		L612.6,493.9z"/>
	<path d="M555.3,597.1c0.6-1,1.6-1.2,2.8-1.4c-0.7,0.9-1.8,1.4-2.9,1.3L555.3,597.1z"/>
	<path d="M563.5,594.9L563.5,594.9z"/>
	<path d="M396.6,545.5l-3.1-0.6C395.2,544.4,396,544.6,396.6,545.5L396.6,545.5z"/>
	<path d="M591.7,603.2c-0.4,1.1-1.2,1.1-2.3,0.9L591.7,603.2L591.7,603.2z"/>
	<path d="M238,147.5l-0.3,0.8c-0.3-0.2-0.8-0.3-0.8-0.5s0.2-0.6,0.3-0.9L238,147.5z"/>
	<path d="M319.5,486.9c0.4,0.6,0.8,1.1,1.2,1.8C319.4,488.5,319,488,319.5,486.9L319.5,486.9z"/>
	<path d="M212.5,137.9c-0.3,0.2-0.6,0.4-0.9,0.5c-0.2-0.2-0.3-0.4-0.4-0.6c0.3-0.3,0.6-0.5,0.9-0.7L212.5,137.9z"/>
	<path d="M555.2,597c-0.2,0.3-0.5,0.5-0.8,0.8c-0.1,0-0.3-0.1-0.5-0.2c0.1-0.1,0.2-0.3,0.3-0.3c0.4-0.1,0.8-0.1,1.2-0.2L555.2,597z"
		/>
	<path d="M351.5,341.2l-0.9-1.7C351.8,339.8,352,340.5,351.5,341.2C351.4,341.3,351.5,341.2,351.5,341.2z"/>
	<path d="M517.9,506l0.5,0.6c-0.2,0.1-0.5,0.2-0.5,0.2c-0.1-0.2-0.2-0.4-0.3-0.7L517.9,506z"/>
	<path d="M474,436.9c0.6-0.6,1-0.2,1.3,0.2c0.1,0.1,0.1,0.2,0.2,0.3c-0.2,0.1-0.5,0.2-0.6,0.2C474.5,437.4,474.2,437.2,474,436.9z"
		/>
	<path d="M266.5,420.6l-1.3-0.1v-0.4h1.3V420.6z"/>
	<path d="M715.4,428.2c0,0.1,0.1,0.2,0.1,0.4s-0.1,0.2-0.2,0.3c0-0.1-0.1-0.2-0.1-0.4S715.3,428.3,715.4,428.2z"/>
	<polygon points="307.5,482.8 307.9,482.9 307.6,483 	"/>
	<path d="M311.9,484.4l-0.6-0.4c-0.1-0.1-0.3-0.1-0.4-0.2c0.2,0,0.4-0.1,0.5,0c0.2,0.2,0.3,0.4,0.4,0.7L311.9,484.4z"/>
	<path d="M548.9,599.1h1v0.1L548.9,599.1L548.9,599.1z"/>
	<path d="M623.7,477.7l0.1-1l0.5,0.2L623.7,477.7L623.7,477.7z"/>
	<polygon points="306.9,226 306.8,225.7 307.1,225.7 	"/>
	<path d="M455.6,526.2c0.6,0.2,1.2,0.5,1.7,0.7l0.1-0.1c-0.8,0.2-1.5,0.4-1.8-0.7L455.6,526.2z"/>
	<path d="M396.6,545.4l0.3-0.1L396.6,545.4L396.6,545.4z"/>
	<path d="M454.1,525.2l1.5,1l0.1-0.1c-0.7,0.1-1.4,0.1-1.5-0.9L454.1,525.2z"/>
	<polygon points="554.4,566.9 554.7,566.8 554.6,567 	"/>
	<path d="M454.3,525.1c-0.6,0.2-1.3-0.2-1.4-0.8c0,0,0-0.1,0-0.1h-0.1c0.5,0.3,0.9,0.7,1.4,1L454.3,525.1z"/>
	<path d="M452.8,524.2l-0.8-0.1C452.3,524.1,452.5,524.1,452.8,524.2L452.8,524.2z"/>
	<polygon points="663.2,439.4 662.9,439.3 663.2,439.1 	"/>
	<polygon points="262.5,343.3 262.6,343.6 262.4,343.5 	"/>
	<path d="M316.9,486.9l-1.2-1.1l-0.1,0.1c0.8,0,1.2,0.3,1.2,1.1L316.9,486.9z"/>
	<path d="M591.8,603.2l0.9,0.1v0.1L591.8,603.2L591.8,603.2z"/>
	<path d="M315.7,485.8l-1.5-0.9l-0.1,0.1l1.5,0.9L315.7,485.8z"/>
	<path d="M314.2,484.9l-2.2-0.5l-0.1,0.1c0.8-0.1,1.6-0.3,2.2,0.5L314.2,484.9z"/>
	<path d="M319.5,486.9c-0.8,0.5-1.8,0.5-2.6,0l-0.1,0.1C317.7,487,318.6,487,319.5,486.9L319.5,486.9z"/>
	<path d="M573.4,358.7l4.4-0.8c1.2-0.3,2.4-0.5,3.6-0.6c4.8-0.2,9.6,0.5,14.2,2.1c4.1,1.5,7.9,3.8,11.2,6.8c1.9,1.6,3.6,3.3,5.6,4.9
		c2.8,2.2,4.3,5.3,5.8,8.4c0.2,0.5,0.3,1,0.4,1.6c0.3,2.7-0.3,4.4-3.7,4.4c-10.6-0.2-21.1-0.2-31.7-0.3c-1.5-0.1-3,0-4.5,0.1
		c-10,1.5-20,0.9-30,1c-2.2,0-4.4,0.1-6.6,0.2c-13.6,0.5-27.2,0.5-40.7,0c-1.8-0.1-3.6,0.1-5.3,0.2c-2.6,0.1-5.2,0.3-7.8,0.5
		c-2.2,0.2-4.4,0.5-6.5,0.9c-2.4,0.5-4.8,0.3-7.1-0.5c-0.5-1.4,1-1.2,1.1-2c0-0.7,0.2-1.4,0.4-2c2.2-3.6,4.9-6.6,9.3-7.4
		c0.8-0.1,1.6-0.4,2.6-0.6c0.6-1.4,1.3-2.9,1.9-4.4c1.3-3.7,4.2-6.6,7.9-7.8c3.2-1.3,6.5-2.3,9.8-3.1c2.2-0.5,4.6-0.1,6.9,0
		c1.3,0.1,2.7,0.4,4.1,0.6c0.8-1.3,1.6-2.5,2.3-3.6c2.7-4.3,5.9-8.2,9.6-11.8c3.7-3.5,8.6-5.6,13.7-5.8c1.9-0.1,3.8-0.1,5.8-0.1
		c1.6,0.1,3.3,0.4,4.8,0.9c3.2,1.1,6.4,2.5,9.4,4.2c4.1,2.3,6.6,6.1,8.1,10.5C572.8,356.2,573,357.2,573.4,358.7z M614.2,381.6
		c0.1-0.3,0.3-0.6,0.2-0.9c-0.8-2.6-2.4-5-4.5-6.7c-1.4-1.1-2.8-2.2-4-3.5c-2.9-3-6.6-4.9-10.1-7c-1-0.5-2-0.9-3.1-1
		c-2.3-0.5-4.6-0.8-6.9-1.1c-2.7-0.4-5.5-0.3-8.2,0.4c-0.9,0.2-1.9,0.4-2.8,0.6c-4.6,0.8-4.7,0.6-5.5-4c-1-5.3-3.7-9.4-8.8-11.5
		c-1.1-0.5-2.3-1-3.3-1.6c-2.6-1.5-5.7-2.2-8.7-2.1c-1.4,0.1-2.7,0-4.1,0c-2.3,0-4.7,0.5-6.8,1.6c-3.4,1.7-6.4,4.3-8.7,7.4
		c-2.4,3.1-5,6.2-6.7,9.9c-1,2.2-2.8,2.8-5.1,2.4c-1.5-0.3-3-0.6-4.5-0.8c-1.3-0.3-2.7-0.3-4.1-0.1c-3.4,0.9-6.8,2-10.2,3.2
		c-2.4,0.8-4.3,2.7-5.1,5.1c-0.5,1.3-1.1,2.5-1.5,3.8c-0.7,2.2-2,3.6-4.4,3.7c-4.3,0.2-6.9,2.8-8.9,6.3c0.3,0.2,0.5,0.5,0.8,0.5
		c0.7,0,1.3-0.1,2-0.3c6.3-1.6,12.7-1.7,19.1-2.3c0.4,0,0.8,0,1.2,0c12.3,0,24.7,0,37-0.1c7.5-0.1,15.1-0.3,22.6-0.5
		c4.5,0,9-0.3,13.5-0.8c3.4-0.4,6.8-0.6,10.2-0.6c6.7-0.1,13.5,0,20.2,0L614.2,381.6z"/>
	<path d="M532.1,237.6c1.9,5.1,4.9,9.4,7.3,14c2.4,4.6,5,9.1,7.5,13.8c0.8,0.1,1.5,0.2,2.3,0.4c0.8,0.2,1.2,1,1,1.8
		c-0.1,0.3-0.3,0.6-0.6,0.8c-2.5,1.4-5.1,2.7-8,2.8c-0.5,0-1.2-0.6-1.5-1.1c-0.2-0.3,0.1-1.1,0.5-1.4c0.7-0.6,1.5-1.1,2.3-1.6
		c-1-3.8-3.5-8.7-9-18.5c-3.3-5.8-6.3-11.8-9.4-17.7s-6.6-12-10-18.2l-2.7-0.6c0.2-0.8,0.2-1.5,0.5-2c1.4-1.7,2.9-3.3,4.5-4.7
		c2.1-1.7,4.5-3.2,6.7-4.7c3.2-2.1,6.8-3.6,10.6-4.3c4.8-0.9,9.4-0.4,13.3,2.7c5.1,3.9,8.6,9.4,10,15.6c0.5,2,0.2,4.1-0.8,5.9
		c-3.2,5.9-7.6,10.3-14,12.5C538.9,234.5,535.6,236.1,532.1,237.6z M516.6,209.5c0.1,1.4,0.6,2.8,1.3,4.1
		c3.4,5.6,6.7,11.3,10.1,16.9c0.5,0.9,1.2,1.8,1.8,2.7c0.9-0.1,1.7-0.2,2.6-0.4c1.4-0.4,2.8-1,4.2-1.5s2.8-1.2,4.2-1.6
		c5.3-1.6,9-5,12-9.5c1.1-1.6,1.5-3.6,0.9-5.4c-1.4-4.9-4.3-9.3-8.3-12.5c-3-2.5-6.7-3.1-10.5-2.6
		C527.6,200.6,522.1,205,516.6,209.5z"/>
	<path d="M421.7,281.2c0.5,0.9,1,1.8,1.5,2.6c6.7,10.5,13.5,21,20.1,31.3c0.9-0.1,1.8-0.1,2.7,0c0.5,0.1,0.9,0.5,1.2,0.9
		c0.1,0.5,0,1-0.4,1.4c-1.5,0.9-3.1,1.8-4.7,2.5c-0.2,0.1-1.2-0.6-1.2-0.7c0.8-2.2-0.8-3.6-1.8-5.2c-7.3-11.3-14.6-22.5-21.9-33.8
		c-5.2-8.1-10.3-16.2-15.5-24.4h-2.9c0-0.7-0.2-1.6,0.2-1.9c0.9-1,2.1-1.7,3.4-2.2c3.1-0.7,5.8-2.3,8.7-3.7c3.1-1.5,6.3-2.7,9.6-3.6
		c6.3-1.9,11.3,0,15.6,4.5c2.4,2.5,4.1,5.5,5.1,8.8c0.9,3,0.8,6.3-0.5,9.2c-0.4,1.1-1.1,2.2-2,3c-2.4,2.2-5.1,4.1-8.1,5.6
		c-2.6,1.3-5.1,2.7-7.6,4.1C422.7,280.1,422.2,280.6,421.7,281.2z M419.7,277.5c2.9-1.6,5.5-3.4,8.3-4.7c2.6-1.3,5-2.9,7.2-4.6
		c3-2.2,3.8-5.1,3.1-8.7c-0.6-2.8-1.9-5.4-3.8-7.6c-3.3-4.1-7.5-5.8-12.7-4.5c-5.8,1.6-11.3,4-16.4,7.2
		C407.3,258.7,416.9,274.3,419.7,277.5L419.7,277.5z"/>
	<path d="M470.1,227.7c0.8-0.8,1.2-1.6,1.8-1.9c2.3-0.9,4.3-2.5,6.4-3.7c3.1-1.8,6.2-3.4,9.4-5c2.5-1.1,5.2-1.8,7.9-2.1
		c6.4-1,10.9,1.8,14.2,6.9c1.2,2,2.2,4.1,2.9,6.3c0.9,2.8,0.7,5.8-0.5,8.4c-1.7,3.8-4.6,6.9-8.2,9c-3.7,2.3-7.4,4.8-11,7.2
		c-1.1,0.8-2.1,1.7-3.3,2.7c4.1,10.4,9.8,19.7,16,28.9c0.8-0.2,1.5-0.4,2.3-0.4c0.5,0,1,0.3,1.3,0.7c0.2,0.5,0.2,1-0.1,1.5
		c-1.4,1.3-2.8,2.5-4.4,3.7c-0.5,0.2-1.1,0.1-1.5-0.2c-0.4-0.3-0.6-0.9-0.6-1.4c0.2-0.8,0.5-1.6,0.9-2.3c-1.9-2.7-3.8-5.4-5.6-8.1
		c-3.7-5.6-6.9-11.5-9.7-17.6c-2-4.2-4.4-8.2-6.6-12.3c-2.6-5-5.2-9.9-7.8-15C473.1,231,472.5,228.9,470.1,227.7z M488,251.5
		c0.3,0,0.5-0.1,0.8-0.2c4.9-3,9.7-6.1,14.6-9.2c2.7-1.7,4.8-4.2,6-7.1c0.9-1.7,1-3.8,0.3-5.6c-0.8-2.2-1.8-4.3-3.1-6.3
		c-2.5-3.6-5.9-5.8-10.5-4.9c-2.6,0.4-5.1,1-7.5,1.9c-3.7,1.7-7.2,3.9-10.8,5.9c-0.9,0.6-1.7,1.2-2.5,1.8
		C477,233.7,484,246.6,488,251.5z"/>
	<path d="M458.8,269.7l4.5-2.4c-0.2-1.1-0.3-2.3-0.3-3.4c0.1-0.7,0.8-1.1,1.5-1c0.1,0,0.3,0.1,0.4,0.2c1.8,1.7,3.3,3.7,4.2,6
		c0.4,0.9-0.7,2-1.7,1.7c-0.8-0.3-1.6-0.6-2.3-1c-1.6,0.8-3.4,1-4.8,2.5c0.1,0.5,0.3,1,0.6,1.5c4.9,7.7,9.8,15.5,14.9,23.4
		c1-0.4,2-0.9,2.9-1.5c2.5-2.5,5.6-3.8,8.8-5.1c0.9-0.4,1.7-0.9,2.7-1.4c-0.2-0.9-0.3-1.9-0.3-2.8c0-0.8,0.7-1.5,1.5-1.4
		c0.3,0,0.6,0.1,0.9,0.3c1.2,1.4,2.4,2.9,3.4,4.4c0.4,0.6-0.2,1.8-1,1.9c-3.8,0.5-6.8,2.6-10.2,4.1c-2,0.9-3.6,2.5-5.5,3.6
		c-3.3,2-4.1,3.6-6.9-1.5c-3.7-6.7-8-13.1-12.3-19.5c-1.7-2.5-3.2-5.1-4.4-7.9c-2.7-6.3-6.2-12.2-9.5-18.2c-1.9-3.4-3.5-7-4.9-10.6
		c0.3-1.6,1.5-2.2,2.5-2.8c4.3-2.5,8.6-4.9,13.1-7.4c0.1-0.7,0.3-1.4,0.5-2.1c0.2-0.6,0.8-1,1.5-0.8c0.2,0.1,0.4,0.2,0.5,0.3
		c1.6,2.2,3,4.5,4.5,6.9c0.2,0.3-0.1,1.1-0.5,1.4c-0.5,0.5-1.2,0.5-1.7,0c0,0-0.1-0.1-0.1-0.1c-0.8-0.9-1.6-1.9-2.3-2.7
		c-3.3,0.9-11.8,5.4-15.3,8.2c0.3,0.7,0.6,1.5,0.9,2.2c2.1,3.7,4.3,7.3,6.4,11c2.3,4.1,4.5,8.2,6.7,12.3
		C458,268.4,458.3,268.9,458.8,269.7z"/>
	<path d="M727.6,288l-13.1,4.2c0,0.8,0.1,1.5,0.2,2.3c0.7,2.8,1.4,5.6,2.2,8.4c1.3,4.8,2.7,9.5,4,14.3c0.2,0.5,0.4,0.9,0.6,1.4
		c0.6-0.1,1.2-0.2,1.8-0.3c1.8-0.5,3.7-1,5.8-1.6c0.2-0.4,0.5-0.7,0.8-1.1c0.8-0.9,1.9-1,2.4-0.1c0.8,1.4,1.5,2.9,2.1,4.4
		c0.3,0.9-1.1,2.1-1.8,1.6c-3.6-2.3-6.7-0.2-10.2,0.7c0.1,1,0.2,2.1,0.4,3.1c1,3.4,2,6.8,3,10.3c0.6,2.1,1.1,4.2,1.8,6.3
		c0.6,1.8,1.5,3.5,2.2,5.1c3.8-0.8,4.7-1.3,7.2-3.6c0.8-0.7,1.7-1.3,2.8-1.5c2.5-0.7,4.9-1.9,7-3.5c0.1-0.9,0.3-1.8,0.5-2.8
		c0.3-0.9,1.8-1.3,2.4-0.5c1.2,1.8,2.3,3.7,3.2,5.6c0.4,0.8-1,2.2-1.7,1.7c-2.6-1.5-4.3-0.1-6.2,1.4c-1.5,1.1-3.2,2-4.7,3.2
		c-2.8,2.3-6.3,3.2-9.7,4.2c-1.1,0.3-2.3-0.2-2.8-1.3c-0.6-1.1-1-2.2-1.5-3.4c-3.1-8.2-5.6-16.6-7.3-25.2
		c-1.1-5.8-2.5-11.5-4.3-17.1c-1.2-3.9-2.1-8-2.5-12.1c-0.3-2,0-2.5,1.8-3.1c3-1,6-2,9-3c1.5-0.5,3.1-1,3.5-3c0.3-1.1,2-1.1,2.7-0.1
		c1.1,1.7,2.1,3.5,3.1,5.3c0.4,0.8,0.2,1.7-0.6,2.2c0,0,0,0,0,0c-0.7,0.4-1.7,0.3-2.2-0.5C728.6,289.3,728.2,288.7,727.6,288z"/>
	<path d="M668.1,305.6c0.5-0.8,1.1-1.5,1.7-2.2c0.5-0.5,1.3-0.5,1.8-0.1c0,0,0,0,0.1,0.1c1.2,1.2,1.2,2.7,1.2,4.2
		c0,1.2-0.1,2.5-1.5,3.1c-0.2,0.1-0.4,0.1-0.6,0.1l-2.5-2c-3.6,0.1-7.3,0.3-11,0.4c-3.5,0.1-7.1,0-10.8,0c-0.7,3.6,0,7-0.3,10.4
		c-0.4,3.3-0.4,6.6,0.1,9.9c0.4,0.2,0.7,0.5,1.1,0.5c3.2-0.1,6.3,0.2,9.4,0.7c1.5,0.4,2.5-0.3,3.6-1.5c0.9-1,2.1-0.5,2.5,0.8
		c0.7,2,0.5,3-1,5c-1-0.5-2-0.8-3-1.1c-4.1-0.5-8.1-0.8-12.2-1.2c-1.3,2.3-0.8,4.7-1,7s-0.2,4.6-0.2,7s0,4.6,0,7.1
		c0.9,0.4,1.7,0.9,2.5,1.4c0.5,0.4,0.8,1,0.9,1.7c0,0.7-0.7,1.1-1.5,1.2c-1.9,0.1-3.8,0.1-5.7,0.1c-0.9,0.1-1.6-0.5-1.9-1.3
		c-0.2-0.9,0.4-1.5,1.2-1.9c0.4-0.2,0.7-0.4,1.1-0.7c0-2.2,0-4.4,0-6.5c0-6.3-0.1-12.6-0.1-18.9c0-1,0.1-1.9,0.3-2.9
		c0.8-4.9,1.2-9.8,1.2-14.7c0-0.7,0-1.4,0-2c0.1-1.7,1.4-3.1,3.1-3.3c0.7-0.1,1.3-0.1,2-0.1C655.1,306.4,661.4,305,668.1,305.6z"/>
	<path d="M794.3,306c-7.6-12.7-15.6-24.9-23.5-37.5c-1.5,0.8-2.8,1.5-4.1,2.1c-0.5,0.3-1.2,0-1.4-0.5c-0.2-0.5-0.1-1,0.3-1.3
		c1.1-1,2.3-2.2,3.6-2.6c5.6-1.8,11.3-2.6,16.8,0.4c2.1,1.2,4.2,2.7,6,4.3c3.1,2.5,5.7,5.6,7.5,9.2c0.9,1.9,1.6,3.8,2.1,5.8
		c0.7,2.9,1.3,5.9,1.7,8.9c0.6,3.6-0.4,7.2-2.9,9.9c-1.6,1.7-3.1,3.5-4.8,5.1c-0.7,0.7-1.5,1.2-2.4,1.4c-0.9,0.2-1.7-0.4-1.9-1.3
		c-0.1-0.4,0-0.9,0.3-1.3C792.3,307.6,793.3,306.7,794.3,306z M796.4,303.7c3.5-2.9,4.7-6.1,3.8-10.1c-0.5-2.4-0.9-4.8-1.3-7.3
		c-0.4-2-1.1-4-2.2-5.7c-3.2-5.1-7.7-8.8-12.8-11.9c-3-1.9-6.4-1.6-10.2-0.8C781.4,280.1,788.8,291.7,796.4,303.7z"/>
	<path d="M819.3,249.6c2.5,1.5,3.2,3.8,3.3,6.3c-0.1,0.7-0.8,1.2-1.4,1c-0.1,0-0.3-0.1-0.4-0.1c-0.3-0.3-0.6-0.6-0.8-0.9
		c-0.3-0.3-0.6-0.5-0.9-0.8c-8.1,1-11.6,5.8-10.7,14.7c0.8,0.4,1.6,0.7,2.5,0.9c2.9,0.2,5.7,0.2,8.6,0.2c1,0,1.9-0.1,2.9-0.3
		c3-0.5,5,0.9,6.4,3.4c1.6,2.8,2.2,6,1.9,9.1c-0.3,2-1.3,3.9-2.9,5.3c-2.5,2.5-5.6,4.4-9,5.5c-1.7,0.5-3.4,0.8-4.6,2.4
		c-0.6,0.8-1.9,0.4-2.4-0.5c-0.9-1.4-1.3-3.1-1.1-4.7c0.2-1.6,1.6-2.1,3-1.1c0.4,0.3,0.8,0.7,1.2,1.1c3.6-0.6,7.1-2.2,9.9-4.5
		c3.5-2.9,4-8.2,1-11.7c-0.2-0.2-0.4-0.4-0.6-0.7c-0.7-0.7-1.7-0.9-2.7-0.6c-3.5,0.7-7.1,0.9-10.6,0.5c-1.5-0.2-3-0.5-4.4-0.9
		c-1.6-0.5-2.7-2-2.7-3.6c-0.4-4.6,0.9-9.1,3.5-12.8c1.5-2,3.6-3.4,6-4.1c1.1-0.3,2.1-0.6,3.1-1.1
		C818,251.1,818.7,250.4,819.3,249.6z"/>
	<path d="M746.6,278.7c2.5,5,4.8,9.8,7.2,14.5s4.9,9.8,7.3,14.7s4.3,9.7,6.5,14.6c5.5-1.5,9.2-5.1,13.3-8.2
		c-0.3-1.1-0.5-2.2-0.7-3.3c0-0.8,0.7-1.4,1.4-1.3c0.2,0,0.4,0.1,0.6,0.2c0.5,0.3,0.9,0.7,1.2,1.1c0.8,1.2,1.6,2.5,2.3,3.9
		c0.2,0.4,0,1,0,1.8c-3.4,0.5-5.8,2.9-8.5,4.7c-2.8,1.7-5.7,3.3-8.7,4.6c-1,0.5-2.3,0.1-2.8-0.9c0,0,0,0,0-0.1
		c-0.7-1-1.3-2.1-1.8-3.2c-2.8-6.1-5.5-12.2-8.3-18.3c-2.5-5.5-5-10.9-7.5-16.4c-0.8-1.6-1.6-3.2-2.5-4.7s-1.5-3.2-3.8-3.2
		c-0.4,0-1-1-1-1.5c0.1-0.6,0.5-1.2,1.1-1.5c1.3-0.5,2.6-0.9,3.9-1c1.4-0.2,2.1,1.1,1.4,2.5C747.1,277.9,746.9,278.3,746.6,278.7z"
		/>
	<path d="M688.4,305.1c-0.5-0.3-0.8-0.5-1.1-0.8c-1.3-1-1.4-2.1-0.1-2.7c1.8-1,4-1.1,5.9-0.3c0.7,0.2,1.1,1.1,0.9,1.8
		c-0.1,0.3-0.4,0.6-0.7,0.8c-0.6,0.4-1.2,0.7-1.9,1c0.1,1.4,0.1,2.8,0.2,4.1c0.2,4,0.3,8,0.5,11.9c0,0.7,0,1.3,0.1,2
		c0.9,6.3,0.7,12.6,0.7,18.9c0,4.3,0.3,8.5,1,12.8c0.8,0.1,1.6,0.4,2.4,0.6c0.8,0.4,1.1,1.3,0.8,2.1c-0.1,0.3-0.3,0.5-0.5,0.6
		c-1.9,1.1-4.1,1.6-6.3,1.3c-0.8-0.1-1.4-0.8-1.3-1.7c0-0.3,0.2-0.6,0.4-0.8c0.5-0.5,1-1,1.5-1.4c-0.2-3.8-0.5-7.6-0.7-11.4
		c0-0.4-0.1-0.8-0.1-1.2c0.3-7.4-0.5-14.7-0.8-22.1C688.9,315.5,688.6,310.4,688.4,305.1z"/>
	<path d="M105.8,490.3l9.8-6.2c-0.4-1.1-0.8-2.1-1.3-3.1c-3.6-5.9-7.3-11.6-10.7-17.6c-0.8-1.4-2.5-1-3.2-2.5
		c0.9-2.1,2.7-3.3,4.5-4.4c0.5-0.2,1.1-0.1,1.5,0.2c0.4,0.4,0.6,0.9,0.6,1.4c-0.3,0.9-0.6,1.7-1,2.5c0.9,1.4,1.7,3,2.6,4.5
		c2.8,4.4,5.6,8.8,8.3,13.2c1.8,2.9,3.2,6,5,9c3.1,5.2,6.3,10.3,9.5,15.4c0.6,1.4,1.9,2.3,3.4,2.6c2.1,0.4,2.4,2.3,0.8,3.6
		c-1,0.8-2,1.4-3.1,2c-1,0.5-2.6-0.2-2.5-1.2c0.4-2.9-1.5-4.9-2.8-7.1c-3-4.9-6-9.8-9.1-14.8c-3.9,1.5-7,4.1-10.5,5.8
		c0.1,1.5,0.7,3,1.7,4.2c2.3,3.6,4.6,7.2,6.9,10.7c0.7,1.2,1.5,2.3,2.2,3.5c0.5,1.1,1.4,2,2.4,2.6c0.8,0.3,1.3,1.1,1,2
		c-0.1,0.3-0.2,0.5-0.5,0.7c-1,1.1-2.2,2-3.5,2.8c-0.6,0.3-1.3,0.2-1.9-0.2c-0.5-0.5-0.7-1.1-0.6-1.8c1.2-2.6-0.2-4.5-1.4-6.4
		c-2.5-3.8-5-7.5-7.5-11.3c-0.6-0.9-1.2-1.9-1.6-2.9c-3.7-8.8-9.2-16.5-14.1-24.6c-0.6-0.9-1.5-1.5-2.6-1.6c-1.7-0.3-2-2-0.7-3
		c1.2-0.9,2.4-1.8,3.7-2.5c1.1-0.7,2.5,0.1,2.2,1.3c-0.5,2.1,0.3,3.7,1.3,5.3c3.3,5.2,6.5,10.5,9.8,15.7
		C104.7,488.9,105.2,489.5,105.8,490.3z"/>
	<path d="M107.3,517.6c-0.7-1.6-1.3-2.7-1.7-3.8c-0.3-0.8,0.1-1.7,0.8-2c0,0,0,0,0,0c0.6-0.1,1.3-0.1,1.9,0.1
		c0.4,0.2,0.7,0.4,0.9,0.8c1.3,1.9,2.6,3.8,3.9,5.8c0.3,0.5,0.5,1,0.7,1.5c0.6,1.8-0.8,3.3-2.4,2.7c-0.5-0.2-1-0.3-1.4-0.4
		c-3.2,1.7-6.1,3.4-9.2,4.8c-5.1,2.5-11.2,2.3-16.2-0.5c-4.5-2.5-8.6-5.3-11.2-10c-2.1-4-3.5-8.3-4-12.9c-0.9-7.2-0.5-14.2,3.2-20.8
		c1.4-2.4,2.9-4.7,5.4-6c0.5-0.3,0.9-0.6,1.3-1c-0.4-0.9-0.6-1.8-0.7-2.8c0.1-0.6,0.5-1.2,1-1.6c0.3-0.2,1-0.1,1.5,0.1
		c0.4,0.1,0.8,0.4,1,0.7c1.5,2.6,3,5.2,4.5,7.8c0.1,0.2,0.2,0.5,0.1,0.8c-0.2,0.5-0.4,1.1-0.7,1.3c-0.5,0.3-1,0.3-1.5,0
		c-0.8-0.7-1.5-1.5-2.1-2.4c-4.5,1.8-7.2,4.7-8,9.3c-0.7,3.5-1.1,7-1.2,10.6c0.1,4.7,1.3,9.3,3.4,13.4c0.7,1.5,1.7,2.8,2.9,4
		c2.1,1.9,4.4,3.7,6.8,5.3c1.4,0.9,2.9,1.5,4.6,1.6C97.1,524.2,102.7,522.4,107.3,517.6z"/>
	<path d="M152.7,439c-1.3-0.2-2.1,0.5-2.9-0.2c-0.3-1.2,0.2-2.5,1.2-3.2c1-0.7,2-1.4,3.1-2c0.5-0.5,1.3-0.5,1.9,0
		c0.6,0.5,0.7,1.3,0.3,1.9c-0.3,0.6-0.7,1.1-1.2,1.9c0.9,1.6,1.8,3.1,2.6,4.6c4,7,8.5,13.7,13.5,20.1c3.2,4.2,6.2,8.7,9.3,13
		c0.4,0.5,0.8,1,1.4,1.8l7.3-4.2c0.1-0.7,0.2-1.3,0.3-2c0.3-1.5,1.7-2.2,2.6-1.1c1.2,1.3,2.2,2.7,3.1,4.3c0.2,0.6,0,1.3-0.3,1.8
		c-0.4,0.3-0.9,0.5-1.5,0.4c-0.7-0.2-1.4-0.4-2-0.7c-2.9,2.1-6.4,3-9.1,5.4c-0.6,0.6-1.6,0.7-2.2,0.1c-0.2-0.2-0.4-0.5-0.5-0.8
		c-1.2-2.7-3-4.9-4.7-7.2c-3.7-5.1-7.4-10.2-10.9-15.5s-6.7-10.7-10-16C153.7,440.7,153.2,439.9,152.7,439z"/>
	<path d="M132.4,446.6c0.6-0.9,1.2-1.8,2-2.6c0.6-0.4,1.2-0.4,1.9-0.3c0.8,0.2,0.9,1,0.5,1.7c-0.6,1.2-0.1,2.1,0.4,3.1
		c2.1,3.7,4.3,7.3,6.5,11c2.3,4,4.7,8.1,6.8,12.2c1.6,3.2,3,6.5,4.5,9.7c1.2,2.7,2.9,5.2,5,7.3c1.3-0.7,2.6-1.4,3.9-2
		s2.7-1.2,4.2-1.9c-0.2-0.9-0.4-1.9-0.5-2.8c0.1-0.5,0.4-1,0.9-1.3c0.5-0.2,1-0.2,1.5,0.1c1.4,1.7,2.7,3.4,3.9,5.2
		c0.3,0.7-0.1,1.5-0.8,1.8c-0.1,0-0.2,0.1-0.3,0.1c-4.4-0.4-7.8,1.8-11.1,4.3c-1.3,1-2.3,0.9-3.2-0.3c-1.8-2.2-3.5-4.6-5-7.1
		c-1.7-3-3-6.2-4.5-9.3c-0.5-1-0.9-2-1.4-3c-2.6-4.7-5.2-9.3-7.9-14c-1.8-3.2-4.1-6.1-5.5-9.6C133.7,448.1,133.1,447.3,132.4,446.6z
		"/>
	<path d="M175.6,425.8l-3.5-0.4c0.9-2.1,2.8-3.5,5-3.9c0.4,0.3,0.8,0.5,0.8,0.6c0.1,1.8,0.8,3.5,1.9,4.9c4.1,6,8.3,11.9,12.4,17.9
		c4.4,6,8.2,12.3,11.4,19c0.2,0.4,0.5,0.7,0.8,1c0.8-0.4,1.7-0.7,2.6-1c0.8-0.3,1.7,0.2,2,1c0,0,0,0,0,0c0.1,0.6,0.1,1.3-0.2,1.9
		c-0.4,0.6-0.9,1.1-1.5,1.4c-1.6,1.1-3.2,2.1-4.8,3.1c-0.5,0.5-1.4,0.4-1.9-0.1c-0.3-0.4-0.6-1.2-0.5-1.5c2-3.2,0.3-5.8-1.2-8.3
		c-2.6-4.5-5.3-9-8.1-13.3C186,440.7,180.9,433.4,175.6,425.8z"/>
	<path d="M118,454.5l-2.9-0.7c0.1-0.5,0-0.9,0.2-1c0.9-0.8,1.9-1.5,3-2.1c0.5-0.2,1-0.2,1.5,0.1c0.3,0.3,0.3,1,0.3,1.4
		c-0.1,0.4-0.3,0.8-0.6,1.2c0.7,2,2.2,3.7,3.4,5.5c0.8,1.2,1.6,2.5,2.4,3.8c1.5,2.4,2.9,4.9,4.5,7.3c1.7,2.7,3.6,5.2,5.2,7.9
		c2.3,4,4.4,8.2,6.6,12.3c1.4,2.5,3,4.9,4.5,7.5c0.8,0,1.6,0.1,2.4,0.3c0.6,0.2,1.1,0.6,1.4,1.2c0.1,0.7-0.1,1.3-0.6,1.8
		c-1.1,0.8-2.3,1.4-3.6,1.9c-2,0.7-3.1-0.2-2.8-2.3c0.1-0.8,0-1.6-0.4-2.3c-4.7-7.4-8.4-15.3-12.5-23.1c-1.3-2.5-3.1-4.8-4.7-7.3
		c-0.5-0.7-0.9-1.4-1.2-2.1c-1-2.7-2.4-5.2-4.1-7.6C119.3,457,118.6,455.8,118,454.5z"/>
	<path d="M814.6,152.7c-3.3-0.1-5.5-1.9-6-4.2c-0.6-3,0.4-5.3,3-6.5c0.5-0.2,1-0.4,1.5-0.6c3.3-1.3,5.8-0.6,6.9,2
		c1.5,3.5,0.5,7-2.5,8.5C816.7,152.2,815.7,152.5,814.6,152.7z M817.2,146.8c0-1.6-1.3-2.8-2.9-2.8c-0.1,0-0.3,0-0.4,0
		c-1.5,0.1-2.7,1.4-2.7,2.9c0,0,0,0.1,0,0.1c0,1.4,1.1,2.6,2.5,2.6c0,0,0,0,0.1,0C815.8,149.5,817.2,148.4,817.2,146.8L817.2,146.8z
		"/>
	<path d="M822.4,153.4c0.6,0.4,0.8,1.3,0.4,1.9c0,0,0,0.1-0.1,0.1c-1.9,2.6-7.6,4.2-10.4,2.9c-0.5-0.3-0.9-0.6-1.3-1
		c-0.2-0.2-0.2-0.5-0.2-0.7c0.2-0.3,0.6-0.8,0.8-0.7c3.6,0.8,6.7-0.6,9.7-2.3C821.7,153.5,822,153.5,822.4,153.4z"/>
	<path d="M275.3,218.5c0,4.4-2.5,8.4-6.5,10.2c-3,1.6-6.6,1.3-9.3-0.7c-2.8-1.9-4.2-5.2-3.8-8.6c0.4-4.3,3-8.1,6.9-10
		c4.9-2.6,11.5,1,12.5,6.8C275.3,216.8,275.3,217.5,275.3,218.5z"/>
	<path d="M271.8,233.5c0.8,1.7,1.6,3.4,2.3,5.1c0.1,0.2-0.2,0.7-0.5,1c-0.2,0.1-0.5,0-0.7-0.1C271.8,237.7,270.6,235.9,271.8,233.5z
		"/>
	<path d="M258,201.2c0.6,0.2,0.8,0.2,0.9,0.3c0.9,1,2,1.8,1.6,3.4c0,0.1-0.6,0.3-0.7,0.3C258.6,204.3,257.8,202.8,258,201.2z"/>
	<path d="M269.4,203.3c-0.2,0.3-0.4,0.5-0.7,0.7c-0.1,0.1-0.5-0.1-0.6-0.3c-0.2-0.5,0.3-1.1,0.7-1
		C269,202.8,269.2,203.1,269.4,203.3z"/>
	<path d="M263.2,236.1l-0.6,0.9c-0.2-0.3-0.5-0.5-0.5-0.8s0.4-0.5,0.6-0.8L263.2,236.1z"/>
	<path d="M252.8,211c-0.2,0.3-0.4,0.6-0.5,0.6c-0.3-0.1-0.6-0.3-0.9-0.5l0.5-0.8L252.8,211z"/>
</g>
</svg>
